<?xml version="1.0" encoding="UTF-8"?>
<svg version="1.1" xmlns="http://www.w3.org/2000/svg" width="512" height="512">
<path d="M0 0 C1.01707031 0.49371094 2.03414062 0.98742187 3.08203125 1.49609375 C15.83557825 8.08760487 26.72067505 17.08779379 37 27 C37.77859375 27.71542969 38.5571875 28.43085937 39.359375 29.16796875 C65.9994594 54.3437932 79.88278324 92.56580081 81.125 128.62890625 C81.47992676 151.32203627 78.1022606 176.98066214 66.33984375 196.796875 C64.49563611 201.20576789 64.59438968 205.08327158 64.6875 209.8125 C64.69587891 210.72797607 64.70425781 211.64345215 64.71289062 212.58666992 C64.86101588 221.14016249 65.75864735 229.54328506 67 238 C67.96679688 237.95359375 68.93359375 237.9071875 69.9296875 237.859375 C83.81642697 237.47439608 92.40373328 240.98570605 102.581604 250.38381958 C105.59791071 253.3101006 108.58223812 256.26564764 111.55664062 259.234375 C112.70028651 260.36874746 113.84431994 261.50272931 114.9887085 262.63635254 C118.07580859 265.69738947 121.15637285 268.76491878 124.23492622 271.83454895 C126.15977101 273.75351024 128.08577474 275.67130095 130.01213074 277.58874512 C136.04374673 283.59307773 142.07139421 289.60135197 148.09325647 295.61546707 C155.03785643 302.55108163 161.99538541 309.47337561 168.96432352 316.38453293 C174.35931148 321.73633708 179.74276248 327.09956767 185.11753988 332.47166824 C188.32514379 335.67717513 191.5374333 338.87762663 194.76179504 342.06628418 C197.78904258 345.06064971 200.80173926 348.06891641 203.8037796 351.08854675 C204.90797642 352.19428786 206.01733052 353.29490614 207.13211823 354.38996887 C208.65233961 355.88485214 210.15293647 357.39703982 211.65002441 358.91503906 C212.49505775 359.75713928 213.34009109 360.5992395 214.21073151 361.46685791 C216.41204293 364.58334637 216.44714163 366.25953924 216 370 C212.26679512 379.26728677 205.43308635 386.4143936 198.54199219 393.42724609 C197.0557779 394.94310936 195.59268 396.47833549 194.1328125 398.01953125 C186.92949477 405.47792397 177.60906033 414.81520279 167 417 C162.65327886 415.71834798 160.16787871 413.54461012 156.99060059 410.37155151 C156.51208066 409.89771156 156.03356074 409.42387161 155.54054022 408.93567288 C153.94365654 407.35072674 152.35767762 405.75530753 150.77148438 404.15966797 C149.62678531 403.0190353 148.48144929 401.87904155 147.33552551 400.73963928 C144.22729319 397.6450827 141.12862519 394.54111151 138.03198433 391.43496084 C134.78635303 388.18172883 131.53340204 384.93582923 128.28161621 381.68875122 C122.81888883 376.2314825 117.36251783 370.76791825 111.90966797 365.30078125 C105.61519335 358.99000448 99.31001752 352.6900747 92.99912596 346.39571846 C87.57518669 340.98542014 82.15714973 335.56926326 76.74394655 330.14822304 C73.51363546 326.91324662 70.28135984 323.68030307 67.04374695 320.4526329 C63.99667765 317.41426804 60.95711393 314.36858417 57.92304039 311.31724358 C56.81185328 310.20210911 55.6981414 309.08948356 54.58165932 307.9796505 C44.35272538 297.80600312 36.85506301 288.35852422 36.8125 273.3125 C36.85946721 271.8744087 36.91587265 270.43639656 37 269 C26.85016639 264.45073371 9.76410313 262.30992206 -1.00439453 265.61523438 C-4.42208331 266.94057986 -7.70140863 268.51882873 -10.99609375 270.12109375 C-42.5560792 285.4039878 -83.07407737 284.72977688 -115.7890625 273.9140625 C-138.14516292 265.99503113 -157.30428289 253.73453146 -174 237 C-174.93199219 236.07960938 -175.86398438 235.15921875 -176.82421875 234.2109375 C-205.32725823 204.69138449 -216.66028403 165.79580984 -216.2109375 125.58203125 C-216.02897883 116.48522072 -215.11493489 107.84602902 -213 99 C-212.81195801 98.21044922 -212.62391602 97.42089844 -212.43017578 96.60742188 C-207.92710861 78.50917577 -200.23856608 60.94660621 -189 46 C-188.06607422 44.75283203 -188.06607422 44.75283203 -187.11328125 43.48046875 C-161.92576699 11.03813294 -126.59824294 -10.0735803 -85.625 -15.25 C-55.66768642 -18.53067771 -26.98091517 -13.16723099 0 0 Z " fill="#E8F2FB" transform="translate(272,72)"/>
<path d="M0 0 C1.01707031 0.49371094 2.03414062 0.98742187 3.08203125 1.49609375 C15.83557825 8.08760487 26.72067505 17.08779379 37 27 C37.77859375 27.71542969 38.5571875 28.43085937 39.359375 29.16796875 C65.9994594 54.3437932 79.88278324 92.56580081 81.125 128.62890625 C81.47992676 151.32203627 78.1022606 176.98066214 66.33984375 196.796875 C64.49563611 201.20576789 64.59438968 205.08327158 64.6875 209.8125 C64.69587891 210.72797607 64.70425781 211.64345215 64.71289062 212.58666992 C64.86101588 221.14016249 65.75864735 229.54328506 67 238 C67.96679688 237.95359375 68.93359375 237.9071875 69.9296875 237.859375 C83.81642697 237.47439608 92.40373328 240.98570605 102.581604 250.38381958 C105.59791071 253.3101006 108.58223812 256.26564764 111.55664062 259.234375 C112.70028651 260.36874746 113.84431994 261.50272931 114.9887085 262.63635254 C118.07580859 265.69738947 121.15637285 268.76491878 124.23492622 271.83454895 C126.15977101 273.75351024 128.08577474 275.67130095 130.01213074 277.58874512 C136.04374673 283.59307773 142.07139421 289.60135197 148.09325647 295.61546707 C155.03785643 302.55108163 161.99538541 309.47337561 168.96432352 316.38453293 C174.35931148 321.73633708 179.74276248 327.09956767 185.11753988 332.47166824 C188.32514379 335.67717513 191.5374333 338.87762663 194.76179504 342.06628418 C197.78904258 345.06064971 200.80173926 348.06891641 203.8037796 351.08854675 C204.90797642 352.19428786 206.01733052 353.29490614 207.13211823 354.38996887 C208.65233961 355.88485214 210.15293647 357.39703982 211.65002441 358.91503906 C212.49505775 359.75713928 213.34009109 360.5992395 214.21073151 361.46685791 C216.41204293 364.58334637 216.44714163 366.25953924 216 370 C212.26679512 379.26728677 205.43308635 386.4143936 198.54199219 393.42724609 C197.0557779 394.94310936 195.59268 396.47833549 194.1328125 398.01953125 C186.92949477 405.47792397 177.60906033 414.81520279 167 417 C162.65327886 415.71834798 160.16787871 413.54461012 156.99060059 410.37155151 C156.51208066 409.89771156 156.03356074 409.42387161 155.54054022 408.93567288 C153.94365654 407.35072674 152.35767762 405.75530753 150.77148438 404.15966797 C149.62678531 403.0190353 148.48144929 401.87904155 147.33552551 400.73963928 C144.22729319 397.6450827 141.12862519 394.54111151 138.03198433 391.43496084 C134.78635303 388.18172883 131.53340204 384.93582923 128.28161621 381.68875122 C122.81888883 376.2314825 117.36251783 370.76791825 111.90966797 365.30078125 C105.61519335 358.99000448 99.31001752 352.6900747 92.99912596 346.39571846 C87.57518669 340.98542014 82.15714973 335.56926326 76.74394655 330.14822304 C73.51363546 326.91324662 70.28135984 323.68030307 67.04374695 320.4526329 C63.99667765 317.41426804 60.95711393 314.36858417 57.92304039 311.31724358 C56.81185328 310.20210911 55.6981414 309.08948356 54.58165932 307.9796505 C44.35272538 297.80600312 36.85506301 288.35852422 36.8125 273.3125 C36.85946721 271.8744087 36.91587265 270.43639656 37 269 C26.85016639 264.45073371 9.76410313 262.30992206 -1.00439453 265.61523438 C-4.42208331 266.94057986 -7.70140863 268.51882873 -10.99609375 270.12109375 C-42.5560792 285.4039878 -83.07407737 284.72977688 -115.7890625 273.9140625 C-138.14516292 265.99503113 -157.30428289 253.73453146 -174 237 C-174.93199219 236.07960938 -175.86398438 235.15921875 -176.82421875 234.2109375 C-205.32725823 204.69138449 -216.66028403 165.79580984 -216.2109375 125.58203125 C-216.02897883 116.48522072 -215.11493489 107.84602902 -213 99 C-212.81195801 98.21044922 -212.62391602 97.42089844 -212.43017578 96.60742188 C-207.92710861 78.50917577 -200.23856608 60.94660621 -189 46 C-188.06607422 44.75283203 -188.06607422 44.75283203 -187.11328125 43.48046875 C-161.92576699 11.03813294 -126.59824294 -10.0735803 -85.625 -15.25 C-55.66768642 -18.53067771 -26.98091517 -13.16723099 0 0 Z M-160.1171875 49.26953125 C-166.34798384 56.2618811 -171.43657129 63.81495659 -176 72 C-176.90878906 73.61455078 -176.90878906 73.61455078 -177.8359375 75.26171875 C-181.35423825 81.87581689 -184.0263219 88.50349159 -186.3125 95.625 C-186.55500488 96.37604004 -186.79750977 97.12708008 -187.04736328 97.90087891 C-190.51594588 109.26263181 -191.44454721 120.53375638 -191.4375 132.375 C-191.43790283 133.07354095 -191.43830566 133.77208191 -191.4387207 134.49179077 C-191.33668269 165.38687674 -179.96522586 194.29251161 -159 217 C-158.1234375 217.9590625 -157.246875 218.918125 -156.34375 219.90625 C-136.66497583 240.51108413 -107.6174204 255.33952393 -78.89727783 256.36039734 C-76.12846909 256.41168758 -73.36239318 256.41634013 -70.59326172 256.39111328 C-68.50031436 256.37500242 -66.40929664 256.39108997 -64.31640625 256.41015625 C-30.8378006 256.46282137 -0.85868511 241.32762948 22.76171875 218.30859375 C36.33785193 204.0078318 45.36236535 186.85280929 51.375 168.1875 C51.61379883 167.44790039 51.85259766 166.70830078 52.09863281 165.94628906 C61.33312372 135.62348173 56.75026398 102.18662843 42.25 74.375 C26.34157503 45.29341552 0.72604178 23.9365679 -31 14 C-78.07074554 1.4421445 -126.47267111 13.08806589 -160.1171875 49.26953125 Z " fill="#A4BBDB" transform="translate(272,72)"/>
<path d="M0 0 C7.29784453 4.89040361 13.36689982 11.05644419 19.55664062 17.234375 C20.70028651 18.36874746 21.84431994 19.50272931 22.9887085 20.63635254 C26.07580859 23.69738947 29.15637285 26.76491878 32.23492622 29.83454895 C34.15977101 31.75351024 36.08577474 33.67130095 38.01213074 35.58874512 C44.04374673 41.59307773 50.07139421 47.60135197 56.09325647 53.61546707 C63.03785643 60.55108163 69.99538541 67.47337561 76.96432352 74.38453293 C82.35931148 79.73633708 87.74276248 85.09956767 93.11753988 90.47166824 C96.32514379 93.67717513 99.5374333 96.87762663 102.76179504 100.06628418 C105.78904258 103.06064971 108.80173926 106.06891641 111.8037796 109.08854675 C112.90797642 110.19428786 114.01733052 111.29490614 115.13211823 112.38996887 C116.65233961 113.88485214 118.15293647 115.39703982 119.65002441 116.91503906 C120.49505775 117.75713928 121.34009109 118.5992395 122.21073151 119.46685791 C124.41204293 122.58334637 124.44714163 124.25953924 124 128 C120.26679512 137.26728677 113.43308635 144.4143936 106.54199219 151.42724609 C105.0557779 152.94310936 103.59268 154.47833549 102.1328125 156.01953125 C94.92949477 163.47792397 85.60906033 172.81520279 75 175 C70.65327886 173.71834798 68.16787871 171.54461012 64.99060059 168.37155151 C64.51208066 167.89771156 64.03356074 167.42387161 63.54054022 166.93567288 C61.94365654 165.35072674 60.35767762 163.75530753 58.77148438 162.15966797 C57.62678531 161.0190353 56.48144929 159.87904155 55.33552551 158.73963928 C52.22729319 155.6450827 49.12862519 152.54111151 46.03198433 149.43496084 C42.78635303 146.18172883 39.53340204 142.93582923 36.28161621 139.68875122 C30.81888883 134.2314825 25.36251783 128.76791825 19.90966797 123.30078125 C13.61519335 116.99000448 7.31001752 110.6900747 0.99912596 104.39571846 C-4.42481331 98.98542014 -9.84285027 93.56926326 -15.25605345 88.14822304 C-18.48636454 84.91324662 -21.71864016 81.68030307 -24.95625305 78.4526329 C-28.00332235 75.41426804 -31.04288607 72.36858417 -34.07695961 69.31724358 C-35.18814672 68.20210911 -36.3018586 67.08948356 -37.41834068 65.9796505 C-47.47582961 55.97652148 -54.73745961 46.7008482 -55.4375 32 C-55.06865978 21.88094874 -50.14738341 12.07700903 -43 5.02734375 C-31.12528864 -4.96013669 -13.79678467 -8.25599595 0 0 Z " fill="#C9DBEF" transform="translate(364,314)"/>
<path d="M0 0 C1.73942817 1.48704293 3.47753639 2.97556819 5.21337891 4.46679688 C6.47567039 5.55004237 7.74220527 6.62835242 9.01171875 7.703125 C28.37947309 25.58105208 40.64896347 55.36852973 42.20507812 81.43530273 C42.30281375 85.06373787 42.328991 88.68280702 42.3125 92.3125 C42.30512817 94.23388794 42.30512817 94.23388794 42.29760742 96.1940918 C42.18595583 105.19321033 41.52928283 113.32671028 39 122 C38.50693359 123.86978516 38.50693359 123.86978516 38.00390625 125.77734375 C29.25312278 157.44404539 8.62053323 184.58742845 -20 200.875 C-48.73287905 216.57938805 -84.50813779 221.49831062 -116.25390625 212.546875 C-123.46285012 210.2858154 -130.29124804 207.46675792 -137 204 C-137.60247559 203.69191406 -138.20495117 203.38382813 -138.82568359 203.06640625 C-149.47539017 197.53051132 -160.76643319 190.74281845 -168 181 C-167.03964844 181.144375 -166.07929688 181.28875 -165.08984375 181.4375 C-137.48776638 185.29733058 -112.13614377 182.45439284 -86 173 C-85.31679687 172.75378906 -84.63359375 172.50757813 -83.9296875 172.25390625 C-69.9655178 167.08307354 -57.21525993 158.72244376 -46 149 C-45.18273437 148.30390625 -44.36546875 147.6078125 -43.5234375 146.890625 C-32.43708934 137.21152227 -23.60966479 126.52941583 -16 114 C-15.60925293 113.35853027 -15.21850586 112.71706055 -14.81591797 112.05615234 C5.63032181 77.77888506 8.23458355 38.37513038 0 0 Z " fill="#C9DBEF" transform="translate(286,112)"/>
<path d="M0 0 C0 8.91 0 17.82 0 27 C-2.76375 25.9275 -5.5275 24.855 -8.375 23.75 C-15.03782954 21.24476681 -21.66892262 19.14641023 -28.625 17.625 C-29.33317871 17.46999023 -30.04135742 17.31498047 -30.77099609 17.15527344 C-62.98413715 10.51759734 -96.43828521 17.09567318 -124.125 34.6875 C-140.43176425 46.13359414 -153.1974086 59.56407542 -163 77 C-163.60714844 78.07765625 -164.21429688 79.1553125 -164.83984375 80.265625 C-168.35440288 86.87945619 -171.02688506 93.50524585 -173.3125 100.625 C-173.55500488 101.37604004 -173.79750977 102.12708008 -174.04736328 102.90087891 C-177.51594588 114.26263181 -178.44454721 125.53375638 -178.4375 137.375 C-178.43790283 138.07354095 -178.43830566 138.77208191 -178.4387207 139.49179077 C-178.37095294 160.01052679 -173.92648942 180.12918915 -163.2578125 197.90234375 C-162 200 -162 200 -162 202 C-165.49992696 202.79706768 -168.7142231 203.11863027 -172.30078125 203.09765625 C-173.27724609 203.09443359 -174.25371094 203.09121094 -175.25976562 203.08789062 C-176.26716797 203.07951172 -177.27457031 203.07113281 -178.3125 203.0625 C-179.33923828 203.05798828 -180.36597656 203.05347656 -181.42382812 203.04882812 C-183.94927882 203.03708184 -186.47460905 203.02065565 -189 203 C-205.55784428 174.11184615 -208.64976831 135.9962912 -201 104 C-200.81195801 103.21044922 -200.62391602 102.42089844 -200.43017578 101.60742188 C-195.92710861 83.50917577 -188.23856608 65.94660621 -177 51 C-176.06607422 49.75283203 -176.06607422 49.75283203 -175.11328125 48.48046875 C-149.92576699 16.03813294 -114.59824294 -5.0735803 -73.625 -10.25 C-49.30757053 -12.91304415 -22.13982381 -11.0699119 0 0 Z " fill="#B8C9E3" transform="translate(260,67)"/>
<path d="M0 0 C6.81279246 5.78654604 10.48040383 12.87367487 11.37890625 21.73828125 C12.0930489 37.38294343 6.69128093 49.03339683 -2.53515625 61.41015625 C-9.28693584 70.51297971 -13.55440128 78.78195838 -15.41015625 90.125 C-16.14497655 92.46085263 -17.10608897 93.47118026 -19 95 C-21.875 95.9375 -21.875 95.9375 -25 96 C-27.74716387 94.22960551 -29.53145922 92.93708156 -31 90 C-32.22092059 74.86058466 -24.16604204 62.08192783 -15.375 50.4375 C-8.098626 40.70610899 -4.34867161 32.51006357 -6 20 C-8.16461066 15.35009562 -10.48387489 13.28394293 -15 11 C-20.49675939 10.17881522 -25.43780554 10.27469543 -30.5 12.625 C-35.26973542 17.15624865 -37.06965766 20.57358708 -37.9375 27.0625 C-38.51344493 31.05439418 -38.91866971 32.87684271 -41.1875 36.3125 C-44 38 -44 38 -47.5625 38.125 C-51.70049994 36.77074547 -52.9596146 35.83592455 -55 32 C-56.01738678 21.82613215 -53.10980221 13.14191705 -47 5 C-34.57946825 -8.1875367 -14.90289077 -10.64817234 0 0 Z " fill="#377DFA" transform="translate(226,150)"/>
<path d="M0 0 C2.82847039 2.60517009 3.8665852 4.1995112 4.5 8 C3.69932252 12.80406485 0.93390784 15.26529134 -2.8203125 18.21875 C-3.91704819 18.9861119 -5.01894978 19.74612576 -6.125 20.5 C-7.3845925 21.3795243 -8.64368265 22.25976833 -9.90234375 23.140625 C-10.56862793 23.60404297 -11.23491211 24.06746094 -11.92138672 24.54492188 C-15.53697454 27.07591828 -19.11139365 29.66366005 -22.6875 32.25 C-23.4417627 32.79462891 -24.19602539 33.33925781 -24.97314453 33.90039062 C-31.3087807 38.48242512 -37.60214648 43.12058707 -43.89111328 47.76635742 C-51.45248134 53.34648304 -59.0686078 58.84874319 -66.69580078 64.33837891 C-69.1532654 66.11052387 -71.60632913 67.88863591 -74.05859375 69.66796875 C-74.88544678 70.26730225 -75.7122998 70.86663574 -76.56420898 71.48413086 C-78.15694968 72.63881598 -79.74894121 73.79453535 -81.34008789 74.95141602 C-82.05285889 75.46760498 -82.76562988 75.98379395 -83.5 76.515625 C-84.1290625 76.97227539 -84.758125 77.42892578 -85.40625 77.89941406 C-88.98886438 80.3734376 -91.66589247 80.4407567 -96 80 C-99.34729173 77.57855492 -100.76049116 76.12569154 -101.625 72.0625 C-100.15738816 64.87120197 -93.48658517 60.88359892 -87.8125 56.9375 C-86.19258269 55.78923973 -84.57279459 54.64079717 -82.953125 53.4921875 C-82.12876953 52.91178711 -81.30441406 52.33138672 -80.45507812 51.73339844 C-76.63724592 49.03783274 -72.84957593 46.30102745 -69.0625 43.5625 C-68.32362549 43.02939209 -67.58475098 42.49628418 -66.82348633 41.94702148 C-61.35745348 37.99811576 -55.92379904 34.00665571 -50.5 30 C-42.07949956 23.7799397 -33.61205081 17.62807368 -25.11035156 11.51953125 C-23.02541882 10.01830249 -20.94582679 8.50992677 -18.8671875 7 C-17.59905421 6.0832007 -16.33083017 5.1665269 -15.0625 4.25 C-14.48910889 3.83137695 -13.91571777 3.41275391 -13.32495117 2.98144531 C-8.59978647 -0.41969411 -5.73195762 -1.63770218 0 0 Z " fill="#337AFA" transform="translate(472,16)"/>
<path d="M0 0 C2.81831785 2.59581908 3.85564038 4.23008205 4.5625 8 C3.80039538 12.06455796 2.1151093 13.33686128 -1 16 C-3.93916321 17.20869446 -3.93916321 17.20869446 -7.22387695 18.03637695 C-8.45898514 18.35633133 -9.69409332 18.67628571 -10.96662903 19.00593567 C-12.30702028 19.33403643 -13.64757536 19.66146854 -14.98828125 19.98828125 C-16.37476409 20.33860089 -17.76092419 20.69020012 -19.14677429 21.04301453 C-22.04665385 21.77733238 -24.94914901 22.49975223 -27.85424805 23.21313477 C-31.56082006 24.12377927 -35.26091194 25.05803354 -38.9594698 26.00063801 C-41.82048777 26.72799186 -44.68390926 27.44546717 -47.54820824 28.1597805 C-48.91261623 28.50070576 -50.27644284 28.84396722 -51.63964272 29.18969154 C-65.45560625 32.67781047 -65.45560625 32.67781047 -72 32 C-75.44652326 29.55871269 -76.78056289 28.17033126 -77.5625 24 C-76.856505 20.23469334 -75.65955083 18.7434628 -73 16 C-70.01577759 14.74661255 -70.01577759 14.74661255 -66.49072266 13.85595703 C-65.84628708 13.68780991 -65.2018515 13.51966278 -64.53788757 13.34642029 C-62.41752046 12.798377 -60.29151884 12.27759283 -58.1640625 11.7578125 C-56.68166846 11.38271356 -55.19960663 11.00629947 -53.71786499 10.62863159 C-50.61550818 9.84219067 -47.51030979 9.06865255 -44.40234375 8.3046875 C-40.42696736 7.32688586 -36.45900538 6.32221977 -32.49268532 5.30838203 C-29.43398187 4.52885453 -26.37237594 3.76129574 -23.30970383 2.99752426 C-21.84576061 2.63142149 -20.38259231 2.262205 -18.92024612 1.88977432 C-16.87223018 1.37061171 -14.82096903 0.86711326 -12.76806641 0.36767578 C-11.60320709 0.07853302 -10.43834778 -0.21060974 -9.2381897 -0.5085144 C-5.80154698 -1.03012078 -3.3511233 -0.88799683 0 0 Z " fill="#337AFA" transform="translate(464,112)"/>
<path d="M0 0 C0.33 0 0.66 0 1 0 C1.04898438 1.22074219 1.09796875 2.44148438 1.1484375 3.69921875 C1.53001415 12.35475191 2.05480003 20.79955054 3.59765625 29.3359375 C3.9903712 31.93624424 4.07159157 34.3749758 4 37 C3.31035156 37.20753906 2.62070312 37.41507812 1.91015625 37.62890625 C-8.46681442 41.03095836 -15.25398782 45.71970381 -20.7109375 55.27734375 C-22.37043019 58.78239347 -23.6777715 62.3542062 -25 66 C-25.5576001 65.91435791 -26.1152002 65.82871582 -26.68969727 65.74047852 C-38.12272067 64.00115569 -49.44089727 62.51492163 -61 62 C-58.28285945 58.91278296 -54.8985884 56.95252703 -51.4375 54.8125 C-45.27692782 50.91865064 -39.537061 46.75368259 -34 42 C-33.09507812 41.22914063 -32.19015625 40.45828125 -31.2578125 39.6640625 C-18.97112384 28.87492038 -9.92745017 15.88703817 -1.3828125 2.0546875 C-0.92648437 1.37664062 -0.47015625 0.69859375 0 0 Z " fill="#357BF9" transform="translate(335,274)"/>
<path d="M0 0 C1.73558484 1.46257149 3.46185364 2.93392162 5.17578125 4.421875 C6.57858364 5.63543424 8.00354151 6.82341867 9.4375 8 C11.62266115 10.79700627 11.29250743 12.50262861 11 16 C7.26679512 25.26728677 0.43308635 32.4143936 -6.45800781 39.42724609 C-7.9442221 40.94310936 -9.40732 42.47833549 -10.8671875 44.01953125 C-18.07050523 51.47792397 -27.39093967 60.81520279 -38 63 C-42.32175718 61.90241088 -44.75580332 59.59557966 -47.8125 56.4375 C-48.60269531 55.63183594 -49.39289063 54.82617188 -50.20703125 53.99609375 C-52 52 -52 52 -52 51 C-50.783125 50.690625 -49.56625 50.38125 -48.3125 50.0625 C-38.66675579 46.83710919 -30.2495687 39.86087525 -23.48828125 32.43359375 C-22 31 -22 31 -20 31 C-19.76667969 30.443125 -19.53335938 29.88625 -19.29296875 29.3125 C-17.67444231 26.41773368 -15.62343529 24.37817536 -13.3125 22 C-7.56428178 15.79359047 -1.62976783 8.51100976 0 0 Z " fill="#A4BBDB" transform="translate(477,426)"/>
<path d="M0 0 C2.75054983 2.53340116 3.8907831 4.03597201 4.31420898 7.7734375 C3.92732323 11.74630632 2.64430056 14.01744633 0.59765625 17.4375 C0.24166855 18.03949219 -0.11431915 18.64148438 -0.48109436 19.26171875 C-1.6211255 21.18200612 -2.77911848 23.09073946 -3.9375 25 C-4.68148485 26.25062086 -5.42433306 27.50191864 -6.16601562 28.75390625 C-8.4094155 32.52414877 -10.69379316 36.26788746 -13 40 C-13.405672 40.65693848 -13.81134399 41.31387695 -14.22930908 41.99072266 C-15.43730086 43.93682923 -16.65581187 45.87585657 -17.87890625 47.8125 C-18.24789536 48.40546875 -18.61688446 48.9984375 -18.99705505 49.609375 C-20.82940061 52.47962848 -22.11611843 54.07741229 -25 56 C-29.40184998 56.57061018 -31.29837208 56.50756062 -34.9375 53.875 C-37.42562964 50.40669808 -37.44899078 49.1872174 -37 45 C-35.93179553 42.59060547 -34.84630597 40.49295639 -33.5 38.25 C-33.11634277 37.59040283 -32.73268555 36.93080566 -32.33740234 36.2512207 C-30.9111804 33.82197438 -29.45773854 31.41047168 -28 29 C-27.35708008 27.93249512 -26.71416016 26.86499023 -26.05175781 25.76513672 C-23.92077447 22.23235515 -21.77526768 18.70856939 -19.625 15.1875 C-19.27107178 14.60625366 -18.91714355 14.02500732 -18.55249023 13.42614746 C-17.53196601 11.75382512 -16.50438217 10.08581719 -15.4765625 8.41796875 C-14.87924316 7.44625732 -14.28192383 6.4745459 -13.66650391 5.47338867 C-9.91688329 -0.09171629 -6.77059229 -1.93445494 0 0 Z " fill="#337BFA" transform="translate(368,16)"/>
<path d="M0 0 C3.03978021 0.68164768 4.80055419 2.23591662 6.93359375 4.43359375 C8.48383839 7.53408303 8.2235139 10.01253593 7.93359375 13.43359375 C6.1379697 16.18688396 4.88104453 17.95986836 1.93359375 19.43359375 C-5.00904049 20.11647581 -5.00904049 20.11647581 -9.06640625 17.49609375 C-11.39838638 13.92524918 -11.8090819 11.78853356 -11.54296875 7.59375 C-10.17888267 1.4106385 -5.7420565 -0.35820012 0 0 Z " fill="#377DFA" transform="translate(204.06640625,255.56640625)"/>
</svg>
