<?xml version="1.0" encoding="UTF-8"?>
<svg version="1.1" xmlns="http://www.w3.org/2000/svg" width="512" height="512">
<path d="M0 0 C1.55074548 -0.00418168 3.10148789 -0.00966374 4.65222472 -0.01631981 C8.87901709 -0.03068397 13.10561298 -0.02655819 17.3324157 -0.019153 C21.9044697 -0.01440107 26.47648241 -0.02694904 31.04852295 -0.03717041 C39.99237634 -0.05432456 48.93615938 -0.05520541 57.88002495 -0.04995751 C65.1536124 -0.04590805 72.42717914 -0.04736856 79.70076561 -0.05270576 C80.7379205 -0.05345419 81.77507539 -0.05420261 82.84365922 -0.05497371 C84.95097958 -0.05650527 87.05829994 -0.05804361 89.16562029 -0.05958868 C108.90668508 -0.07330162 128.64771019 -0.06788464 148.38877406 -0.05640347 C166.42525336 -0.04647365 184.46163005 -0.05940958 202.49809352 -0.08333766 C221.04435653 -0.10775556 239.59057179 -0.11732983 258.13685054 -0.11068493 C268.53857863 -0.10719853 278.94022785 -0.10938643 289.34194374 -0.12693596 C298.1971529 -0.14169166 307.05222764 -0.14224952 315.90743426 -0.12486505 C320.41985971 -0.11638013 324.93204536 -0.11414371 329.44445801 -0.1295166 C333.58556238 -0.14344912 337.72622345 -0.13849193 341.86730274 -0.11927737 C343.35507469 -0.11554307 344.84288289 -0.11836398 346.33062229 -0.12888902 C359.59559516 -0.21596336 372.818912 1.77801813 384.64494324 8.13768005 C385.63506409 8.65310364 385.63506409 8.65310364 386.64518738 9.17893982 C392.41402865 12.27753089 397.44180376 15.95765033 402.26994324 20.38768005 C403.02533386 21.05154724 403.78072449 21.71541443 404.55900574 22.3993988 C418.21017719 35.0888898 427.13382714 53.44367603 428.54660499 72.026775 C428.65697694 76.06020502 428.67552612 80.08334596 428.65762329 84.11773682 C428.66180497 85.66848229 428.66728703 87.21922471 428.6739431 88.76996154 C428.68830726 92.99675391 428.68418148 97.2233498 428.67677629 101.45015252 C428.67202436 106.02220651 428.68457233 110.59421923 428.6947937 115.16625977 C428.71194785 124.11011316 428.7128287 133.0538962 428.7075808 141.99776176 C428.70353134 149.27134922 428.70499186 156.54491595 428.71032906 163.81850243 C428.71107748 164.85565732 428.7118259 165.89281221 428.712597 166.96139603 C428.71412856 169.0687164 428.71566691 171.17603675 428.71721197 173.28335711 C428.73092491 193.02442189 428.72550793 212.765447 428.71402676 232.50651088 C428.70409694 250.54299018 428.71703287 268.57936686 428.74096095 286.61583034 C428.76537885 305.16209334 428.77495312 323.7083086 428.76830822 342.25458735 C428.76482182 352.65631545 428.76700972 363.05796466 428.78455925 373.45968056 C428.79931495 382.31488972 428.79987281 391.16996446 428.78248834 400.02517108 C428.77400343 404.53759653 428.771767 409.04978218 428.78713989 413.56219482 C428.80107241 417.70329919 428.79611522 421.84396027 428.77690066 425.98503955 C428.77316636 427.4728115 428.77598728 428.9606197 428.78651231 430.44835911 C428.87329212 443.66846258 426.89277825 456.89751641 420.58244324 468.70018005 C420.24213074 469.3569574 419.90181824 470.01373474 419.55119324 470.69041443 C416.21166623 476.90193465 412.04940236 482.20922523 407.26994324 487.38768005 C406.65763855 488.09150818 406.04533386 488.7953363 405.41447449 489.52049255 C393.1862877 502.81766795 374.51551642 511.30466207 356.63084829 512.66434181 C352.59741827 512.77471376 348.57427733 512.79326294 344.53988647 512.77536011 C342.989141 512.77954178 341.43839859 512.78502384 339.88766176 512.79167992 C335.66086938 512.80604408 331.43427349 512.8019183 327.20747077 512.79451311 C322.63541678 512.78976118 318.06340406 512.80230915 313.49136353 512.81253052 C304.54751013 512.82968466 295.6037271 512.83056552 286.65986153 512.82531761 C279.38627407 512.82126816 272.11270734 512.82272867 264.83912086 512.82806587 C263.28338853 512.82918851 263.28338853 512.82918851 261.69622726 512.83033382 C259.58890689 512.83186537 257.48158654 512.83340372 255.37426618 512.83494879 C235.6332014 512.84866173 215.89217629 512.84324475 196.15111241 512.83176357 C178.11463311 512.82183376 160.07825643 512.83476968 142.04179295 512.85869776 C123.49552995 512.88311567 104.94931469 512.89268994 86.40303594 512.88604504 C76.00130784 512.88255863 65.59965863 512.88474654 55.19794273 512.90229607 C46.34273357 512.91705177 37.48765883 512.91760963 28.63245221 512.90022516 C24.12002676 512.89174024 19.60784111 512.88950382 15.09542847 512.90487671 C10.9543241 512.91880922 6.81366302 512.91385204 2.67258374 512.89463747 C1.18481179 512.89090318 -0.30299641 512.89372409 -1.79073582 512.90424912 C-15.01083929 512.99102894 -28.23989312 511.01051507 -40.04255676 504.70018005 C-40.69933411 504.35986755 -41.35611145 504.01955505 -42.03279114 503.66893005 C-48.24431136 500.32940305 -53.55160194 496.16713917 -58.73005676 491.38768005 C-59.43388489 490.77537537 -60.13771301 490.16307068 -60.86286926 489.5322113 C-74.16004466 477.30402451 -82.64703878 458.63325324 -84.00671852 440.7485851 C-84.11709047 436.71515509 -84.13563964 432.69201415 -84.11773682 428.65762329 C-84.12191849 427.10687781 -84.12740055 425.5561354 -84.13405663 424.00539857 C-84.14842079 419.7786062 -84.14429501 415.55201031 -84.13688982 411.32520759 C-84.13213789 406.75315359 -84.14468585 402.18114088 -84.15490723 397.60910034 C-84.17206137 388.66524695 -84.17294223 379.72146391 -84.16769432 370.77759834 C-84.16364487 363.50401089 -84.16510538 356.23044415 -84.17044258 348.95685768 C-84.171191 347.91970279 -84.17193943 346.8825479 -84.17271053 345.81396407 C-84.17424208 343.70664371 -84.17578043 341.59932335 -84.17732549 339.492003 C-84.19103844 319.75093821 -84.18562145 300.00991311 -84.17414028 280.26884923 C-84.16421047 262.23236993 -84.17714639 244.19599325 -84.20107447 226.15952977 C-84.22549237 207.61326676 -84.23506665 189.0670515 -84.22842175 170.52077276 C-84.22493534 160.11904466 -84.22712324 149.71739544 -84.24467278 139.31567955 C-84.25942848 130.46047039 -84.25998633 121.60539565 -84.24260186 112.75018903 C-84.23411695 108.23776358 -84.23188053 103.72557793 -84.24725342 99.21316528 C-84.26118593 95.07206091 -84.25622875 90.93139984 -84.23701418 86.79032055 C-84.23327989 85.3025486 -84.2361008 83.8147404 -84.24662583 82.327001 C-84.33370018 69.06202813 -82.33971869 55.83871129 -75.98005676 44.01268005 C-75.63644104 43.35259949 -75.29282532 42.69251892 -74.938797 42.01243591 C-71.84020593 36.24359465 -68.16008649 31.21581953 -63.73005676 26.38768005 C-63.06618958 25.63228943 -62.40232239 24.8768988 -61.71833801 24.09861755 C-45.44794422 6.59516249 -23.37040938 -0.10370746 0 0 Z " fill="#90D2F0" transform="translate(83.73005676269531,-0.3876800537109375)"/>
<path d="M0 0 C1.88089105 -0.0195581 1.88089105 -0.0195581 3.79977989 -0.03951132 C5.18865694 -0.02870136 6.57753036 -0.01741809 7.96640015 -0.00571251 C9.44384027 -0.01147346 10.92127323 -0.0194144 12.39869118 -0.02934873 C16.45969946 -0.05024947 20.52012136 -0.03989256 24.58113194 -0.02441764 C28.96022609 -0.01312113 33.33921824 -0.03055837 37.71829224 -0.04431725 C46.29731259 -0.06657241 54.87611447 -0.06173835 63.45514345 -0.04725404 C70.42630083 -0.03597075 77.3973969 -0.03442695 84.36856079 -0.03987312 C85.85574818 -0.04102237 85.85574818 -0.04102237 87.37297976 -0.04219484 C89.38698945 -0.04379343 91.40099913 -0.0454145 93.41500878 -0.04705779 C112.30877644 -0.06132197 131.20242288 -0.04491208 150.09617066 -0.01805596 C166.31453053 0.00428342 182.53271148 0.00040348 198.75106812 -0.02264977 C217.57634872 -0.04939596 236.40152304 -0.05994861 255.22681999 -0.04458845 C257.23349887 -0.04299567 259.24017777 -0.04142382 261.24685669 -0.03987312 C262.23422967 -0.03910175 263.22160264 -0.03833037 264.23889601 -0.03753562 C271.20320472 -0.03321507 278.16744611 -0.04051279 285.13174438 -0.05227089 C293.61676659 -0.06628132 302.10155746 -0.06252669 310.5865531 -0.03586717 C314.91735665 -0.02270928 319.24777427 -0.01760994 323.57857513 -0.03411293 C327.54128029 -0.04898508 331.50324089 -0.04087041 335.46587825 -0.01422517 C336.90119779 -0.00862846 338.33657993 -0.01150738 339.77185941 -0.02360411 C341.71966899 -0.03876438 343.6676542 -0.02025346 345.61541748 0 C347.23978257 0.00121764 347.23978257 0.00121764 348.89696312 0.00245988 C352.83326201 0.85002927 354.34182935 2.50702742 356.80770874 5.6292057 C357.43215322 7.73203564 357.43215322 7.73203564 357.43132782 9.85370827 C357.44313316 10.66872779 357.4549385 11.48374731 357.46710157 12.32346439 C357.45458373 13.20818959 357.44206588 14.09291479 357.4291687 15.00444984 C357.43555752 15.95257829 357.44194634 16.90070673 357.44852877 17.87756634 C357.46379821 21.05692669 357.4433039 24.23504484 357.42294312 27.41436195 C357.42644371 29.6926763 357.43210158 31.9709882 357.4397583 34.24929237 C357.4540246 40.43937911 357.43692624 46.62902262 357.41347313 52.819067 C357.39339066 59.29231808 357.39924233 65.76555028 357.40158081 72.23882484 C357.40152721 83.11024715 357.38187816 93.9814702 357.34970093 104.85283852 C357.31660982 116.03712764 357.30244268 127.22123579 357.3086853 138.40557289 C357.31617187 151.88485608 357.30880024 165.36401158 357.28703308 178.84328651 C357.27885129 183.99151153 357.27615097 189.13969665 357.27772522 194.28792763 C357.27860317 200.34870949 357.2644117 206.40927461 357.23849869 212.46999931 C357.23132713 214.69644686 357.229258 216.92291745 357.23261642 219.14937401 C357.23632181 222.18447288 357.22161597 225.21893594 357.20211792 228.25396156 C357.20744585 229.13868676 357.21277377 230.02341196 357.21826315 230.93494701 C357.16592911 235.64455933 356.90516925 238.83098549 353.80770874 242.6292057 C350.32927513 244.94816144 348.99848125 244.88110676 344.89274788 244.88647461 C343.6497694 244.8929235 342.40679093 244.89937239 341.12614644 244.90601671 C339.73924858 244.90307416 338.35235113 244.8999387 336.9654541 244.89663124 C335.49799708 244.90036567 334.03054206 244.90496636 332.56309021 244.91036189 C328.52053836 244.92263299 324.47806901 244.92232661 320.43550277 244.91997313 C316.07957788 244.919566 311.72367981 244.93059417 307.36776733 244.94008827 C298.82998117 244.95672167 290.29222261 244.96219887 281.75442161 244.96331303 C274.81660213 244.96426238 267.87879178 244.96836702 260.94097519 244.97471428 C241.2838632 244.99233295 221.62677308 245.00155215 201.96965314 245.00005333 C200.37911225 244.99993346 200.37911225 244.99993346 198.75643921 244.99981117 C197.69478841 244.99972941 196.6331376 244.99964765 195.53931557 244.99956341 C178.3289531 244.9987503 161.11867811 245.01789272 143.90834095 245.04608791 C126.24951179 245.07479026 108.59072533 245.08862967 90.93187225 245.08690035 C81.0126812 245.08623554 71.09358186 245.09176766 61.17441177 245.11325645 C52.7296439 245.13143344 44.28500929 245.13584434 35.84023036 245.12223761 C31.52972959 245.11569032 27.21948473 245.11565386 22.90900803 245.13294411 C18.96484071 245.14860261 15.02113378 245.14588588 11.07697819 245.12837584 C9.64831878 245.12528991 8.21962562 245.12899795 6.79100598 245.14009599 C4.85216739 245.1541629 2.91318887 245.14127039 0.97435188 245.12698364 C-0.64252614 245.12763575 -0.64252614 245.12763575 -2.29206836 245.12830102 C-5.92629845 244.50289143 -7.59381468 243.2029805 -10.19229126 240.6292057 C-11.5369777 236.59514639 -11.34383987 232.70165947 -11.34619141 228.4944706 C-11.35057366 227.548051 -11.35495591 226.60163141 -11.35947096 225.62653244 C-11.37287224 222.44138639 -11.37904076 219.25626801 -11.38516235 216.07110023 C-11.3930621 213.79308382 -11.40133097 211.51506866 -11.40994263 209.23705482 C-11.43617153 201.74538813 -11.45146844 194.25371581 -11.46572876 186.7620182 C-11.47108757 184.18569243 -11.47646508 181.6093667 -11.48186111 179.033041 C-11.50348869 168.32027863 -11.5223787 157.60751951 -11.53348351 146.89474106 C-11.5364132 144.11531126 -11.53937487 141.3358815 -11.54238892 138.5564518 C-11.54313497 137.86563723 -11.54388102 137.17482266 -11.54464968 136.46307431 C-11.55730961 125.26654146 -11.59054245 114.07016718 -11.63219075 102.8737085 C-11.67459385 91.38022472 -11.69776869 79.88684683 -11.70340407 68.39328277 C-11.70706427 61.93927874 -11.71915725 55.4855437 -11.75150681 49.0316143 C-11.78149144 42.96261751 -11.78793343 36.89405384 -11.77612305 30.82499886 C-11.77590153 28.59530082 -11.78427101 26.36558323 -11.80177689 24.1359539 C-11.82434901 21.09607853 -11.81622868 18.05778976 -11.80029297 15.0179081 C-11.81417506 14.13181866 -11.82805714 13.24572922 -11.8423599 12.33278859 C-11.83178796 11.51653567 -11.82121602 10.70028275 -11.81032372 9.85929489 C-11.81168024 9.15805878 -11.81303677 8.45682266 -11.81443441 7.73433697 C-10.05954832 1.79636983 -5.73234931 0.00429703 0 0 Z " fill="#FE748F" transform="translate(83.19229125976563,194.37079429626465)"/>
<path d="M0 0 C1.55074548 -0.00418168 3.10148789 -0.00966374 4.65222472 -0.01631981 C8.87901709 -0.03068397 13.10561298 -0.02655819 17.3324157 -0.019153 C21.9044697 -0.01440107 26.47648241 -0.02694904 31.04852295 -0.03717041 C39.99237634 -0.05432456 48.93615938 -0.05520541 57.88002495 -0.04995751 C65.1536124 -0.04590805 72.42717914 -0.04736856 79.70076561 -0.05270576 C80.7379205 -0.05345419 81.77507539 -0.05420261 82.84365922 -0.05497371 C84.95097958 -0.05650527 87.05829994 -0.05804361 89.16562029 -0.05958868 C108.90668508 -0.07330162 128.64771019 -0.06788464 148.38877406 -0.05640347 C166.42525336 -0.04647365 184.46163005 -0.05940958 202.49809352 -0.08333766 C221.04435653 -0.10775556 239.59057179 -0.11732983 258.13685054 -0.11068493 C268.53857863 -0.10719853 278.94022785 -0.10938643 289.34194374 -0.12693596 C298.1971529 -0.14169166 307.05222764 -0.14224952 315.90743426 -0.12486505 C320.41985971 -0.11638013 324.93204536 -0.11414371 329.44445801 -0.1295166 C333.58556238 -0.14344912 337.72622345 -0.13849193 341.86730274 -0.11927737 C343.35507469 -0.11554307 344.84288289 -0.11836398 346.33062229 -0.12888902 C359.59559516 -0.21596336 372.818912 1.77801813 384.64494324 8.13768005 C385.63506409 8.65310364 385.63506409 8.65310364 386.64518738 9.17893982 C392.41402865 12.27753089 397.44180376 15.95765033 402.26994324 20.38768005 C403.02533386 21.05154724 403.78072449 21.71541443 404.55900574 22.3993988 C418.09933281 34.98585404 424.16275245 50.58985331 428.26994324 68.38768005 C428.26994324 87.85768005 428.26994324 107.32768005 428.26994324 127.38768005 C259.30994324 127.38768005 90.34994324 127.38768005 -83.73005676 127.38768005 C-83.73005676 58.42409738 -83.73005676 58.42409738 -75.98005676 44.01268005 C-75.63644104 43.35259949 -75.29282532 42.69251892 -74.938797 42.01243591 C-71.84020593 36.24359465 -68.16008649 31.21581953 -63.73005676 26.38768005 C-63.06618958 25.63228943 -62.40232239 24.8768988 -61.71833801 24.09861755 C-45.44794422 6.59516249 -23.37040938 -0.10370746 0 0 Z " fill="#5C84D9" transform="translate(83.73005676269531,-0.3876800537109375)"/>
<path d="M0 0 C21.45 0 42.9 0 65 0 C63.47375 4.805625 61.9475 9.61125 60.375 14.5625 C50.98637912 44.49261632 43.65016082 74.80280026 40.4375 106.0625 C40.31181641 107.25166016 40.18613281 108.44082031 40.05664062 109.66601562 C39.69541554 113.10994694 39.33921511 116.55382494 39 120 C38.91487152 120.79249649 38.82974304 121.58499298 38.74203491 122.40150452 C37.99992754 129.73047038 37.82331833 136.9999107 37.796875 144.36328125 C37.78832489 146.26414742 37.78832489 146.26414742 37.77960205 148.20341492 C37.77019472 150.88361161 37.76327823 153.5636977 37.75976562 156.24389648 C37.75331753 160.23503121 37.71917275 164.22578316 37.6875 168.21679688 C37.61260315 186.35466715 38.77848765 204.00331921 41 222 C41.10477661 222.85371185 41.20955322 223.70742371 41.31750488 224.58700562 C41.8792645 229.05155108 42.5321478 233.49493717 43.25 237.9375 C43.35260132 238.57990631 43.45520264 239.22231262 43.56091309 239.88418579 C51.33358183 288.2048607 67.36647139 334.10803826 88.71533203 378.05322266 C91 382.79327305 91 382.79327305 91 385 C65.30678261 385.87805422 44.42222768 381.92576096 25 364 C24.29617187 363.38769531 23.59234375 362.77539062 22.8671875 362.14453125 C9.66420008 350.00296046 1.20394658 331.48020613 -0.27195394 313.72913301 C-0.3740767 310.28321073 -0.38596055 306.84948059 -0.36076355 303.40214539 C-0.36332682 302.09655176 -0.3658901 300.79095814 -0.36853105 299.44580108 C-0.37517323 295.8607709 -0.3633311 292.27601453 -0.34819686 288.69101918 C-0.3351491 284.81050324 -0.33963209 280.93000072 -0.34190369 277.04946899 C-0.34347094 270.33907651 -0.33411936 263.62877206 -0.31719017 256.91840172 C-0.29272997 247.21654328 -0.28498774 237.51472708 -0.2812262 227.81284115 C-0.27467269 212.06929515 -0.25474149 196.32579599 -0.22631836 180.58227539 C-0.19874923 165.29581943 -0.17752964 150.00937622 -0.16479492 134.72290039 C-0.16400675 133.7794382 -0.16321858 132.83597601 -0.16240653 131.86392405 C-0.1584912 127.13049179 -0.15470013 122.39705944 -0.15097082 117.66362703 C-0.11990919 78.44237641 -0.06462468 39.22121249 0 0 Z " fill="#59C2E7" transform="translate(0,127)"/>
<path d="M0 0 C1.4387314 0.00561301 2.87746864 0.00987501 4.31620789 0.01286316 C8.05626984 0.02417815 11.79596796 0.05352555 15.53588867 0.0869751 C19.37088096 0.11796845 23.20593351 0.13143023 27.04101562 0.14648438 C34.53141374 0.17841204 42.02151478 0.22944076 49.51171875 0.29296875 C48.42297412 2.0262502 47.33123561 3.75765125 46.23828125 5.48828125 C45.63064941 6.45266113 45.02301758 7.41704102 44.39697266 8.41064453 C42.65105749 11.07993674 40.81576575 13.62918141 38.88671875 16.16796875 C32.49234215 24.79911345 27.08933402 34.12335904 21.51171875 43.29296875 C20.62226562 43.13441406 19.7328125 42.97585937 18.81640625 42.8125 C11.82494227 41.71336914 5.6344557 41.35929097 -0.66796875 44.95703125 C-5.1730006 48.26329926 -9.20489325 52.77440034 -10.48828125 58.29296875 C-11.49975321 66.02449413 -9.84517737 71.84005234 -5.48828125 78.29296875 C-2.90383047 80.87056595 -2.90383047 80.87056595 -0.48828125 82.29296875 C-1.2398354 88.19803706 -4.13970691 93.34263435 -6.63476562 98.66992188 C-10.97786299 108.0936237 -14.6102014 117.59776913 -18.48828125 127.29296875 C-39.93828125 127.29296875 -61.38828125 127.29296875 -83.48828125 127.29296875 C-83.57078125 117.88796875 -83.65328125 108.48296875 -83.73828125 98.79296875 C-83.77469727 95.85841797 -83.81111328 92.92386719 -83.84863281 89.90039062 C-83.96828602 73.57715242 -83.64370791 58.6184078 -75.73828125 43.91796875 C-75.39466553 43.25788818 -75.0510498 42.59780762 -74.69702148 41.91772461 C-71.59843041 36.14888334 -67.91831098 31.12110822 -63.48828125 26.29296875 C-62.82441406 25.53757812 -62.16054688 24.7821875 -61.4765625 24.00390625 C-45.29718808 6.59836852 -23.28559694 -0.27167396 0 0 Z " fill="#4677D4" transform="translate(83.48828125,-0.29296875)"/>
<path d="M0 0 C6.51196356 5.23414429 10.44694578 11.79396235 13.0703125 19.6640625 C14.16103311 33.12548775 12.71321892 42.64996853 4.1953125 53.6015625 C-3.31078997 61.5731597 -13.106509 64.64361138 -23.8671875 65.1640625 C-33.81349693 64.85485081 -41.96235552 60.60561303 -49.02734375 53.7578125 C-56.2325367 45.82766174 -59.66987577 35.95508913 -59.27734375 25.203125 C-57.79912918 14.40717589 -52.13625894 5.75794905 -43.7890625 -1.01953125 C-30.17799477 -10.65593844 -13.31347323 -9.41684692 0 0 Z " fill="#E0DDDE" transform="translate(331.9296875,330.3359375)"/>
<path d="M0 0 C1.5459082 -0.00290039 1.5459082 -0.00290039 3.12304688 -0.00585938 C4.18974609 0.01798828 5.25644531 0.04183594 6.35546875 0.06640625 C7.41056641 0.05544922 8.46566406 0.04449219 9.55273438 0.03320312 C17.66769837 0.10904391 23.08208573 1.71861826 29.29296875 6.94140625 C34.81556578 13.53784159 36.28062815 17.80558427 35.9921875 26.46875 C35.11806083 32.61804112 32.00223188 36.50487346 27.48046875 40.56640625 C24.8656117 42.40236971 23.54227971 43.0161438 20.54296875 43.62890625 C20.95546875 44.09039062 21.36796875 44.551875 21.79296875 45.02734375 C23.72770634 47.21256076 25.63446336 49.42074767 27.54296875 51.62890625 C28.28417969 52.45777344 29.02539062 53.28664063 29.7890625 54.140625 C35.32362805 60.58281984 35.32362805 60.58281984 36.35546875 65.50390625 C35.54296875 68.62890625 35.54296875 68.62890625 33.48046875 71.12890625 C29.53848946 73.14183185 27.80044343 72.78679685 23.54296875 71.62890625 C20.97808755 69.6605683 18.94875848 67.33225175 16.85546875 64.87890625 C16.30052734 64.25757813 15.74558594 63.63625 15.17382812 62.99609375 C12.1855097 59.6275731 9.32240133 56.17251373 6.54296875 52.62890625 C6.49398438 53.593125 6.445 54.55734375 6.39453125 55.55078125 C6.31976563 56.8140625 6.245 58.07734375 6.16796875 59.37890625 C6.09835937 60.631875 6.02875 61.88484375 5.95703125 63.17578125 C5.58493273 66.27894246 5.28842235 68.08790577 3.54296875 70.62890625 C0.05172858 72.9563997 -1.34925376 73.13189941 -5.45703125 72.62890625 C-7.75978681 70.76180715 -9.13526996 69.27242884 -10.45703125 66.62890625 C-10.5737557 64.71561353 -10.62673832 62.79830175 -10.64990234 60.8815918 C-10.66596527 59.67661545 -10.6820282 58.4716391 -10.69857788 57.23014832 C-10.74292605 51.71699164 -10.78453213 46.20396643 -10.80712891 40.69067383 C-10.82046554 37.77954668 -10.84831159 34.86912098 -10.88916016 31.95825195 C-10.93850937 28.44157242 -10.96325238 24.92552884 -10.97035599 21.40851784 C-10.98031971 19.42036457 -11.01455836 17.43238083 -11.04916382 15.44450378 C-11.0281594 6.49428278 -11.0281594 6.49428278 -8.26538086 2.30810547 C-5.19933814 0.47482356 -3.54620062 -0.00276975 0 0 Z " fill="#E0DDDE" transform="translate(364.45703125,322.37109375)"/>
<path d="M0 0 C1.39085815 0.00108765 1.39085815 0.00108765 2.80981445 0.00219727 C3.83913086 0.00026367 4.86844727 -0.00166992 5.92895508 -0.00366211 C6.99952148 0.02018555 8.07008789 0.0440332 9.1730957 0.06860352 C10.22432617 0.05764648 11.27555664 0.04668945 12.35864258 0.03540039 C20.27757863 0.10931703 26.66281369 1.42098773 32.82543945 6.59594727 C37.58454241 12.47210128 39.93983631 16.61061308 39.7355957 24.29516602 C39.0165835 31.0134363 36.14148916 35.86435545 31.4855957 40.63110352 C27.1855957 43.63110352 27.1855957 43.63110352 24.4855957 43.63110352 C25.85950807 45.31948915 27.23478731 47.00676253 28.6105957 48.69360352 C29.42657227 49.69907227 30.24254883 50.70454102 31.08325195 51.74047852 C33.00837135 54.05688234 34.98828836 56.25042736 37.0480957 58.44360352 C39.03403517 60.76792932 39.48735136 61.63908377 40.1730957 64.75610352 C39.22740677 68.7108027 37.73506345 70.22932301 34.4855957 72.63110352 C30.95772029 73.08096682 29.18714562 73.12696341 26.24731445 71.04907227 C25.56282227 70.31301758 24.87833008 69.57696289 24.1730957 68.81860352 C23.41383789 68.0077832 22.65458008 67.19696289 21.87231445 66.36157227 C17.95493378 61.8799862 14.20340944 57.27837069 10.4855957 52.63110352 C9.9905957 52.13610352 9.9905957 52.13610352 9.4855957 51.63110352 C9.46432617 53.40227539 9.46432617 53.40227539 9.44262695 55.20922852 C9.39571941 56.76655894 9.34747205 58.32384941 9.2980957 59.88110352 C9.29229492 60.6584082 9.28649414 61.43571289 9.28051758 62.23657227 C9.12288375 66.33505185 9.01111517 68.05524017 6.16137695 71.17797852 C3.4855957 72.63110352 3.4855957 72.63110352 -0.1394043 72.63110352 C-3.93932106 71.50520225 -4.61201922 70.98427946 -6.5144043 67.63110352 C-6.90208435 64.82997131 -6.90208435 64.82997131 -6.91845703 61.56494141 C-6.9311412 60.34009537 -6.94382538 59.11524933 -6.95689392 57.85328674 C-6.95395828 56.53344284 -6.95102264 55.21359894 -6.94799805 53.85375977 C-6.95256109 52.48139691 -6.95786703 51.10903634 -6.96388245 49.73667908 C-6.97280962 46.8626069 -6.97039542 43.98881264 -6.96044922 41.11474609 C-6.9489632 37.43810176 -6.96916577 33.7624184 -6.99836636 30.08590031 C-7.01674548 27.25221194 -7.01643255 24.4187531 -7.01072884 21.58502007 C-7.01050159 19.5726041 -7.02738585 17.56020968 -7.04454041 15.54786682 C-7.03515945 14.31986862 -7.0257785 13.09187042 -7.01611328 11.82666016 C-7.01594711 10.74840469 -7.01578094 9.67014923 -7.01560974 8.55921936 C-6.27381607 4.22555173 -4.387408 1.10121853 0 0 Z " fill="#E0DEDF" transform="translate(167.514404296875,322.368896484375)"/>
<path d="M0 0 C1.56427734 -0.03577148 1.56427734 -0.03577148 3.16015625 -0.07226562 C10.52094512 -0.05848138 16.28248732 1.30171851 22.375 5.5625 C27.11212088 10.53731092 30.06096343 15.42213429 30.75 22.3125 C30.54813165 28.26761625 28.49779891 33.3180387 24.3984375 37.65234375 C21.85005779 39.91808498 19.43373229 42.03313386 16.375 43.5625 C17.63414261 48.17935622 20.22118208 50.52639908 23.5546875 53.734375 C26.89352002 57.08753728 29.88067188 60.4863219 31 65.1875 C30.04734354 68.80759454 28.31915896 70.32237905 25.375 72.5625 C22.375 73.125 22.375 73.125 19.375 72.5625 C15.5688488 69.87471466 12.76629323 66.82197776 9.875 63.1875 C9.1428125 62.27226562 8.410625 61.35703125 7.65625 60.4140625 C6.9034375 59.47304688 6.150625 58.53203125 5.375 57.5625 C3.71702891 55.55505461 2.04700495 53.55830872 0.375 51.5625 C0.35373047 53.20798828 0.35373047 53.20798828 0.33203125 54.88671875 C0.28511292 56.34118698 0.23686562 57.79561277 0.1875 59.25 C0.18169922 59.97123047 0.17589844 60.69246094 0.16992188 61.43554688 C0.00015746 65.56648086 -0.32826785 67.18716331 -2.984375 70.546875 C-5.625 72.5625 -5.625 72.5625 -8.6875 73.125 C-12.34266015 72.42507572 -13.34513384 71.46844496 -15.625 68.5625 C-16.13293457 65.67871094 -16.13293457 65.67871094 -16.14257812 62.296875 C-16.15518677 61.02875977 -16.16779541 59.76064453 -16.18078613 58.45410156 C-16.1736263 57.07356205 -16.16542231 55.69302761 -16.15625 54.3125 C-16.15894562 52.89290094 -16.16282863 51.47330369 -16.16784668 50.05371094 C-16.17373858 47.08120106 -16.16518954 44.10917259 -16.14648438 41.13671875 C-16.123694 37.32991213 -16.13681888 33.52423351 -16.16077423 29.71746826 C-16.17524114 26.78686044 -16.17062235 23.85651926 -16.16026306 20.92590332 C-16.15759819 19.52250026 -16.16085717 18.11907285 -16.17018127 16.71569824 C-16.18035941 14.75317865 -16.1620904 12.79057398 -16.14257812 10.828125 C-16.13939575 9.71211914 -16.13621338 8.59611328 -16.13293457 7.44628906 C-14.60883859 -1.20673749 -7.00117173 -0.07195884 0 0 Z " fill="#E0DEDF" transform="translate(234.625,322.4375)"/>
<path d="M0 0 C1.22460938 -0.00193359 2.44921875 -0.00386719 3.7109375 -0.00585938 C5.61746094 0.02991211 5.61746094 0.02991211 7.5625 0.06640625 C8.83351562 0.05544922 10.10453125 0.04449219 11.4140625 0.03320312 C22.09094059 0.11749427 22.09094059 0.11749427 26.5625 4.62890625 C27.625 8.12890625 27.625 8.12890625 27.5625 11.62890625 C25.72113826 14.04172508 24.25948174 15.28041538 21.5625 16.62890625 C20.18701844 16.71199263 18.80764204 16.73626641 17.4296875 16.7265625 C16.62402344 16.72333984 15.81835938 16.72011719 14.98828125 16.71679688 C14.14652344 16.70841797 13.30476563 16.70003906 12.4375 16.69140625 C11.58800781 16.68689453 10.73851562 16.68238281 9.86328125 16.67773438 C7.76299091 16.66593499 5.6627367 16.64799931 3.5625 16.62890625 C3.5625 20.58890625 3.5625 24.54890625 3.5625 28.62890625 C4.64789063 28.57089844 5.73328125 28.51289063 6.8515625 28.453125 C8.29683176 28.40620067 9.74214784 28.36070338 11.1875 28.31640625 C11.90035156 28.27451172 12.61320312 28.23261719 13.34765625 28.18945312 C17.36081084 28.0974083 19.84229649 28.42304753 23.04296875 30.9609375 C25.5625 33.62890625 25.5625 33.62890625 26.25 36.62890625 C25.31222562 40.72101263 23.87253328 42.06255577 20.5625 44.62890625 C17.5952232 45.22257854 14.76073161 45.10544443 11.75 44.94140625 C10.96173828 44.91884766 10.17347656 44.89628906 9.36132812 44.87304688 C7.42756071 44.81444786 5.49477833 44.72477452 3.5625 44.62890625 C3.5625 48.91890625 3.5625 53.20890625 3.5625 57.62890625 C4.95984375 57.57089844 6.3571875 57.51289063 7.796875 57.453125 C9.63538327 57.40622428 11.47392766 57.36072445 13.3125 57.31640625 C14.23289063 57.27451172 15.15328125 57.23261719 16.1015625 57.18945312 C22.93856679 57.06559435 22.93856679 57.06559435 26.17578125 59.98828125 C27.72134438 62.93138174 28.14831462 64.36508191 27.5625 67.62890625 C25.76078537 70.71755991 25.0182601 71.47698622 21.5625 72.62890625 C17.4325764 72.87761417 13.30263364 72.89957012 9.16577148 72.92407227 C7.80694178 72.93561395 6.44815819 72.95610079 5.08959961 72.9855957 C3.12386325 73.02826174 1.15756359 73.0418368 -0.80859375 73.0546875 C-1.98349365 73.06927002 -3.15839355 73.08385254 -4.36889648 73.09887695 C-8.16723244 72.51714438 -9.09541386 71.62462942 -11.4375 68.62890625 C-11.9521637 65.78981018 -11.9521637 65.78981018 -11.97094727 62.47094727 C-11.9867836 61.22608047 -12.00261993 59.98121368 -12.01893616 58.69862366 C-12.0150944 57.34334946 -12.0100552 55.9880782 -12.00390625 54.6328125 C-12.00914316 53.2380278 -12.01541989 51.84324665 -12.02268982 50.44847107 C-12.03309077 47.52724528 -12.02853826 44.60650668 -12.01391602 41.68530273 C-11.9967366 37.94791653 -12.02021149 34.21206895 -12.05540562 30.47485447 C-12.07740455 27.59480162 -12.07593225 24.71511547 -12.0676403 21.83500481 C-12.06682195 20.45753226 -12.07366335 19.08003247 -12.08841133 17.70263863 C-12.10589569 15.77391362 -12.08797237 13.84496677 -12.06860352 11.91625977 C-12.06764175 10.82023941 -12.06667999 9.72421906 -12.06568909 8.59498596 C-10.67184441 2.01375985 -6.26025119 -0.00407097 0 0 Z " fill="#E0DEDE" transform="translate(123.4375,322.37109375)"/>
<path d="M0 0 C6.31566003 3.53399785 9.90786787 7.89077593 12.17578125 14.8125 C13.88386185 21.69697755 12.62409826 26.4089935 9.3203125 32.53515625 C6.13169897 37.10448521 1.94654035 40.12198655 -3.3125 41.875 C-11.44774485 42.70107242 -17.94837922 42.78965925 -24.54296875 37.58984375 C-26.98092392 35.22723377 -28.71891804 32.87093408 -30.3125 29.875 C-30.725 29.111875 -31.1375 28.34875 -31.5625 27.5625 C-33.59975285 20.26234397 -32.4290351 14.69764828 -28.80078125 8.10546875 C-22.08076979 -1.96572953 -10.83993654 -5.00801837 0 0 Z " fill="#FCFDFE" transform="translate(266.3125,43.125)"/>
<path d="M0 0 C4.19893204 3.02814548 6.97294479 7.04354584 9.26953125 11.63671875 C10.08165681 19.95329571 10.41121917 27.09582327 4.9921875 33.8984375 C-0.18177348 39.11932783 -5.08573242 40.80562346 -12.41796875 41.01171875 C-18.90127845 40.9648837 -22.94189393 40.03735839 -27.73046875 35.63671875 C-32.50581049 30.73231372 -34.86665847 25.47350506 -35.16796875 18.69921875 C-34.93329911 12.50394038 -33.11685982 8.16260659 -28.859375 3.65625 C-19.9810739 -4.48359127 -10.76529537 -5.91667415 0 0 Z " fill="#FC7490" transform="translate(106.73046875,44.36328125)"/>
<path d="M0 0 C5.51220912 3.0546465 9.3089375 6.9492769 11.6875 12.875 C12.4210667 19.80123442 12.7803524 27.05357933 9.09765625 33.19140625 C4.99626451 38.0880817 0.06490879 41.53204975 -6.3515625 42.18359375 C-13.66209391 42.44639063 -18.69235242 42.20303845 -24.54296875 37.58984375 C-26.98092392 35.22723377 -28.71891804 32.87093408 -30.3125 29.875 C-30.725 29.1325 -31.1375 28.39 -31.5625 27.625 C-33.25706772 21.41158501 -33.18574932 15.83726315 -30.1875 10.0625 C-23.3306264 -0.88918262 -11.99931156 -5.54364617 0 0 Z " fill="#8FD1F0" transform="translate(185.3125,43.125)"/>
<path d="M0 0 C4.23081192 2.03078972 7.67343167 2.31097507 12.1796875 0.8203125 C12.90414062 0.54960937 13.62859375 0.27890625 14.375 0 C20.67485411 -2.2576269 27.6875327 -2.91338146 33.875 0 C37.68030223 1.75629334 39.97350164 1.9448034 44.125 1.5 C45.135625 1.005 46.14625 0.51 47.1875 0 C52.7684118 -2.62631143 59.13467402 -2.26428297 65.125 -1.5 C68.62870861 -0.0582084 71.44996257 1.82496257 74.125 4.5 C74.485388 8.32011276 74.66548663 10.65684085 72.5625 13.9375 C69.27129634 16.04724594 66.96114957 15.85519903 63.125 15.5 C62.465 15.17 61.805 14.84 61.125 14.5 C57.49172764 14.16202118 55.46901443 14.32433306 52.1875 16 C46.40363882 18.72334271 39.33422881 18.18321612 33.125 17.5 C29.84375 16 29.84375 16 27.125 14.5 C23.39595413 14.02395159 21.55366205 14.28110874 18.1875 16 C12.40363882 18.72334271 5.33422881 18.18321612 -0.875 17.5 C-2.90468938 16.56172443 -4.91153781 15.56996085 -6.875 14.5 C-11.03394384 14.17105335 -11.03394384 14.17105335 -14.875 15.5 C-18.71114957 15.85519903 -21.02129634 16.04724594 -24.3125 13.9375 C-26.52274651 10.48951544 -26.58001923 8.51860959 -25.875 4.5 C-20.01315146 -2.684899 -8.17272345 -3.95574742 0 0 Z " fill="#443E4F" transform="translate(231.875,271.5)"/>
<path d="M0 0 C6.14743563 2.25843291 10.10760749 6.59369348 13.25 12.25 C15.08854267 18.99132312 14.35446054 24.74211699 11.26953125 30.98828125 C8.30643211 35.68365373 4.22933946 38.25179747 -1 40 C-8.39337054 40.86625322 -14.05283424 40.61208773 -20 36 C-24.77206254 31.22793746 -27.2881353 27.03291472 -27.4375 20.25 C-27.31143798 13.35020526 -25.28679904 9.21447339 -20.40234375 4.4375 C-14.07976901 -1.03067275 -8.13275757 -0.79365726 0 0 Z " fill="#FE758F" transform="translate(316,339)"/>
<path d="M0 0 C2.93952734 2.07465765 5.4820343 4.43625311 8 7 C10.88569129 5.70265139 12.12013073 4.85984748 14.25 2.375 C17.05129416 -0.0442995 17.59383225 -0.4016156 21.0625 -0.5625 C25 0 25 0 27.5 1.625 C29.45043483 4.71318847 29.39341361 6.38774772 29 10 C27.25 12.5546875 27.25 12.5546875 25 14.875 C24.2575 15.65617188 23.515 16.43734375 22.75 17.2421875 C21.88375 18.11230469 21.88375 18.11230469 21 19 C21.40992188 19.47050781 21.81984375 19.94101563 22.2421875 20.42578125 C22.78101563 21.04839844 23.31984375 21.67101562 23.875 22.3125 C24.40867187 22.92738281 24.94234375 23.54226563 25.4921875 24.17578125 C29.02919581 28.45501151 29.02919581 28.45501151 28.8125 32.5 C28 36 28 36 26.9375 37.9375 C23.64646261 39.74226244 20.55242632 39.94644935 17 39 C14.29671239 36.95729019 12.13818429 34.61927576 10 32 C7.14598288 33.30783654 5.55403229 34.41623653 3.1875 36.625 C0 39 0 39 -3.625 39.5625 C-7 39 -7 39 -9.4375 37.4375 C-11.72236855 33.87310506 -11.83465945 32.17329726 -11 28 C-8.59747652 25.01773716 -5.90055239 22.49266221 -3 20 C-3.40992188 19.52949219 -3.81984375 19.05898437 -4.2421875 18.57421875 C-4.78101563 17.95160156 -5.31984375 17.32898438 -5.875 16.6875 C-6.40867187 16.07261719 -6.94234375 15.45773438 -7.4921875 14.82421875 C-9.66230818 12.19871005 -10.9377062 10.48796812 -11.375 7.0625 C-11 4 -11 4 -9.4375 1.625 C-5.91751657 -0.72165562 -4.16889057 -0.7642966 0 0 Z " fill="#453E50" transform="translate(329,234)"/>
<path d="M0 0 C4.0495317 1.1645221 6.5149476 4.43208034 9.10546875 7.60546875 C11.95948587 6.29763221 13.55143646 5.18923222 15.91796875 2.98046875 C19.10546875 0.60546875 19.10546875 0.60546875 22.73046875 0.04296875 C26.10546875 0.60546875 26.10546875 0.60546875 28.54296875 2.23046875 C30.10546875 4.60546875 30.10546875 4.60546875 30.79296875 7.35546875 C29.88192587 11.66221689 27.69030536 13.70167478 24.63671875 16.7734375 C22.78481368 18.59116125 22.78481368 18.59116125 23.10546875 21.60546875 C24.6571396 23.25531522 24.6571396 23.25531522 26.60546875 24.85546875 C29.42980506 27.56522752 30.04530116 28.28275166 30.79296875 32.29296875 C30.10546875 35.60546875 30.10546875 35.60546875 28.54296875 38.04296875 C25.0109734 40.30706833 23.24405441 40.36420945 19.10546875 39.60546875 C16.16594141 37.5308111 13.62343445 35.16921564 11.10546875 32.60546875 C8.25145163 33.91330529 6.65950104 35.02170528 4.29296875 37.23046875 C1.10546875 39.60546875 1.10546875 39.60546875 -2.51953125 40.23046875 C-5.89453125 39.60546875 -5.89453125 39.60546875 -8.39453125 37.54296875 C-9.89453125 34.60546875 -9.89453125 34.60546875 -10.08203125 31.23046875 C-8.49651812 26.39048131 -5.6941975 23.86941182 -1.89453125 20.60546875 C-2.30445313 20.13496094 -2.714375 19.66445312 -3.13671875 19.1796875 C-3.67554688 18.55707031 -4.214375 17.93445313 -4.76953125 17.29296875 C-5.30320313 16.67808594 -5.836875 16.06320313 -6.38671875 15.4296875 C-8.55683943 12.8041788 -9.83223745 11.09343687 -10.26953125 7.66796875 C-9.89453125 4.60546875 -9.89453125 4.60546875 -8.39453125 2.23046875 C-5.57852172 0.40006256 -3.36748622 -0.13267769 0 0 Z " fill="#453E50" transform="translate(163.89453125,233.39453125)"/>
<path d="M0 0 C9.03614458 -0.48192771 9.03614458 -0.48192771 13.125 1.5625 C15 4 15 4 15.5625 7.5625 C15 11 15 11 13.32421875 12.703125 C9.11229082 15.05331 4.7232672 14.16868811 0 14 C0 9.38 0 4.76 0 0 Z " fill="#FD7A93" transform="translate(176,338)"/>
<path d="M0 0 C9.06976744 -0.48372093 9.06976744 -0.48372093 13.125 1.625 C15 4 15 4 15.5625 7 C15 10 15 10 13.6875 12.375 C9.29090442 15.03340663 5.0628521 14.2410882 0 14 C0 9.38 0 4.76 0 0 Z " fill="#FD7892" transform="translate(234,338)"/>
<path d="M0 0 C7.9898675 -0.35775526 7.9898675 -0.35775526 12 1.0625 C14 3 14 3 15.0625 6.4375 C15 10 15 10 13.75 12.4375 C9.28380145 14.97511281 5.07286678 14.24156508 0 14 C0 9.38 0 4.76 0 0 Z " fill="#FD7791" transform="translate(370,338)"/>
</svg>
