<?xml version="1.0" encoding="UTF-8"?>
<svg version="1.1" xmlns="http://www.w3.org/2000/svg" width="129" height="129">
<path d="M0 0 C0.67906906 -0.00511093 1.35813812 -0.01022186 2.05778503 -0.01548767 C4.2816167 -0.02928029 6.5051348 -0.02843467 8.72900391 -0.02612305 C10.28927727 -0.0300159 11.84954959 -0.03435178 13.40982056 -0.03910828 C16.67282554 -0.04654847 19.93572228 -0.04629543 23.19873047 -0.04101562 C27.3600994 -0.03522649 31.52102244 -0.05214901 35.68231773 -0.0753603 C38.90301054 -0.09016263 42.12359759 -0.0909605 45.34431839 -0.08785057 C46.87756864 -0.08836061 48.4108253 -0.09353808 49.94404221 -0.10366249 C59.27920715 -0.15774405 67.53619795 -0.13726813 75.64306641 5.0871582 C82.1446535 11.58874529 84.06522071 18.4807283 84.12109375 27.52001953 C84.12781097 28.20723587 84.1345282 28.89445221 84.14144897 29.60249329 C84.16030554 31.85396741 84.16434689 34.10514148 84.16650391 36.35668945 C84.17294061 37.93698748 84.17966961 39.51728435 84.18667603 41.09757996 C84.1986181 44.40346028 84.20236005 47.70923636 84.20117188 51.01513672 C84.20096891 55.22807878 84.22826161 59.44034463 84.26271629 63.65312672 C84.28507645 66.91589867 84.28900664 70.17851025 84.28795242 73.44135094 C84.29029505 74.99332698 84.29904219 76.54530836 84.31461716 78.09720802 C84.48617919 96.95735847 84.48617919 96.95735847 78.16830444 104.173172 C69.81656949 112.26846517 59.49373032 111.7222988 48.61572266 111.6730957 C47.03445807 111.67512021 45.4531944 111.67803478 43.87193298 111.68179321 C40.56776995 111.68620014 37.26385128 111.67983935 33.9597168 111.66577148 C29.74566429 111.64869449 25.53218575 111.65852148 21.31815434 111.67648888 C18.05541237 111.68738311 14.79280413 111.68385443 11.53005791 111.6761055 C9.97727832 111.67411831 8.4244862 111.67651013 6.87172127 111.68354416 C-2.50615876 111.71670709 -10.83896819 111.70984702 -18.98193359 106.4621582 C-25.45789666 99.98619514 -27.41002766 93.11490872 -27.4440918 84.10522461 C-27.44920273 83.42615555 -27.45431366 82.74708649 -27.45957947 82.04743958 C-27.47337208 79.82360791 -27.47252647 77.60008981 -27.47021484 75.3762207 C-27.4741077 73.81594734 -27.47844357 72.25567502 -27.48320007 70.69540405 C-27.49064027 67.43239907 -27.49038722 64.16950233 -27.48510742 60.90649414 C-27.47931829 56.74512521 -27.4962408 52.58420217 -27.5194521 48.42290688 C-27.53425443 45.20221407 -27.5350523 41.98162702 -27.53194237 38.76090622 C-27.5324524 37.22765597 -27.53762988 35.69439931 -27.54775429 34.1611824 C-27.60183585 24.82601745 -27.58135993 16.56902666 -22.35693359 8.4621582 C-15.88097053 1.98619514 -9.00968411 0.03406413 0 0 Z M-17.41162109 8.10668945 C-18.21986328 9.08702148 -18.21986328 9.08702148 -19.04443359 10.0871582 C-19.87587891 11.05588867 -19.87587891 11.05588867 -20.72412109 12.04418945 C-23.881589 16.91693046 -24.42258865 21.63458884 -24.4440918 27.34643555 C-24.44920273 28.02696487 -24.45431366 28.7074942 -24.45957947 29.40864563 C-24.47339988 31.64272021 -24.47252431 33.87648363 -24.47021484 36.1105957 C-24.47410624 37.67469394 -24.47844182 39.23879112 -24.48320007 40.80288696 C-24.49064628 44.07606435 -24.49038288 47.34913385 -24.48510742 50.62231445 C-24.47931818 54.80062502 -24.49623812 58.97849153 -24.5194521 63.15672874 C-24.53424113 66.38596139 -24.53505408 69.61508839 -24.53194237 72.84434891 C-24.53245309 74.38400781 -24.53764378 75.92367301 -24.54775429 77.4632988 C-24.80412616 90.23045263 -24.80412616 90.23045263 -19.44287109 101.5168457 C-15.64359031 104.78453987 -11.70063042 108.06432218 -6.65380859 108.8996582 C-0.98746445 107.47416282 2.87319584 101.38654237 6.41992188 97.00366211 C8.3291371 94.66356827 10.35478138 92.44005114 12.39306641 90.2121582 C13.10591797 89.41680664 13.81876953 88.62145508 14.55322266 87.80200195 C17.1286652 84.94383501 19.7275421 82.10766499 22.33056641 79.2746582 C31.22090677 69.72696142 31.22090677 69.72696142 39.64306641 59.7746582 C43.00233909 55.93548942 44.60860471 55.39291256 49.70556641 54.8996582 C53.99997016 54.70840945 56.48264913 56.73925961 59.83056641 59.2746582 C61.65822475 61.0943122 63.42790766 62.97359845 65.14306641 64.8996582 C65.61019043 65.41947266 66.07731445 65.93928711 66.55859375 66.47485352 C67.989243 68.06899168 69.41080273 69.67082367 70.83056641 71.2746582 C72.53622097 73.19374893 74.24522574 75.10973134 75.95556641 77.0246582 C76.68001953 77.84450195 77.40447266 78.6643457 78.15087891 79.5090332 C78.70517578 80.09168945 79.25947266 80.6743457 79.83056641 81.2746582 C80.16056641 81.2746582 80.49056641 81.2746582 80.83056641 81.2746582 C80.90031479 73.45946489 80.95350304 65.64434557 80.98600292 57.82891846 C81.0016074 54.19922836 81.02274898 50.56975242 81.05688477 46.94018555 C81.0896662 43.43236204 81.1074586 39.92474353 81.11519814 36.41677856 C81.12337559 34.43826531 81.14676464 32.45983362 81.17045593 30.48144531 C81.17187971 22.81151298 81.05094337 16.21601508 75.99853516 10.0324707 C75.34498047 9.49364258 74.69142578 8.95481445 74.01806641 8.3996582 C73.37224609 7.84536133 72.72642578 7.29106445 72.06103516 6.7199707 C67.18829415 3.5625028 62.47063577 3.02150315 56.75878906 3 C55.73799507 2.9923336 55.73799507 2.9923336 54.69657898 2.98451233 C52.4625044 2.97069192 50.22874098 2.97156749 47.99462891 2.97387695 C46.43053067 2.96998556 44.86643348 2.96564998 43.30233765 2.96089172 C40.02916026 2.95344552 36.75609076 2.95370892 33.48291016 2.95898438 C29.30459959 2.96477362 25.12673308 2.94785368 20.94849586 2.9246397 C17.71926322 2.90985067 14.49013622 2.90903772 11.2608757 2.91214943 C9.7212168 2.9116387 8.1815516 2.90644802 6.64192581 2.89633751 C-6.18415037 2.58688033 -6.18415037 2.58688033 -17.41162109 8.10668945 Z M31.26806641 72.2121582 C30.64738281 72.87666992 30.02669922 73.54118164 29.38720703 74.22583008 C25.68380782 78.20727386 22.07909117 82.26307583 18.51147461 86.36621094 C15.48928421 89.7975054 12.34232989 93.11369278 9.19384766 96.42895508 C8.70013672 96.95682617 8.20642578 97.48469727 7.69775391 98.02856445 C7.0497583 98.71414429 7.0497583 98.71414429 6.38867188 99.41357422 C4.02434688 102.23764965 1.9430704 105.25971239 -0.16943359 108.2746582 C8.03693161 108.3443868 16.24317155 108.3975848 24.44976044 108.43009472 C28.26104755 108.44570346 32.0721309 108.46685311 35.88330078 108.50097656 C39.56618737 108.53374241 43.24887884 108.5515472 46.93190002 108.55928993 C48.33202686 108.56480273 49.73214387 108.57556746 51.13218689 108.59184837 C63.39728217 108.85292554 63.39728217 108.85292554 74.07275391 103.44262695 C77.92114162 98.77484568 80.40774328 95.03104333 81.10009766 88.88012695 C80.74057964 85.40478609 79.49245128 84.27207091 77.08056641 81.7746582 C75.85660156 80.48301758 75.85660156 80.48301758 74.60791016 79.1652832 C74.1617334 78.7031543 73.71555664 78.24102539 73.25585938 77.76489258 C71.73862314 76.17852568 70.25289495 74.56683093 68.77197266 72.9465332 C65.80893036 69.70576316 62.84399135 66.46874773 59.83056641 63.2746582 C59.04891113 62.43511597 59.04891113 62.43511597 58.25146484 61.57861328 C54.92554683 58.10111696 54.92554683 58.10111696 50.45556641 56.4621582 C42.51552635 58.24182235 36.6302985 66.40167264 31.26806641 72.2121582 Z " fill="#FFFFFF" transform="translate(36.16943359375,8.725341796875)"/>
<path d="M0 0 C3.71135642 1.33723247 6.36737376 3.21976097 8.875 6.3125 C10.91014521 11.17423577 11.52102599 15.15589783 9.875 20.1875 C8.25629607 23.92352649 6.61815129 25.95495796 3 28 C-1.65873296 29.76016038 -4.90284974 30.31085924 -9.75 28.9375 C-14.13609371 26.32271337 -17.35672087 23.9298374 -19 19 C-19.53856933 14.36477214 -19.45178019 10.92093654 -17.375 6.6875 C-12.22152109 0.85593176 -7.67068744 -1.32069227 0 0 Z M-14 7 C-16.6893186 11.0339779 -16.7926321 14.26038359 -16 19 C-14.27832795 22.37220063 -11.86661396 24.4754705 -8.625 26.4375 C-5.02593587 27.20872803 -2.55901156 26.95330667 1 26 C4.09403894 23.45601243 6.85213031 20.90275693 8 17 C7.88697266 10.89652383 6.10379879 8.20389144 2 4 C-3.96107146 1.01946427 -9.21900906 3.01584089 -14 7 Z " fill="#FFFFFF" transform="translate(50,31)"/>
</svg>
