<svg width="400" height="478" viewBox="0 0 400 478" fill="none" xmlns="http://www.w3.org/2000/svg">
<circle cx="200" cy="278" r="200" fill="#FB5924"/>
<path d="M247.8 185C243.533 181.533 236.6 178.6 227 176.2C217.667 173.8 210.6 172.6 205.8 172.6C201 172.6 198.2 172.6 197.4 172.6C183 172.867 172.6 176.6 166.2 183.8C159.8 190.733 156.6 198.6 156.6 207.4C156.6 216.2 159.4 223.667 165 229.8C170.6 235.667 177.533 240.333 185.8 243.8C194.333 247 203.4 250.733 213 255C222.867 259.267 231.933 263.667 240.2 268.2C248.733 272.467 255.8 278.867 261.4 287.4C267 295.667 269.8 306.067 269.8 318.6C269.8 331.133 265.4 341.8 256.6 350.6C247.8 359.4 237.933 365.267 227 368.2C216.333 371.133 204.733 372.6 192.2 372.6C165 372.6 144.6 366.6 131 354.6L133.4 352.2C138.733 357.267 146.6 361.4 157 364.6C167.667 367.8 177.933 369.4 187.8 369.4C203.533 369.4 216.467 365.133 226.6 356.6C237 347.8 242.2 337 242.2 324.2C242.2 311.133 238.333 300.733 230.6 293C222.867 285 213.4 278.867 202.2 274.6C191.267 270.067 180.2 265.667 169 261.4C157.8 256.867 148.333 250.733 140.6 243C132.867 235 129 225.8 129 215.4C129 205 131.4 196.6 136.2 190.2C141 183.533 147.4 178.867 155.4 176.2C169 171.667 182.6 169.4 196.2 169.4C219.133 169.4 237 173.667 249.8 182.2L247.8 185Z" fill="white"/>
</svg>
