<svg id="svg" version="1.1" xmlns="http://www.w3.org/2000/svg" xmlns:xlink="http://www.w3.org/1999/xlink" width="400" height="400" viewBox="0, 0, 400,400"><g id="svgg"><path id="path0" d="M241.200 6.400 C 241.200 6.620,240.660 6.800,240.000 6.800 C 239.340 6.800,238.800 6.980,238.800 7.200 C 238.800 7.420,238.440 7.600,238.000 7.600 C 237.560 7.600,237.200 7.780,237.200 8.000 C 237.200 8.220,236.936 8.400,236.614 8.400 C 235.801 8.400,233.200 9.676,233.200 10.074 C 233.200 10.253,232.964 10.400,232.675 10.400 C 232.387 10.400,231.764 10.760,231.292 11.200 C 230.820 11.640,230.291 12.003,230.117 12.007 C 229.697 12.017,227.358 13.876,225.723 15.500 C 225.003 16.215,224.219 16.800,223.981 16.800 C 223.743 16.800,222.705 17.660,221.674 18.711 C 220.643 19.762,219.170 21.055,218.400 21.584 C 216.847 22.650,200.195 39.311,195.800 44.196 C 194.260 45.907,192.814 47.509,192.587 47.754 C 192.360 47.999,191.734 48.830,191.197 49.600 C 190.659 50.370,189.180 52.025,187.910 53.278 C 186.639 54.531,185.600 55.721,185.600 55.924 C 185.600 56.127,184.655 57.293,183.500 58.516 C 180.181 62.031,177.488 65.099,177.077 65.834 C 176.648 66.601,175.429 68.078,174.100 69.441 C 173.605 69.948,173.200 70.557,173.200 70.792 C 173.200 71.028,172.435 72.011,171.500 72.976 C 169.098 75.455,167.936 76.801,166.814 78.404 C 166.277 79.172,165.551 80.070,165.200 80.400 C 164.849 80.730,164.123 81.630,163.585 82.400 C 163.048 83.170,162.112 84.322,161.504 84.959 C 160.897 85.597,160.400 86.271,160.400 86.456 C 160.400 86.766,159.320 88.160,158.100 89.425 C 157.825 89.710,157.600 90.142,157.600 90.385 C 157.600 90.628,157.015 91.436,156.300 92.180 C 153.920 94.658,152.800 96.010,152.800 96.407 C 152.800 96.623,152.620 96.800,152.400 96.800 C 152.180 96.800,152.000 96.982,152.000 97.204 C 152.000 97.426,151.460 98.172,150.800 98.863 C 150.140 99.554,149.600 100.290,149.600 100.499 C 149.600 100.708,149.060 101.383,148.400 102.000 C 147.740 102.617,147.200 103.284,147.200 103.482 C 147.200 103.681,146.570 104.531,145.800 105.372 C 145.030 106.213,144.400 107.030,144.400 107.188 C 144.400 107.346,143.950 107.999,143.400 108.638 C 142.851 109.277,142.401 109.927,142.400 110.082 C 142.400 110.237,141.950 110.814,141.400 111.364 C 140.850 111.914,140.400 112.525,140.400 112.722 C 140.400 112.920,139.860 113.646,139.200 114.337 C 138.540 115.028,138.000 115.748,138.000 115.937 C 138.000 116.126,137.460 116.846,136.800 117.537 C 136.140 118.228,135.600 118.948,135.600 119.137 C 135.600 119.326,135.060 120.046,134.400 120.737 C 133.740 121.428,133.200 122.198,133.200 122.449 C 133.200 122.701,132.883 123.197,132.497 123.553 C 132.110 123.909,130.985 125.279,129.997 126.598 C 129.008 127.918,127.885 129.347,127.500 129.774 C 127.115 130.201,126.800 130.710,126.800 130.904 C 126.800 131.098,126.575 131.508,126.300 131.815 C 125.077 133.179,124.800 133.599,124.800 134.095 C 124.800 134.386,124.440 134.883,124.000 135.200 C 123.560 135.517,123.200 135.980,123.200 136.229 C 123.200 136.478,122.660 137.246,122.000 137.937 C 121.340 138.628,120.800 139.425,120.800 139.708 C 120.800 139.991,120.440 140.483,120.000 140.800 C 119.560 141.117,119.200 141.567,119.200 141.800 C 119.200 142.033,118.840 142.483,118.400 142.800 C 117.960 143.117,117.600 143.607,117.600 143.888 C 117.600 144.170,117.420 144.400,117.200 144.400 C 116.980 144.400,116.800 144.630,116.800 144.912 C 116.800 145.193,116.440 145.683,116.000 146.000 C 115.560 146.317,115.200 146.809,115.200 147.092 C 115.200 147.375,114.660 148.172,114.000 148.863 C 113.340 149.554,112.800 150.279,112.800 150.476 C 112.800 150.673,112.440 151.220,112.000 151.692 C 111.560 152.164,111.200 152.787,111.200 153.075 C 111.200 153.364,111.057 153.600,110.883 153.600 C 110.708 153.600,110.033 154.496,109.383 155.592 C 108.732 156.688,108.065 157.588,107.900 157.592 C 107.735 157.596,107.600 157.842,107.600 158.138 C 107.600 158.434,107.240 159.002,106.800 159.400 C 106.360 159.798,106.000 160.326,106.000 160.574 C 106.000 160.821,105.640 161.283,105.200 161.600 C 104.760 161.917,104.400 162.362,104.399 162.588 C 104.399 162.815,103.859 163.630,103.200 164.400 C 102.541 165.170,102.001 165.985,102.001 166.212 C 102.000 166.438,101.640 166.883,101.200 167.200 C 100.760 167.517,100.400 168.057,100.400 168.400 C 100.400 168.743,100.040 169.283,99.600 169.600 C 99.160 169.917,98.800 170.457,98.800 170.800 C 98.800 171.143,98.440 171.683,98.000 172.000 C 97.560 172.317,97.200 172.857,97.200 173.200 C 97.200 173.543,96.840 174.083,96.400 174.400 C 95.960 174.717,95.600 175.115,95.600 175.285 C 95.600 175.454,94.946 176.450,94.146 177.497 C 93.347 178.543,92.496 179.850,92.256 180.400 C 92.015 180.950,91.499 181.691,91.109 182.047 C 90.719 182.403,90.400 182.948,90.400 183.259 C 90.400 183.569,90.040 184.083,89.600 184.400 C 89.160 184.717,88.800 185.257,88.800 185.600 C 88.800 185.943,88.440 186.483,88.000 186.800 C 87.560 187.117,87.200 187.657,87.200 188.000 C 87.200 188.343,86.840 188.883,86.400 189.200 C 85.960 189.517,85.600 190.057,85.600 190.400 C 85.600 190.743,85.240 191.283,84.800 191.600 C 84.360 191.917,84.000 192.407,84.000 192.688 C 84.000 192.970,83.820 193.200,83.600 193.200 C 83.380 193.200,83.200 193.470,83.200 193.800 C 83.200 194.130,83.020 194.400,82.800 194.400 C 82.580 194.400,82.400 194.670,82.400 195.000 C 82.400 195.330,82.250 195.600,82.068 195.600 C 81.885 195.600,81.480 196.095,81.168 196.700 C 80.855 197.305,80.285 198.149,79.900 198.575 C 79.515 199.002,79.200 199.587,79.200 199.875 C 79.200 200.164,79.042 200.400,78.849 200.400 C 78.655 200.400,78.273 200.940,78.000 201.600 C 77.727 202.260,77.372 202.800,77.212 202.800 C 77.052 202.800,76.597 203.520,76.200 204.400 C 75.803 205.280,75.326 206.000,75.139 206.000 C 74.953 206.000,74.800 206.268,74.800 206.595 C 74.800 207.123,74.357 207.800,73.000 209.345 C 72.780 209.595,72.345 210.295,72.032 210.900 C 71.720 211.505,71.315 212.000,71.132 212.000 C 70.950 212.000,70.800 212.320,70.800 212.712 C 70.800 213.103,70.440 213.683,70.000 214.000 C 69.560 214.317,69.200 214.857,69.200 215.200 C 69.200 215.543,68.840 216.083,68.400 216.400 C 67.960 216.717,67.600 217.214,67.600 217.505 C 67.600 217.796,67.240 218.420,66.800 218.892 C 66.360 219.364,66.000 219.987,66.000 220.275 C 66.000 220.564,65.842 220.800,65.649 220.800 C 65.455 220.800,65.073 221.340,64.800 222.000 C 64.527 222.660,64.145 223.200,63.951 223.200 C 63.758 223.200,63.600 223.494,63.600 223.853 C 63.600 224.212,63.285 224.800,62.900 225.159 C 62.515 225.518,61.985 226.169,61.721 226.606 C 61.458 227.043,60.603 228.448,59.821 229.729 C 59.040 231.009,58.400 232.275,58.400 232.540 C 58.400 232.806,58.040 233.283,57.600 233.600 C 57.160 233.917,56.800 234.457,56.800 234.800 C 56.800 235.143,56.440 235.683,56.000 236.000 C 55.560 236.317,55.200 236.897,55.200 237.288 C 55.200 237.680,55.020 238.000,54.800 238.000 C 54.580 238.000,54.400 238.320,54.400 238.712 C 54.400 239.103,54.040 239.683,53.600 240.000 C 53.160 240.317,52.800 240.857,52.800 241.200 C 52.800 241.543,52.440 242.083,52.000 242.400 C 51.560 242.717,51.200 243.207,51.200 243.488 C 51.200 243.770,51.020 244.000,50.800 244.000 C 50.580 244.000,50.400 244.278,50.400 244.617 C 50.400 244.956,50.040 245.620,49.600 246.092 C 49.160 246.564,48.800 247.187,48.800 247.475 C 48.800 247.764,48.620 248.000,48.400 248.000 C 48.180 248.000,48.000 248.236,48.000 248.525 C 48.000 248.813,47.640 249.436,47.200 249.908 C 46.760 250.380,46.400 251.044,46.400 251.383 C 46.400 251.722,46.242 252.000,46.049 252.000 C 45.855 252.000,45.473 252.540,45.200 253.200 C 44.927 253.860,44.545 254.400,44.351 254.400 C 44.158 254.400,44.000 254.760,44.000 255.200 C 44.000 255.640,43.847 256.000,43.661 256.000 C 43.474 256.000,42.982 256.765,42.566 257.700 C 42.150 258.635,41.493 259.749,41.105 260.175 C 40.717 260.602,40.400 261.187,40.400 261.475 C 40.400 261.764,40.220 262.000,40.000 262.000 C 39.780 262.000,39.600 262.278,39.600 262.617 C 39.600 262.956,39.240 263.620,38.800 264.092 C 38.360 264.564,38.000 265.187,38.000 265.475 C 38.000 265.764,37.820 266.000,37.600 266.000 C 37.380 266.000,37.200 266.278,37.200 266.617 C 37.200 266.956,36.840 267.620,36.400 268.092 C 35.960 268.564,35.600 269.187,35.600 269.475 C 35.600 269.764,35.420 270.000,35.200 270.000 C 34.980 270.000,34.800 270.360,34.800 270.800 C 34.800 271.240,34.642 271.600,34.449 271.600 C 34.255 271.600,33.873 272.140,33.600 272.800 C 33.327 273.460,32.945 274.000,32.751 274.000 C 32.558 274.000,32.400 274.360,32.400 274.800 C 32.400 275.240,32.220 275.600,32.000 275.600 C 31.780 275.600,31.600 275.855,31.600 276.167 C 31.600 276.478,31.465 276.793,31.300 276.867 C 30.924 277.034,29.625 279.164,29.329 280.100 C 29.207 280.485,28.948 280.800,28.753 280.800 C 28.559 280.800,28.400 281.160,28.400 281.600 C 28.400 282.040,28.260 282.400,28.088 282.400 C 27.917 282.400,26.892 284.155,25.811 286.300 C 24.730 288.445,23.700 290.260,23.523 290.333 C 23.345 290.407,23.200 290.812,23.200 291.233 C 23.200 291.655,23.020 292.000,22.800 292.000 C 22.580 292.000,22.400 292.270,22.400 292.600 C 22.400 292.930,22.220 293.200,22.000 293.200 C 21.780 293.200,21.600 293.560,21.600 294.000 C 21.600 294.440,21.420 294.800,21.200 294.800 C 20.980 294.800,20.800 295.070,20.800 295.400 C 20.800 295.730,20.654 296.000,20.475 296.000 C 20.296 296.000,19.902 296.630,19.600 297.400 C 19.298 298.170,18.904 298.800,18.725 298.800 C 18.546 298.800,18.400 299.160,18.400 299.600 C 18.400 300.040,18.220 300.400,18.000 300.400 C 17.780 300.400,17.600 300.760,17.600 301.200 C 17.600 301.640,17.420 302.000,17.200 302.000 C 16.980 302.000,16.800 302.360,16.800 302.800 C 16.800 303.240,16.620 303.600,16.400 303.600 C 16.180 303.600,16.000 303.960,16.000 304.400 C 16.000 304.840,15.820 305.200,15.600 305.200 C 15.380 305.200,15.200 305.560,15.200 306.000 C 15.200 306.440,15.054 306.800,14.875 306.800 C 14.696 306.800,14.302 307.430,14.000 308.200 C 13.698 308.970,13.304 309.600,13.125 309.600 C 12.946 309.600,12.800 309.960,12.800 310.400 C 12.800 310.840,12.620 311.200,12.400 311.200 C 12.180 311.200,12.000 311.560,12.000 312.000 C 12.000 312.440,11.820 312.800,11.600 312.800 C 11.380 312.800,11.200 313.160,11.200 313.600 C 11.200 314.040,11.020 314.400,10.800 314.400 C 10.580 314.400,10.400 314.760,10.400 315.200 C 10.400 315.640,10.220 316.000,10.000 316.000 C 9.780 316.000,9.600 316.249,9.600 316.554 C 9.600 316.859,9.331 317.624,9.002 318.254 C 8.674 318.884,8.404 319.715,8.402 320.100 C 8.401 320.485,8.220 320.800,8.000 320.800 C 7.780 320.800,7.600 321.160,7.600 321.600 C 7.600 322.040,7.420 322.400,7.200 322.400 C 6.980 322.400,6.800 322.760,6.800 323.200 C 6.800 323.640,6.620 324.000,6.400 324.000 C 6.180 324.000,6.000 324.360,6.000 324.800 C 6.000 325.240,5.820 325.600,5.600 325.600 C 5.380 325.600,5.200 326.050,5.200 326.600 C 5.200 327.150,5.020 327.600,4.800 327.600 C 4.580 327.600,4.400 327.960,4.400 328.400 C 4.400 328.840,4.220 329.200,4.000 329.200 C 3.780 329.200,3.600 329.740,3.600 330.400 C 3.600 331.060,3.420 331.600,3.200 331.600 C 2.980 331.600,2.800 331.960,2.800 332.400 C 2.800 332.840,2.620 333.200,2.400 333.200 C 2.180 333.200,2.000 333.740,2.000 334.400 C 2.000 335.060,1.820 335.600,1.600 335.600 C 1.380 335.600,1.200 336.125,1.200 336.767 C 1.200 337.408,0.993 338.002,0.741 338.086 C 0.434 338.189,0.217 340.238,0.089 344.255 C -0.115 350.585,0.285 352.000,2.275 352.000 C 2.564 352.000,2.800 352.161,2.800 352.358 C 2.800 352.782,7.685 355.200,8.541 355.200 C 8.867 355.200,9.193 355.335,9.267 355.501 C 9.452 355.918,14.237 357.503,16.309 357.833 C 17.249 357.983,18.114 358.261,18.232 358.453 C 18.351 358.644,18.977 358.800,19.624 358.800 C 20.271 358.800,20.800 358.980,20.800 359.200 C 20.800 359.420,21.520 359.600,22.400 359.600 C 23.280 359.600,24.000 359.780,24.000 360.000 C 24.000 360.220,24.630 360.400,25.400 360.400 C 26.170 360.400,26.800 360.580,26.800 360.800 C 26.800 361.020,27.520 361.200,28.400 361.200 C 29.280 361.200,30.000 361.380,30.000 361.600 C 30.000 361.820,30.720 362.000,31.600 362.000 C 32.480 362.000,33.200 362.180,33.200 362.400 C 33.200 362.620,33.920 362.800,34.800 362.800 C 35.680 362.800,36.400 362.980,36.400 363.200 C 36.400 363.420,37.300 363.600,38.400 363.600 C 39.500 363.600,40.400 363.780,40.400 364.000 C 40.400 364.220,41.199 364.400,42.176 364.400 C 43.153 364.400,44.064 364.580,44.200 364.800 C 44.336 365.020,45.157 365.200,46.024 365.200 C 46.891 365.200,47.600 365.380,47.600 365.600 C 47.600 365.820,48.399 366.000,49.376 366.000 C 50.353 366.000,51.264 366.180,51.400 366.400 C 51.536 366.620,52.627 366.800,53.824 366.800 C 55.021 366.800,56.000 366.980,56.000 367.200 C 56.000 367.420,56.900 367.600,58.000 367.600 C 59.100 367.600,60.000 367.780,60.000 368.000 C 60.000 368.220,60.889 368.400,61.976 368.400 C 63.063 368.400,64.064 368.580,64.200 368.800 C 64.336 369.020,65.326 369.200,66.400 369.200 C 67.474 369.200,68.464 369.380,68.600 369.600 C 68.736 369.820,69.816 370.000,71.000 370.000 C 72.184 370.000,73.264 370.180,73.400 370.400 C 73.536 370.620,74.501 370.800,75.544 370.800 C 76.587 370.800,77.611 370.964,77.820 371.165 C 78.175 371.506,79.298 371.668,85.100 372.218 C 86.365 372.338,87.760 372.599,88.200 372.799 C 88.640 372.998,89.900 373.254,91.000 373.367 C 92.100 373.479,94.170 373.747,95.600 373.961 C 97.030 374.175,100.495 374.578,103.300 374.857 C 106.105 375.136,108.400 375.507,108.400 375.682 C 108.400 375.857,109.750 376.000,111.400 376.000 C 113.133 376.000,114.400 376.169,114.400 376.400 C 114.400 376.629,115.600 376.800,117.200 376.800 C 118.800 376.800,120.000 376.971,120.000 377.200 C 120.000 377.428,121.192 377.600,122.776 377.600 C 124.303 377.600,125.664 377.780,125.800 378.000 C 125.936 378.220,127.477 378.400,129.224 378.400 C 131.075 378.400,132.400 378.567,132.400 378.800 C 132.400 379.029,133.600 379.200,135.200 379.200 C 136.800 379.200,138.000 379.371,138.000 379.600 C 138.000 379.833,139.333 380.000,141.200 380.000 C 143.067 380.000,144.400 380.167,144.400 380.400 C 144.400 380.635,145.800 380.800,147.800 380.800 C 149.800 380.800,151.200 380.965,151.200 381.200 C 151.200 381.433,152.533 381.600,154.400 381.600 C 156.267 381.600,157.600 381.767,157.600 382.000 C 157.600 382.235,158.992 382.400,160.976 382.400 C 162.833 382.400,164.464 382.580,164.600 382.800 C 164.736 383.020,166.356 383.200,168.200 383.200 C 170.044 383.200,171.664 383.380,171.800 383.600 C 171.936 383.820,173.556 384.000,175.400 384.000 C 177.244 384.000,178.864 384.180,179.000 384.400 C 179.136 384.620,180.846 384.800,182.800 384.800 C 184.754 384.800,186.464 384.980,186.600 385.200 C 186.737 385.421,188.537 385.600,190.624 385.600 C 192.875 385.600,194.400 385.762,194.400 386.000 C 194.400 386.241,196.067 386.400,198.600 386.400 C 201.133 386.400,202.800 386.559,202.800 386.800 C 202.800 387.039,204.373 387.200,206.720 387.200 C 208.876 387.200,210.811 387.368,211.020 387.574 C 211.377 387.926,213.401 388.088,224.200 388.629 C 226.620 388.750,228.771 389.018,228.980 389.225 C 229.189 389.431,231.473 389.600,234.056 389.600 C 236.756 389.600,238.858 389.770,239.000 390.000 C 239.141 390.229,241.195 390.400,243.798 390.400 C 246.300 390.400,248.781 390.565,249.310 390.766 C 249.840 390.967,255.251 391.263,261.336 391.424 C 267.421 391.584,272.400 391.869,272.400 392.058 C 272.400 392.246,275.550 392.400,279.400 392.400 C 283.800 392.400,286.400 392.549,286.400 392.800 C 286.400 393.054,289.533 393.200,295.000 393.200 C 300.467 393.200,303.600 393.346,303.600 393.600 C 303.600 393.863,314.459 394.000,335.376 394.000 C 356.129 394.000,367.239 393.861,367.400 393.600 C 367.542 393.371,369.604 393.200,372.224 393.200 C 375.008 393.200,376.800 393.043,376.800 392.800 C 376.800 392.571,378.000 392.400,379.600 392.400 C 381.140 392.400,382.400 392.247,382.400 392.059 C 382.400 391.872,383.897 391.613,385.727 391.484 C 387.557 391.355,389.492 391.072,390.027 390.855 C 390.562 390.637,391.855 390.227,392.900 389.943 C 393.945 389.658,394.800 389.285,394.800 389.113 C 394.800 388.941,395.160 388.800,395.600 388.800 C 396.040 388.800,396.400 388.620,396.400 388.400 C 396.400 388.180,396.683 388.000,397.029 388.000 C 397.787 388.000,398.400 387.389,399.200 385.833 C 399.989 384.299,400.061 361.501,399.279 360.719 C 399.016 360.456,398.800 359.387,398.800 358.344 C 398.800 357.301,398.620 356.336,398.400 356.200 C 398.180 356.064,398.000 355.063,398.000 353.976 C 398.000 352.889,397.820 352.000,397.600 352.000 C 397.380 352.000,397.200 351.100,397.200 350.000 C 397.200 348.900,397.020 348.000,396.800 348.000 C 396.580 348.000,396.400 347.291,396.400 346.424 C 396.400 345.557,396.220 344.736,396.000 344.600 C 395.780 344.464,395.600 343.643,395.600 342.776 C 395.600 341.909,395.420 341.200,395.200 341.200 C 394.980 341.200,394.800 340.480,394.800 339.600 C 394.800 338.720,394.620 338.000,394.400 338.000 C 394.180 338.000,394.000 337.280,394.000 336.400 C 394.000 335.520,393.820 334.800,393.600 334.800 C 393.380 334.800,393.200 334.080,393.200 333.200 C 393.200 332.320,393.020 331.600,392.800 331.600 C 392.580 331.600,392.400 330.880,392.400 330.000 C 392.400 329.120,392.253 328.400,392.074 328.400 C 391.894 328.400,391.549 327.185,391.307 325.700 C 391.065 324.215,390.658 322.190,390.404 321.200 C 390.150 320.210,389.846 318.815,389.727 318.100 C 389.609 317.385,389.352 316.800,389.156 316.800 C 388.960 316.800,388.800 316.181,388.800 315.424 C 388.800 314.667,388.620 313.936,388.400 313.800 C 388.180 313.664,388.000 313.124,388.000 312.600 C 388.000 312.076,387.820 311.536,387.600 311.400 C 387.380 311.264,387.200 310.533,387.200 309.776 C 387.200 309.019,387.020 308.400,386.800 308.400 C 386.580 308.400,386.400 307.860,386.400 307.200 C 386.400 306.540,386.220 306.000,386.000 306.000 C 385.780 306.000,385.600 305.280,385.600 304.400 C 385.600 303.520,385.420 302.800,385.200 302.800 C 384.980 302.800,384.800 302.260,384.800 301.600 C 384.800 300.940,384.620 300.400,384.400 300.400 C 384.180 300.400,384.000 299.871,384.000 299.224 C 384.000 298.577,383.820 297.936,383.600 297.800 C 383.380 297.664,383.200 297.034,383.200 296.400 C 383.200 295.766,383.020 295.136,382.800 295.000 C 382.580 294.864,382.400 294.313,382.400 293.776 C 382.400 293.239,382.220 292.800,382.000 292.800 C 381.780 292.800,381.600 292.260,381.600 291.600 C 381.600 290.940,381.420 290.400,381.200 290.400 C 380.980 290.400,380.800 289.680,380.800 288.800 C 380.800 287.920,380.620 287.200,380.400 287.200 C 380.180 287.200,380.000 286.660,380.000 286.000 C 380.000 285.340,379.820 284.800,379.600 284.800 C 379.380 284.800,379.200 284.260,379.200 283.600 C 379.200 282.940,379.020 282.400,378.800 282.400 C 378.580 282.400,378.400 281.860,378.400 281.200 C 378.400 280.540,378.220 280.000,378.000 280.000 C 377.780 280.000,377.600 279.460,377.600 278.800 C 377.600 278.140,377.420 277.600,377.200 277.600 C 376.980 277.600,376.800 277.060,376.800 276.400 C 376.800 275.740,376.620 275.200,376.400 275.200 C 376.180 275.200,376.000 274.570,376.000 273.800 C 376.000 273.030,375.820 272.400,375.600 272.400 C 375.380 272.400,375.200 271.985,375.200 271.479 C 375.200 270.496,372.659 262.269,371.996 261.105 C 371.778 260.723,371.600 260.059,371.600 259.629 C 371.600 259.199,371.420 258.736,371.200 258.600 C 370.980 258.464,370.800 257.823,370.800 257.176 C 370.800 256.529,370.620 256.000,370.400 256.000 C 370.180 256.000,370.000 255.561,370.000 255.024 C 370.000 254.487,369.820 253.936,369.600 253.800 C 369.380 253.664,369.200 253.201,369.200 252.771 C 369.200 252.341,369.020 251.632,368.800 251.195 C 368.580 250.758,368.220 250.042,368.000 249.605 C 367.780 249.168,367.600 248.459,367.600 248.029 C 367.600 247.599,367.420 247.136,367.200 247.000 C 366.980 246.864,366.800 246.313,366.800 245.776 C 366.800 245.239,366.620 244.800,366.400 244.800 C 366.180 244.800,366.000 244.361,366.000 243.824 C 366.000 243.287,365.820 242.736,365.600 242.600 C 365.380 242.464,365.200 241.913,365.200 241.376 C 365.200 240.839,365.020 240.400,364.800 240.400 C 364.580 240.400,364.400 239.860,364.400 239.200 C 364.400 238.540,364.220 238.000,364.000 238.000 C 363.780 238.000,363.600 237.460,363.600 236.800 C 363.600 236.140,363.420 235.600,363.200 235.600 C 362.980 235.600,362.800 235.060,362.800 234.400 C 362.800 233.740,362.620 233.200,362.400 233.200 C 362.180 233.200,362.000 232.750,362.000 232.200 C 362.000 231.650,361.820 231.200,361.600 231.200 C 361.380 231.200,361.200 230.750,361.200 230.200 C 361.200 229.650,361.020 229.200,360.800 229.200 C 360.580 229.200,360.400 228.660,360.400 228.000 C 360.400 227.340,360.220 226.800,360.000 226.800 C 359.780 226.800,359.600 226.350,359.600 225.800 C 359.600 225.250,359.420 224.800,359.200 224.800 C 358.980 224.800,358.800 224.271,358.800 223.624 C 358.800 222.977,358.620 222.336,358.400 222.200 C 358.180 222.064,357.999 221.558,357.998 221.076 C 357.996 220.594,357.726 219.684,357.398 219.054 C 357.069 218.424,356.800 217.605,356.800 217.234 C 356.800 216.863,356.657 216.389,356.482 216.180 C 356.307 215.971,355.935 215.080,355.655 214.200 C 355.124 212.526,354.550 211.078,353.953 209.905 C 353.759 209.523,353.600 208.848,353.600 208.405 C 353.600 207.962,353.420 207.600,353.200 207.600 C 352.980 207.600,352.800 207.161,352.800 206.624 C 352.800 206.087,352.620 205.536,352.400 205.400 C 352.180 205.264,352.000 204.803,352.000 204.376 C 352.000 203.949,351.820 203.600,351.600 203.600 C 351.380 203.600,351.200 203.060,351.200 202.400 C 351.200 201.740,351.020 201.200,350.800 201.200 C 350.580 201.200,350.400 200.761,350.400 200.224 C 350.400 199.687,350.220 199.136,350.000 199.000 C 349.780 198.864,349.600 198.403,349.600 197.976 C 349.600 197.549,349.420 197.200,349.200 197.200 C 348.980 197.200,348.800 196.660,348.800 196.000 C 348.800 195.340,348.620 194.800,348.400 194.800 C 348.180 194.800,348.000 194.350,348.000 193.800 C 348.000 193.250,347.820 192.800,347.600 192.800 C 347.380 192.800,347.200 192.440,347.200 192.000 C 347.200 191.560,347.020 191.200,346.800 191.200 C 346.580 191.200,346.400 190.660,346.400 190.000 C 346.400 189.340,346.220 188.800,346.000 188.800 C 345.780 188.800,345.600 188.361,345.600 187.824 C 345.600 187.287,345.420 186.736,345.200 186.600 C 344.980 186.464,344.800 186.003,344.800 185.576 C 344.800 185.149,344.620 184.800,344.400 184.800 C 344.180 184.800,344.000 184.260,344.000 183.600 C 344.000 182.940,343.820 182.400,343.600 182.400 C 343.380 182.400,343.200 182.040,343.200 181.600 C 343.200 181.160,343.020 180.800,342.800 180.800 C 342.580 180.800,342.400 180.275,342.400 179.633 C 342.400 178.992,342.265 178.407,342.100 178.333 C 341.935 178.260,341.265 176.580,340.611 174.600 C 339.957 172.620,339.311 170.910,339.176 170.800 C 339.041 170.690,338.682 169.745,338.378 168.700 C 338.074 167.655,337.685 166.800,337.513 166.800 C 337.341 166.800,337.200 166.451,337.200 166.024 C 337.200 165.597,337.020 165.136,336.800 165.000 C 336.580 164.864,336.400 164.313,336.400 163.776 C 336.400 163.239,336.220 162.800,336.000 162.800 C 335.780 162.800,335.600 162.451,335.600 162.024 C 335.600 161.597,335.420 161.136,335.200 161.000 C 334.980 160.864,334.800 160.403,334.800 159.976 C 334.800 159.549,334.620 159.200,334.400 159.200 C 334.180 159.200,334.000 158.761,334.000 158.224 C 334.000 157.687,333.820 157.136,333.600 157.000 C 333.380 156.864,333.200 156.403,333.200 155.976 C 333.200 155.549,333.053 155.200,332.872 155.200 C 332.692 155.200,332.300 154.300,332.000 153.200 C 331.700 152.100,331.308 151.200,331.128 151.200 C 330.947 151.200,330.800 150.840,330.800 150.400 C 330.800 149.960,330.620 149.600,330.400 149.600 C 330.180 149.600,330.000 149.161,330.000 148.624 C 330.000 148.087,329.820 147.536,329.600 147.400 C 329.380 147.264,329.200 146.803,329.200 146.376 C 329.200 145.949,329.020 145.600,328.800 145.600 C 328.580 145.600,328.400 145.150,328.400 144.600 C 328.400 144.050,328.220 143.600,328.000 143.600 C 327.780 143.600,327.600 143.240,327.600 142.800 C 327.600 142.360,327.420 142.000,327.200 142.000 C 326.980 142.000,326.800 141.651,326.800 141.224 C 326.800 140.797,326.620 140.336,326.400 140.200 C 326.180 140.064,326.000 139.528,326.000 139.010 C 326.000 138.491,325.865 138.007,325.700 137.933 C 325.535 137.860,325.063 136.810,324.651 135.600 C 324.240 134.390,323.547 132.590,323.112 131.600 C 322.676 130.610,322.173 129.440,321.994 129.000 C 321.814 128.560,321.428 127.615,321.136 126.900 C 320.844 126.185,320.501 125.600,320.375 125.600 C 320.248 125.600,319.900 124.700,319.600 123.600 C 319.300 122.500,318.908 121.600,318.728 121.600 C 318.547 121.600,318.400 121.240,318.400 120.800 C 318.400 120.360,318.220 120.000,318.000 120.000 C 317.780 120.000,317.600 119.728,317.600 119.395 C 317.600 119.062,317.420 118.432,317.200 117.995 C 316.980 117.558,316.620 116.842,316.400 116.405 C 316.180 115.968,316.000 115.338,316.000 115.005 C 316.000 114.672,315.820 114.400,315.600 114.400 C 315.380 114.400,315.200 114.040,315.200 113.600 C 315.200 113.160,315.020 112.800,314.800 112.800 C 314.580 112.800,314.400 112.451,314.400 112.024 C 314.400 111.597,314.220 111.136,314.000 111.000 C 313.780 110.864,313.600 110.403,313.600 109.976 C 313.600 109.549,313.420 109.200,313.200 109.200 C 312.980 109.200,312.800 108.840,312.800 108.400 C 312.800 107.960,312.620 107.600,312.400 107.600 C 312.180 107.600,312.000 107.240,312.000 106.800 C 312.000 106.360,311.820 106.000,311.600 106.000 C 311.380 106.000,311.200 105.728,311.200 105.395 C 311.200 105.062,311.020 104.432,310.800 103.995 C 310.580 103.558,310.220 102.842,310.000 102.405 C 309.780 101.968,309.600 101.338,309.600 101.005 C 309.600 100.672,309.420 100.400,309.200 100.400 C 308.980 100.400,308.800 100.040,308.800 99.600 C 308.800 99.160,308.620 98.800,308.400 98.800 C 308.180 98.800,308.000 98.518,308.000 98.174 C 308.000 97.540,306.631 94.270,305.189 91.462 C 304.755 90.616,304.400 89.671,304.400 89.362 C 304.400 89.053,304.220 88.800,304.000 88.800 C 303.780 88.800,303.600 88.440,303.600 88.000 C 303.600 87.560,303.420 87.200,303.200 87.200 C 302.980 87.200,302.800 86.840,302.800 86.400 C 302.800 85.960,302.620 85.600,302.400 85.600 C 302.180 85.600,302.000 85.240,302.000 84.800 C 302.000 84.360,301.820 84.000,301.600 84.000 C 301.380 84.000,301.200 83.640,301.200 83.200 C 301.200 82.760,301.020 82.400,300.800 82.400 C 300.580 82.400,300.400 82.040,300.400 81.600 C 300.400 81.160,300.220 80.800,300.000 80.800 C 299.780 80.800,299.600 80.440,299.600 80.000 C 299.600 79.560,299.420 79.200,299.200 79.200 C 298.980 79.200,298.800 78.840,298.800 78.400 C 298.800 77.960,298.620 77.600,298.400 77.600 C 298.180 77.600,298.000 77.313,298.000 76.962 C 298.000 76.611,297.675 75.846,297.278 75.262 C 296.881 74.678,295.579 72.220,294.383 69.800 C 293.188 67.380,292.073 65.340,291.905 65.267 C 291.737 65.193,291.600 64.851,291.600 64.507 C 291.600 63.754,289.561 59.456,289.115 59.267 C 288.942 59.193,288.800 58.788,288.800 58.367 C 288.800 57.945,288.620 57.600,288.400 57.600 C 288.180 57.600,288.000 57.255,288.000 56.833 C 288.000 56.412,287.865 56.007,287.700 55.933 C 287.324 55.766,286.025 53.636,285.729 52.700 C 285.607 52.315,285.348 52.000,285.153 52.000 C 284.959 52.000,284.800 51.640,284.800 51.200 C 284.800 50.760,284.620 50.400,284.400 50.400 C 284.180 50.400,284.000 50.040,284.000 49.600 C 284.000 49.160,283.841 48.800,283.647 48.800 C 283.452 48.800,283.193 48.485,283.071 48.100 C 282.854 47.413,281.595 45.194,281.199 44.800 C 281.089 44.690,280.729 44.060,280.399 43.400 C 280.070 42.740,279.485 41.851,279.100 41.425 C 278.715 40.998,278.400 40.413,278.400 40.125 C 278.400 39.836,278.220 39.600,278.000 39.600 C 277.780 39.600,277.600 39.322,277.600 38.983 C 277.600 38.644,277.240 37.980,276.800 37.508 C 276.360 37.036,276.000 36.413,276.000 36.125 C 276.000 35.836,275.820 35.600,275.600 35.600 C 275.380 35.600,275.200 35.240,275.200 34.800 C 275.200 34.360,275.047 34.000,274.861 34.000 C 274.674 34.000,274.197 33.280,273.800 32.400 C 273.403 31.520,272.926 30.800,272.739 30.800 C 272.553 30.800,272.400 30.564,272.400 30.275 C 272.400 29.987,272.040 29.364,271.600 28.892 C 271.160 28.420,270.800 27.874,270.800 27.679 C 270.800 27.484,270.440 26.998,270.000 26.600 C 269.560 26.202,269.200 25.674,269.200 25.426 C 269.200 25.179,268.840 24.717,268.400 24.400 C 267.960 24.083,267.600 23.620,267.600 23.371 C 267.600 23.122,267.060 22.354,266.400 21.663 C 265.740 20.972,265.200 20.244,265.200 20.044 C 265.200 19.844,264.300 18.762,263.200 17.639 C 262.100 16.515,261.200 15.446,261.200 15.262 C 261.200 14.306,253.563 7.600,252.475 7.600 C 252.214 7.600,252.000 7.420,252.000 7.200 C 252.000 6.980,251.640 6.800,251.200 6.800 C 250.760 6.800,250.400 6.620,250.400 6.400 C 250.400 6.157,248.600 6.000,245.800 6.000 C 243.000 6.000,241.200 6.157,241.200 6.400 M246.249 23.900 C 246.372 24.285,246.619 24.960,246.798 25.400 C 247.273 26.565,249.313 31.996,251.005 36.600 C 254.275 45.493,255.413 48.449,256.047 49.695 C 256.241 50.077,256.400 50.664,256.400 51.000 C 256.400 51.336,256.559 51.923,256.753 52.305 C 256.948 52.687,257.329 53.540,257.600 54.200 C 257.871 54.860,258.252 55.713,258.447 56.095 C 258.641 56.477,258.800 57.064,258.800 57.400 C 258.800 57.736,258.959 58.323,259.153 58.705 C 259.877 60.127,261.490 64.149,262.400 66.800 C 262.876 68.186,263.249 69.158,263.975 70.900 C 264.181 71.395,265.542 75.040,266.999 79.000 C 270.837 89.427,271.233 90.493,271.693 91.600 C 272.283 93.023,272.651 94.000,273.200 95.600 C 273.464 96.370,273.867 97.450,274.094 98.000 C 274.321 98.550,274.684 99.450,274.900 100.000 C 275.116 100.550,275.452 101.313,275.647 101.695 C 275.841 102.077,276.000 102.664,276.000 103.000 C 276.000 103.336,276.159 103.923,276.353 104.305 C 276.680 104.949,277.035 105.785,277.960 108.100 C 278.157 108.595,278.536 109.630,278.800 110.400 C 279.356 112.018,279.726 112.999,280.310 114.400 C 280.941 115.915,282.484 119.990,284.776 126.200 C 288.822 137.157,289.003 137.629,289.647 138.895 C 289.841 139.277,290.000 139.864,290.000 140.200 C 290.000 140.536,290.159 141.123,290.353 141.505 C 290.548 141.887,290.908 142.695,291.153 143.300 C 291.399 143.905,291.801 144.895,292.047 145.500 C 292.292 146.105,292.652 146.913,292.847 147.295 C 293.041 147.677,293.200 148.264,293.200 148.600 C 293.200 148.936,293.359 149.523,293.553 149.905 C 293.879 150.546,294.193 151.287,295.161 153.700 C 295.360 154.195,295.917 155.680,296.400 157.000 C 296.883 158.320,297.429 159.760,297.614 160.200 C 297.799 160.640,299.141 164.240,300.597 168.200 C 302.053 172.160,303.396 175.760,303.582 176.200 C 303.767 176.640,304.136 177.630,304.400 178.400 C 304.664 179.170,305.043 180.205,305.240 180.700 C 306.165 183.015,306.520 183.851,306.847 184.495 C 307.041 184.877,307.200 185.464,307.200 185.800 C 307.200 186.136,307.359 186.723,307.553 187.105 C 307.880 187.749,308.235 188.585,309.160 190.900 C 309.357 191.395,309.736 192.430,310.000 193.200 C 310.639 195.062,311.246 196.638,312.307 199.200 C 312.535 199.750,313.082 201.190,313.523 202.400 C 313.963 203.610,314.770 205.770,315.316 207.200 C 315.862 208.630,317.239 212.320,318.376 215.400 C 322.422 226.357,322.603 226.829,323.247 228.095 C 323.441 228.477,323.600 229.064,323.600 229.400 C 323.600 229.736,323.759 230.323,323.953 230.705 C 324.148 231.087,324.508 231.895,324.753 232.500 C 324.999 233.105,325.404 234.095,325.654 234.700 C 326.292 236.250,326.648 237.191,327.200 238.800 C 327.464 239.570,327.867 240.650,328.094 241.200 C 328.654 242.555,328.972 243.389,330.000 246.200 C 330.483 247.520,331.030 248.960,331.217 249.400 C 331.403 249.840,332.747 253.440,334.203 257.400 C 335.659 261.360,337.001 264.960,337.186 265.400 C 337.371 265.840,337.917 267.280,338.400 268.600 C 338.883 269.920,339.440 271.405,339.639 271.900 C 339.838 272.395,340.162 273.205,340.360 273.700 C 340.557 274.195,340.936 275.230,341.200 276.000 C 342.012 278.364,342.996 280.815,343.647 282.095 C 343.841 282.477,344.000 283.064,344.000 283.400 C 344.000 283.736,344.159 284.323,344.353 284.705 C 344.548 285.087,344.884 285.850,345.100 286.400 C 345.316 286.950,345.680 287.850,345.908 288.400 C 346.579 290.015,348.638 295.491,350.195 299.800 C 351.523 303.477,353.620 309.065,354.398 311.000 C 354.575 311.440,354.936 312.430,355.200 313.200 C 355.464 313.970,355.843 315.005,356.040 315.500 C 356.965 317.815,357.320 318.651,357.647 319.295 C 357.841 319.677,358.000 320.264,358.000 320.600 C 358.000 320.936,358.159 321.523,358.353 321.905 C 359.004 323.184,359.780 325.119,361.200 329.000 C 361.683 330.320,362.265 331.850,362.493 332.400 C 363.034 333.707,363.354 334.544,364.330 337.200 C 364.774 338.410,365.888 341.380,366.807 343.800 C 367.725 346.220,368.919 349.460,369.461 351.000 C 370.002 352.540,370.597 354.160,370.784 354.600 C 370.970 355.040,371.517 356.480,372.000 357.800 C 372.892 360.239,373.299 361.288,373.980 362.900 C 374.795 364.832,375.616 367.717,375.409 367.925 C 375.134 368.199,372.281 368.096,366.400 367.598 C 363.870 367.383,359.190 367.022,356.000 366.795 C 349.973 366.366,342.956 365.843,334.400 365.185 C 331.650 364.973,326.880 364.613,323.800 364.385 C 320.720 364.157,315.860 363.788,313.000 363.565 C 310.140 363.342,305.505 362.989,302.700 362.780 C 292.026 361.985,287.222 361.621,281.800 361.200 C 270.459 360.318,265.683 359.952,260.700 359.580 C 249.581 358.751,245.170 358.418,239.800 358.000 C 236.720 357.760,231.905 357.392,229.100 357.182 C 226.295 356.972,221.615 356.618,218.700 356.395 C 215.785 356.172,211.060 355.816,208.200 355.604 C 205.340 355.392,200.660 355.039,197.800 354.818 C 188.099 354.071,182.215 353.632,176.600 353.237 C 170.873 352.833,166.550 352.515,151.800 351.409 C 147.180 351.063,141.060 350.606,138.200 350.395 C 135.340 350.183,130.480 349.819,127.400 349.585 C 124.320 349.351,119.460 348.986,116.600 348.774 C 113.740 348.562,109.060 348.207,106.200 347.986 C 103.340 347.765,98.615 347.408,95.700 347.192 C 89.776 346.754,81.996 346.165,74.200 345.564 C 68.444 345.120,62.168 344.642,54.000 344.025 C 32.797 342.423,31.082 342.255,30.921 341.769 C 30.770 341.310,38.657 329.092,39.250 328.867 C 39.442 328.793,39.600 328.523,39.601 328.267 C 39.601 328.010,40.141 327.170,40.800 326.400 C 41.459 325.630,41.999 324.790,41.999 324.533 C 42.000 324.277,42.156 324.007,42.346 323.933 C 42.537 323.860,44.820 320.560,47.421 316.600 C 50.022 312.640,52.251 309.310,52.375 309.200 C 52.753 308.864,54.178 306.665,54.773 305.500 C 55.082 304.895,55.485 304.400,55.668 304.400 C 55.850 304.400,56.000 304.145,56.000 303.833 C 56.000 303.522,56.145 303.207,56.323 303.133 C 56.501 303.060,61.661 295.530,67.791 286.400 C 73.921 277.270,81.306 266.290,84.201 262.000 C 87.097 257.710,93.400 248.350,98.209 241.200 C 103.017 234.050,107.098 228.140,107.276 228.067 C 107.454 227.993,107.600 227.712,107.600 227.442 C 107.600 227.172,107.915 226.602,108.300 226.175 C 108.685 225.749,109.255 224.905,109.568 224.300 C 109.880 223.695,110.285 223.200,110.468 223.200 C 110.650 223.200,110.800 223.034,110.800 222.832 C 110.800 222.499,123.039 204.074,123.575 203.600 C 123.699 203.490,124.056 202.905,124.368 202.300 C 124.680 201.695,125.085 201.200,125.268 201.200 C 125.450 201.200,125.600 200.930,125.600 200.600 C 125.600 200.270,125.750 200.000,125.932 200.000 C 126.115 200.000,126.520 199.505,126.832 198.900 C 127.144 198.295,127.498 197.710,127.619 197.600 C 127.741 197.490,130.331 193.620,133.375 189.000 C 136.419 184.380,139.065 180.540,139.255 180.467 C 139.445 180.393,139.600 180.123,139.601 179.867 C 139.601 179.610,140.141 178.770,140.800 178.000 C 141.459 177.230,141.999 176.390,141.999 176.133 C 142.000 175.877,142.158 175.607,142.351 175.533 C 142.544 175.460,144.830 172.160,147.430 168.200 C 150.031 164.240,152.264 160.910,152.392 160.800 C 152.521 160.690,154.857 157.270,157.582 153.200 C 160.308 149.130,165.267 141.750,168.602 136.800 C 174.374 128.233,178.322 122.363,199.411 91.000 C 204.441 83.520,208.701 77.340,208.878 77.267 C 209.055 77.193,209.200 76.923,209.200 76.667 C 209.201 76.410,209.651 75.677,210.200 75.038 C 210.750 74.399,211.200 73.736,211.200 73.566 C 211.200 73.396,211.425 73.019,211.700 72.729 C 211.975 72.438,214.342 68.960,216.959 65.000 C 219.577 61.040,221.872 57.740,222.059 57.667 C 222.247 57.593,222.400 57.312,222.400 57.042 C 222.400 56.772,222.715 56.202,223.100 55.775 C 223.485 55.349,224.055 54.505,224.368 53.900 C 224.680 53.295,225.085 52.800,225.268 52.800 C 225.450 52.800,225.600 52.530,225.600 52.200 C 225.600 51.870,225.750 51.600,225.932 51.600 C 226.115 51.600,226.520 51.105,226.832 50.500 C 227.144 49.895,227.509 49.310,227.643 49.200 C 227.777 49.090,230.184 45.490,232.990 41.200 C 235.797 36.910,238.252 33.340,238.446 33.267 C 238.641 33.193,238.800 32.878,238.800 32.567 C 238.800 32.255,238.950 32.000,239.132 32.000 C 239.315 32.000,239.720 31.505,240.032 30.900 C 240.345 30.295,240.915 29.451,241.300 29.025 C 241.685 28.598,242.000 28.028,242.000 27.758 C 242.000 27.488,242.145 27.207,242.323 27.133 C 242.501 27.060,243.230 26.145,243.943 25.100 C 245.326 23.072,245.890 22.778,246.249 23.900 " stroke="none" fill="#fcd404" fill-rule="evenodd"></path><path id="path1" d="M234.978 62.991 C 228.224 65.125,222.035 72.532,217.590 83.800 C 213.180 94.980,209.120 112.790,206.830 131.000 C 206.581 132.980,206.208 135.950,206.001 137.600 C 204.225 151.757,202.794 172.842,201.955 197.200 C 200.998 225.010,202.215 298.466,203.608 296.921 C 203.886 296.612,204.845 294.125,210.058 280.200 C 212.489 273.707,213.332 271.432,214.839 267.300 C 215.300 266.035,215.831 264.640,216.019 264.200 C 216.206 263.760,216.630 262.590,216.960 261.600 C 217.291 260.610,218.484 257.190,219.612 254.000 C 223.500 243.005,228.533 228.070,231.204 219.600 C 232.141 216.630,233.406 212.670,234.017 210.800 C 236.438 203.382,240.986 187.916,243.627 178.116 C 246.214 168.520,248.861 157.916,250.422 150.900 C 250.630 149.965,250.980 148.390,251.200 147.400 C 251.420 146.410,251.771 144.835,251.980 143.900 C 252.459 141.754,253.010 138.929,253.600 135.600 C 253.853 134.170,254.221 132.190,254.416 131.200 C 259.151 107.241,259.011 83.472,254.072 72.800 C 250.369 64.800,242.328 60.669,234.978 62.991 M202.000 308.015 C 174.717 311.179,161.182 336.155,181.346 346.129 C 200.611 355.657,231.200 342.546,231.200 324.759 C 231.200 322.029,231.006 321.277,229.472 318.071 C 226.148 311.124,213.887 306.636,202.000 308.015 " stroke="none" fill="#fc3d3c" fill-rule="evenodd"></path><path id="path2" d="M244.541 25.593 C 244.148 26.257,243.686 26.800,243.514 26.800 C 243.341 26.800,243.200 27.036,243.200 27.325 C 243.200 27.613,242.853 28.222,242.429 28.677 C 242.005 29.132,238.668 33.981,235.013 39.452 C 231.359 44.924,222.971 57.410,216.372 67.200 C 204.546 84.747,197.123 95.779,171.963 133.200 C 164.938 143.650,158.922 152.517,158.595 152.905 C 158.268 153.292,158.000 153.742,158.000 153.905 C 157.999 154.067,157.549 154.723,157.000 155.362 C 156.450 156.001,156.000 156.664,156.000 156.834 C 156.000 157.004,155.768 157.381,155.485 157.671 C 155.202 157.962,152.836 161.435,150.226 165.388 C 147.617 169.341,145.238 172.819,144.941 173.116 C 144.643 173.414,144.400 173.796,144.400 173.966 C 144.400 174.136,143.950 174.799,143.400 175.438 C 142.851 176.077,142.401 176.733,142.400 176.895 C 142.400 177.058,142.133 177.508,141.808 177.895 C 141.285 178.518,130.237 194.899,106.802 229.800 C 90.167 254.574,76.358 275.039,75.895 275.606 C 75.623 275.939,75.145 276.704,74.832 277.306 C 74.520 277.908,74.115 278.400,73.932 278.400 C 73.750 278.400,73.600 278.568,73.600 278.773 C 73.600 279.243,58.760 301.353,58.323 301.533 C 58.145 301.607,58.000 301.888,58.000 302.158 C 58.000 302.428,57.677 302.998,57.281 303.425 C 56.886 303.851,54.062 307.980,51.005 312.600 C 47.949 317.220,45.212 321.238,44.924 321.529 C 44.636 321.819,44.400 322.211,44.400 322.400 C 44.400 322.589,44.162 322.981,43.871 323.271 C 43.014 324.129,32.000 340.749,32.000 341.185 C 32.000 341.750,33.160 341.931,38.400 342.184 C 40.930 342.306,45.340 342.587,48.200 342.807 C 54.249 343.274,62.117 343.872,69.200 344.403 C 71.950 344.610,76.720 344.970,79.800 345.203 C 96.560 346.474,105.795 347.168,109.000 347.398 C 110.540 347.508,114.050 347.776,116.800 347.994 C 123.908 348.556,131.051 349.086,146.600 350.202 C 154.080 350.739,162.450 351.357,165.200 351.575 C 171.842 352.101,179.704 352.693,186.800 353.202 C 189.990 353.431,193.680 353.716,195.000 353.836 C 196.320 353.957,199.830 354.230,202.800 354.444 C 205.770 354.657,210.360 354.998,213.000 355.200 C 215.640 355.402,220.320 355.758,223.400 355.991 C 226.480 356.224,231.340 356.596,234.200 356.818 C 241.375 357.374,249.265 357.968,255.200 358.398 C 260.084 358.752,264.847 359.116,276.200 360.002 C 279.280 360.242,284.230 360.616,287.200 360.833 C 290.170 361.051,294.850 361.398,297.600 361.605 C 300.350 361.813,304.940 362.158,307.800 362.373 C 310.660 362.589,315.520 362.960,318.600 363.198 C 331.550 364.201,334.070 364.392,339.400 364.773 C 342.480 364.993,347.340 365.351,350.200 365.567 C 353.060 365.784,359.270 366.240,364.000 366.581 C 368.730 366.922,373.095 367.259,373.700 367.331 C 374.866 367.469,375.018 367.217,374.447 366.095 C 373.971 365.160,373.382 363.693,372.800 362.000 C 372.213 360.291,371.839 359.308,371.278 358.000 C 371.042 357.450,369.118 352.320,367.002 346.600 C 364.886 340.880,363.003 335.840,362.817 335.400 C 362.630 334.960,362.083 333.520,361.600 332.200 C 360.572 329.389,360.254 328.555,359.694 327.200 C 359.467 326.650,359.064 325.570,358.800 324.800 C 358.536 324.030,358.133 322.950,357.906 322.400 C 357.679 321.850,357.361 321.040,357.200 320.600 C 357.039 320.160,356.721 319.350,356.494 318.800 C 356.267 318.250,355.864 317.170,355.600 316.400 C 355.336 315.630,354.974 314.640,354.796 314.200 C 354.154 312.609,352.450 308.088,350.423 302.600 C 348.369 297.039,346.220 291.334,345.601 289.800 C 345.423 289.360,344.883 287.920,344.400 286.600 C 343.365 283.771,342.836 282.455,342.353 281.505 C 342.159 281.123,342.000 280.536,342.000 280.200 C 342.000 279.864,341.841 279.277,341.647 278.895 C 341.321 278.254,341.007 277.513,340.039 275.100 C 339.840 274.605,339.283 273.120,338.800 271.800 C 338.317 270.480,337.776 269.040,337.598 268.600 C 336.971 267.053,335.270 262.543,333.224 257.000 C 329.470 246.834,329.179 246.059,328.494 244.400 C 328.267 243.850,327.864 242.770,327.600 242.000 C 327.336 241.230,326.957 240.195,326.760 239.700 C 325.835 237.385,325.480 236.549,325.153 235.905 C 324.959 235.523,324.800 234.936,324.800 234.600 C 324.800 234.264,324.641 233.677,324.447 233.295 C 324.121 232.654,323.807 231.913,322.839 229.500 C 322.640 229.005,322.083 227.520,321.600 226.200 C 321.117 224.880,320.571 223.440,320.386 223.000 C 320.201 222.560,318.858 218.960,317.400 215.000 C 313.268 203.774,311.849 200.074,311.153 198.705 C 310.959 198.323,310.800 197.736,310.800 197.400 C 310.800 197.064,310.641 196.477,310.447 196.095 C 310.252 195.713,309.871 194.860,309.600 194.200 C 309.329 193.540,308.948 192.687,308.753 192.305 C 308.559 191.923,308.400 191.336,308.400 191.000 C 308.400 190.664,308.241 190.077,308.047 189.695 C 307.396 188.416,306.620 186.481,305.200 182.600 C 304.717 181.280,304.176 179.840,303.998 179.400 C 303.371 177.853,301.670 173.343,299.624 167.800 C 296.417 159.115,295.952 157.873,295.507 156.800 C 294.917 155.377,294.549 154.400,294.000 152.800 C 293.410 151.081,293.056 150.153,292.400 148.600 C 291.744 147.047,291.390 146.119,290.800 144.400 C 290.248 142.793,289.879 141.814,289.292 140.400 C 288.630 138.807,286.658 133.564,283.800 125.800 C 282.342 121.840,280.999 118.240,280.814 117.800 C 280.629 117.360,280.083 115.920,279.600 114.600 C 278.565 111.771,278.036 110.455,277.553 109.505 C 277.359 109.123,277.200 108.536,277.200 108.200 C 277.200 107.864,277.041 107.277,276.847 106.895 C 276.652 106.513,276.316 105.750,276.100 105.200 C 275.884 104.650,275.503 103.705,275.254 103.100 C 274.399 101.026,274.080 100.198,273.600 98.800 C 273.336 98.030,272.957 96.995,272.760 96.500 C 272.562 96.005,272.238 95.195,272.039 94.700 C 271.840 94.205,271.315 92.810,270.871 91.600 C 270.427 90.390,269.342 87.510,268.459 85.200 C 267.577 82.890,266.382 79.650,265.805 78.000 C 265.227 76.350,264.561 74.550,264.324 74.000 C 263.765 72.704,263.392 71.723,262.800 70.000 C 262.536 69.230,262.133 68.150,261.906 67.600 C 261.679 67.050,261.316 66.150,261.100 65.600 C 260.884 65.050,260.548 64.287,260.353 63.905 C 260.159 63.523,260.000 62.936,260.000 62.600 C 260.000 62.264,259.841 61.677,259.647 61.295 C 259.452 60.913,259.116 60.150,258.900 59.600 C 258.684 59.050,258.321 58.150,258.094 57.600 C 257.867 57.050,257.464 55.970,257.200 55.200 C 256.648 53.593,256.279 52.614,255.692 51.200 C 254.967 49.455,248.978 33.549,247.220 28.699 C 246.841 27.653,246.411 26.678,246.265 26.532 C 246.119 26.386,246.000 25.947,246.000 25.557 C 246.000 24.323,245.280 24.341,244.541 25.593 M243.881 62.851 C 248.827 64.842,251.998 67.815,254.134 72.462 C 255.938 76.388,256.219 77.359,257.622 84.551 C 258.079 86.894,258.250 106.974,257.825 108.329 C 257.709 108.698,257.415 110.980,257.171 113.400 C 256.707 118.005,256.356 120.730,255.627 125.400 C 254.721 131.199,254.473 132.664,254.003 135.000 C 253.737 136.320,253.366 138.210,253.178 139.200 C 252.631 142.085,251.746 146.254,250.800 150.400 C 250.624 151.170,250.294 152.700,250.065 153.800 C 249.549 156.280,244.891 174.959,244.379 176.600 C 244.173 177.260,243.640 179.150,243.194 180.800 C 241.911 185.548,241.529 186.930,241.200 188.000 C 241.031 188.550,240.668 189.810,240.393 190.800 C 240.118 191.790,239.581 193.590,239.200 194.800 C 238.819 196.010,238.279 197.810,238.000 198.800 C 237.721 199.790,237.180 201.590,236.797 202.800 C 236.414 204.010,235.365 207.340,234.466 210.200 C 229.273 226.726,224.552 241.102,223.992 242.095 C 223.776 242.477,223.600 243.064,223.600 243.400 C 223.600 243.736,223.429 244.323,223.219 244.705 C 223.009 245.087,222.457 246.570,221.993 248.000 C 221.528 249.430,220.987 250.960,220.791 251.400 C 220.594 251.840,219.985 253.550,219.437 255.200 C 218.300 258.625,217.705 260.298,214.582 268.851 C 210.178 280.911,209.551 282.611,209.178 283.500 C 208.486 285.148,208.086 286.173,206.800 289.600 C 205.229 293.785,205.014 294.343,204.490 295.600 C 204.260 296.150,203.954 296.960,203.809 297.400 C 201.004 305.928,200.546 203.842,203.216 165.000 C 204.439 147.204,206.284 130.675,208.417 118.400 C 210.320 107.449,211.220 103.407,213.987 93.400 C 215.254 88.817,218.944 79.486,220.689 76.448 C 225.053 68.855,228.641 65.304,234.400 62.876 C 235.749 62.307,242.487 62.289,243.881 62.851 M214.600 308.245 C 215.920 308.585,217.450 308.967,218.000 309.096 C 225.462 310.836,231.412 317.922,231.387 325.039 C 231.319 344.111,196.518 357.104,178.422 344.815 C 176.443 343.471,175.472 342.527,173.680 340.200 C 165.095 329.058,178.284 312.454,199.200 308.073 C 202.224 307.440,211.887 307.548,214.600 308.245 " stroke="none" fill="#fceb93" fill-rule="evenodd"></path><path id="path3" d="M244.803 23.796 C 244.364 24.325,244.391 24.378,244.984 24.151 C 245.395 23.993,245.837 24.112,246.062 24.442 C 246.358 24.876,246.416 24.829,246.322 24.233 C 246.162 23.224,245.449 23.019,244.803 23.796 M246.400 25.372 C 246.400 25.565,247.895 29.573,248.798 31.800 C 249.195 32.780,250.632 36.719,250.971 37.757 C 251.108 38.174,251.313 38.421,251.427 38.306 C 251.623 38.110,251.270 37.108,248.359 29.600 C 247.719 27.950,247.197 26.386,247.198 26.124 C 247.199 25.862,247.020 25.536,246.800 25.400 C 246.580 25.264,246.400 25.252,246.400 25.372 M236.200 36.261 C 232.932 41.246,232.713 41.600,232.899 41.600 C 232.997 41.600,234.376 39.710,235.963 37.400 C 237.549 35.090,238.702 33.202,238.524 33.205 C 238.346 33.208,237.300 34.583,236.200 36.261 M251.612 39.200 C 251.612 39.530,251.787 40.070,252.000 40.400 C 252.345 40.933,252.388 40.933,252.388 40.400 C 252.388 40.070,252.213 39.530,252.000 39.200 C 251.655 38.667,251.612 38.667,251.612 39.200 M224.469 53.639 C 223.710 54.854,224.166 55.016,224.955 53.812 C 225.320 53.256,225.478 52.800,225.305 52.800 C 225.133 52.800,224.757 53.178,224.469 53.639 M222.869 56.039 C 222.110 57.254,222.566 57.416,223.355 56.212 C 223.720 55.656,223.878 55.200,223.705 55.200 C 223.533 55.200,223.157 55.578,222.869 56.039 M217.800 63.657 C 213.253 70.523,212.088 72.372,212.669 71.800 C 213.474 71.006,222.375 57.600,222.091 57.608 C 221.931 57.613,220.000 60.335,217.800 63.657 M261.401 65.174 C 261.856 66.650,262.767 68.653,262.778 68.200 C 262.793 67.589,261.791 64.855,261.424 64.507 C 261.246 64.338,261.236 64.638,261.401 65.174 M263.178 69.892 C 263.357 70.502,263.960 72.170,264.516 73.600 C 265.072 75.030,266.023 77.506,266.628 79.102 C 267.233 80.699,267.793 81.940,267.873 81.861 C 268.030 81.703,264.605 72.227,263.984 71.105 C 263.773 70.723,263.600 70.149,263.600 69.829 C 263.600 69.509,263.432 69.143,263.226 69.016 C 262.999 68.876,262.980 69.220,263.178 69.892 M211.273 73.400 C 211.022 73.950,210.883 74.400,210.963 74.400 C 211.043 74.400,211.403 73.950,211.763 73.400 C 212.124 72.850,212.263 72.400,212.073 72.400 C 211.884 72.400,211.523 72.850,211.273 73.400 M209.669 75.639 C 208.910 76.854,209.366 77.016,210.155 75.812 C 210.520 75.256,210.678 74.800,210.505 74.800 C 210.333 74.800,209.957 75.178,209.669 75.639 M202.935 85.713 C 199.820 90.381,193.273 100.140,188.388 107.400 C 166.069 140.564,158.328 152.163,158.823 151.702 C 159.313 151.244,166.240 141.028,185.741 112.000 C 189.806 105.950,196.732 95.645,201.133 89.100 C 205.534 82.555,209.015 77.206,208.867 77.213 C 208.720 77.220,206.051 81.045,202.935 85.713 M268.812 84.800 C 268.812 85.130,268.987 85.670,269.200 86.000 C 269.545 86.533,269.588 86.533,269.588 86.000 C 269.588 85.670,269.413 85.130,269.200 84.800 C 268.855 84.267,268.812 84.267,268.812 84.800 M275.228 101.876 C 275.318 102.915,275.944 103.796,275.972 102.924 C 275.987 102.442,275.820 101.936,275.600 101.800 C 275.380 101.664,275.213 101.698,275.228 101.876 M277.801 108.774 C 278.256 110.250,279.167 112.253,279.178 111.800 C 279.193 111.189,278.191 108.455,277.824 108.107 C 277.646 107.938,277.636 108.238,277.801 108.774 M280.000 114.574 C 280.000 114.695,280.614 116.371,281.364 118.297 C 282.114 120.224,283.222 123.106,283.828 124.702 C 284.433 126.299,284.994 127.539,285.074 127.459 C 285.154 127.379,284.296 124.903,283.165 121.957 C 282.035 119.010,281.019 116.192,280.908 115.694 C 280.728 114.895,280.000 113.996,280.000 114.574 M286.012 130.400 C 286.012 130.730,286.187 131.270,286.400 131.600 C 286.745 132.133,286.788 132.133,286.788 131.600 C 286.788 131.270,286.613 130.730,286.400 130.400 C 286.055 129.867,286.012 129.867,286.012 130.400 M292.428 147.476 C 292.518 148.515,293.144 149.396,293.172 148.524 C 293.187 148.042,293.020 147.536,292.800 147.400 C 292.580 147.264,292.413 147.298,292.428 147.476 M294.800 153.772 C 294.800 153.893,295.268 155.208,295.839 156.696 C 297.291 160.476,299.076 165.256,299.371 166.157 C 299.507 166.574,299.713 166.821,299.827 166.706 C 300.002 166.532,299.192 164.161,297.606 160.200 C 296.155 156.576,295.600 155.018,295.600 154.570 C 295.600 154.283,295.420 153.936,295.200 153.800 C 294.980 153.664,294.800 153.652,294.800 153.772 M154.555 157.700 C 153.487 159.295,152.511 160.690,152.386 160.800 C 152.176 160.985,150.216 163.869,149.421 165.162 C 149.196 165.529,149.225 165.632,149.504 165.459 C 149.739 165.314,151.342 163.093,153.066 160.524 C 156.727 155.068,156.895 154.800,156.668 154.800 C 156.573 154.800,155.622 156.105,154.555 157.700 M300.045 167.600 C 300.053 167.930,300.406 168.920,300.829 169.800 C 301.252 170.680,301.486 170.962,301.349 170.426 C 300.973 168.961,300.029 166.914,300.045 167.600 M302.412 174.000 C 302.412 174.330,302.587 174.870,302.800 175.200 C 303.145 175.733,303.188 175.733,303.188 175.200 C 303.188 174.870,303.013 174.330,302.800 174.000 C 302.455 173.467,302.412 173.467,302.412 174.000 M140.069 178.839 C 139.310 180.054,139.766 180.216,140.555 179.012 C 140.920 178.456,141.078 178.000,140.905 178.000 C 140.733 178.000,140.357 178.378,140.069 178.839 M136.600 184.060 C 133.486 188.792,132.566 190.293,133.080 189.800 C 133.928 188.988,139.635 180.400,139.323 180.406 C 139.145 180.410,137.920 182.054,136.600 184.060 M311.200 197.374 C 311.200 197.495,311.847 199.261,312.639 201.297 C 313.430 203.334,314.584 206.350,315.204 208.000 C 318.017 215.496,318.537 216.796,318.667 216.666 C 318.792 216.541,318.092 214.597,314.317 204.600 C 313.653 202.840,313.018 200.992,312.907 200.494 C 312.795 199.996,312.546 199.490,312.352 199.370 C 312.159 199.251,312.000 198.814,312.000 198.400 C 312.000 197.986,311.820 197.536,311.600 197.400 C 311.380 197.264,311.200 197.252,311.200 197.374 M124.469 202.039 C 123.710 203.254,124.166 203.416,124.955 202.212 C 125.320 201.656,125.478 201.200,125.305 201.200 C 125.133 201.200,124.757 201.578,124.469 202.039 M117.088 213.072 C 113.617 218.263,110.838 222.571,110.913 222.646 C 110.988 222.721,113.951 218.466,117.499 213.191 C 121.046 207.916,123.825 203.608,123.674 203.617 C 123.523 203.626,120.560 207.881,117.088 213.072 M319.612 219.600 C 319.612 219.930,319.787 220.470,320.000 220.800 C 320.345 221.333,320.388 221.333,320.388 220.800 C 320.388 220.470,320.213 219.930,320.000 219.600 C 319.655 219.067,319.612 219.067,319.612 219.600 M109.669 224.039 C 108.910 225.254,109.366 225.416,110.155 224.212 C 110.520 223.656,110.678 223.200,110.505 223.200 C 110.333 223.200,109.957 223.578,109.669 224.039 M108.069 226.439 C 107.310 227.654,107.766 227.816,108.555 226.612 C 108.920 226.056,109.078 225.600,108.905 225.600 C 108.733 225.600,108.357 225.978,108.069 226.439 M101.329 236.542 C 98.211 241.194,92.204 250.130,87.981 256.400 C 83.759 262.670,76.443 273.533,71.724 280.541 C 67.006 287.548,63.324 293.171,63.543 293.035 C 63.761 292.900,66.144 289.507,68.837 285.495 C 73.855 278.017,82.081 265.807,91.400 252.000 C 102.623 235.373,107.276 228.343,107.141 228.216 C 107.063 228.144,104.448 231.890,101.329 236.542 M326.201 237.174 C 326.656 238.650,327.567 240.653,327.578 240.200 C 327.593 239.589,326.591 236.855,326.224 236.507 C 326.046 236.338,326.036 236.638,326.201 237.174 M328.400 242.972 C 328.400 243.093,328.833 244.318,329.363 245.696 C 332.778 254.575,333.350 255.983,333.485 255.848 C 333.611 255.722,332.656 253.020,331.206 249.400 C 329.755 245.776,329.200 244.218,329.200 243.770 C 329.200 243.483,329.020 243.136,328.800 243.000 C 328.580 242.864,328.400 242.852,328.400 242.972 M333.662 256.800 C 333.661 257.130,334.006 258.120,334.429 259.000 C 334.852 259.880,335.086 260.150,334.950 259.600 C 334.575 258.095,333.666 256.116,333.662 256.800 M336.012 263.200 C 336.012 263.530,336.187 264.070,336.400 264.400 C 336.745 264.933,336.788 264.933,336.788 264.400 C 336.788 264.070,336.613 263.530,336.400 263.200 C 336.055 262.667,336.012 262.667,336.012 263.200 M338.412 269.600 C 338.412 269.930,338.587 270.470,338.800 270.800 C 339.145 271.333,339.188 271.333,339.188 270.800 C 339.188 270.470,339.013 269.930,338.800 269.600 C 338.455 269.067,338.412 269.067,338.412 269.600 M343.228 282.276 C 343.318 283.315,343.944 284.196,343.972 283.324 C 343.987 282.842,343.820 282.336,343.600 282.200 C 343.380 282.064,343.213 282.098,343.228 282.276 M344.800 286.574 C 344.800 286.695,345.447 288.461,346.239 290.497 C 347.890 294.748,349.808 299.850,350.171 300.957 C 350.307 301.374,350.513 301.621,350.627 301.506 C 350.742 301.391,350.360 300.061,349.779 298.549 C 349.198 297.037,348.186 294.360,347.530 292.600 C 346.874 290.840,346.172 289.087,345.969 288.705 C 345.766 288.323,345.600 287.749,345.600 287.429 C 345.600 287.109,345.420 286.736,345.200 286.600 C 344.980 286.464,344.800 286.452,344.800 286.574 M54.869 305.239 C 54.110 306.454,54.566 306.616,55.355 305.412 C 55.720 304.856,55.878 304.400,55.705 304.400 C 55.533 304.400,55.157 304.778,54.869 305.239 M53.318 307.900 C 52.933 308.505,52.503 309.090,52.362 309.200 C 51.891 309.569,49.104 314.106,49.500 313.862 C 49.715 313.729,50.760 312.311,51.823 310.710 C 52.886 309.110,53.923 307.575,54.127 307.300 C 54.331 307.025,54.390 306.800,54.258 306.800 C 54.126 306.800,53.703 307.295,53.318 307.900 M353.212 308.800 C 353.212 309.130,353.387 309.670,353.600 310.000 C 353.945 310.533,353.988 310.533,353.988 310.000 C 353.988 309.670,353.813 309.130,353.600 308.800 C 353.255 308.267,353.212 308.267,353.212 308.800 M359.775 326.292 C 360.204 327.690,362.063 331.895,361.856 331.000 C 361.538 329.629,360.147 326.012,359.816 325.699 C 359.642 325.534,359.624 325.802,359.775 326.292 M40.069 327.239 C 39.310 328.454,39.766 328.616,40.555 327.412 C 40.920 326.856,41.078 326.400,40.905 326.400 C 40.733 326.400,40.357 326.778,40.069 327.239 M36.600 332.460 C 33.528 337.129,32.561 338.700,33.069 338.200 C 33.945 337.337,39.630 328.800,39.325 328.806 C 39.146 328.810,37.920 330.454,36.600 332.460 M362.000 332.174 C 362.000 332.295,362.614 333.971,363.364 335.897 C 364.114 337.824,365.222 340.706,365.828 342.302 C 366.433 343.899,366.998 345.136,367.082 345.051 C 367.167 344.967,366.760 343.661,366.179 342.149 C 365.598 340.637,364.766 338.410,364.330 337.200 C 363.893 335.990,363.370 334.687,363.168 334.305 C 362.966 333.923,362.800 333.349,362.800 333.029 C 362.800 332.709,362.620 332.336,362.400 332.200 C 362.180 332.064,362.000 332.052,362.000 332.174 M30.901 341.600 C 31.011 342.009,31.626 342.215,32.831 342.247 C 34.587 342.293,34.588 342.292,33.005 342.117 C 32.128 342.020,31.259 341.729,31.075 341.470 C 30.844 341.147,30.790 341.188,30.901 341.600 M38.200 342.810 C 39.758 343.145,45.499 343.346,45.167 343.054 C 45.075 342.973,43.110 342.808,40.800 342.687 C 37.997 342.540,37.132 342.581,38.200 342.810 M48.600 343.609 C 50.150 343.943,56.703 344.149,56.367 343.853 C 56.275 343.773,54.130 343.607,51.600 343.485 C 48.575 343.340,47.548 343.382,48.600 343.609 M59.000 344.393 C 60.185 344.701,67.489 344.936,67.167 344.655 C 67.075 344.576,64.930 344.414,62.400 344.296 C 59.870 344.178,58.340 344.222,59.000 344.393 M69.400 345.202 C 70.595 345.504,77.884 345.731,77.567 345.456 C 77.475 345.376,75.330 345.218,72.800 345.105 C 70.270 344.991,68.740 345.035,69.400 345.202 M80.000 346.012 C 81.775 346.336,88.691 346.537,88.367 346.255 C 88.275 346.175,85.950 346.014,83.200 345.897 C 80.042 345.762,78.863 345.804,80.000 346.012 M367.200 345.823 C 367.200 346.400,369.314 351.620,369.480 351.453 C 369.637 351.297,367.722 345.989,367.389 345.655 C 367.285 345.551,367.200 345.627,367.200 345.823 M90.600 346.806 C 92.602 347.130,99.481 347.329,99.167 347.054 C 99.075 346.973,96.660 346.812,93.800 346.695 C 90.514 346.560,89.336 346.601,90.600 346.806 M99.626 347.348 C 99.750 347.478,102.630 347.780,106.026 348.018 C 112.201 348.451,115.885 348.720,127.700 349.598 C 131.165 349.856,134.225 349.988,134.500 349.891 C 134.775 349.795,133.110 349.596,130.800 349.449 C 128.490 349.302,124.530 349.012,122.000 348.804 C 105.381 347.439,99.338 347.046,99.626 347.348 M135.233 350.149 C 135.325 350.231,137.740 350.394,140.600 350.511 C 143.963 350.648,145.023 350.610,143.600 350.401 C 141.356 350.073,134.931 349.879,135.233 350.149 M146.433 350.953 C 146.525 351.037,148.760 351.203,151.400 351.322 C 154.612 351.467,155.539 351.428,154.200 351.204 C 152.179 350.867,146.125 350.670,146.433 350.953 M160.000 352.014 C 161.430 352.175,163.500 352.303,164.600 352.300 L 166.600 352.293 164.600 351.982 C 163.500 351.810,161.430 351.682,160.000 351.696 L 157.400 351.722 160.000 352.014 M170.800 352.817 C 172.010 352.984,173.990 353.113,175.200 353.104 L 177.400 353.087 175.200 352.783 C 173.990 352.616,172.010 352.487,170.800 352.496 L 168.600 352.513 170.800 352.817 M182.000 353.620 C 182.990 353.797,184.790 353.928,186.000 353.912 L 188.200 353.882 185.800 353.585 C 184.480 353.421,182.680 353.290,181.800 353.293 L 180.200 353.300 182.000 353.620 M192.600 354.423 C 193.480 354.605,195.190 354.739,196.400 354.721 L 198.600 354.687 196.400 354.383 C 195.190 354.216,193.480 354.082,192.600 354.086 L 191.000 354.092 192.600 354.423 M202.800 355.200 C 203.350 355.376,204.970 355.513,206.400 355.504 L 209.000 355.487 206.800 355.183 C 203.688 354.753,201.434 354.762,202.800 355.200 M213.600 355.985 C 214.567 356.309,220.304 356.551,219.967 356.253 C 219.875 356.172,218.180 356.004,216.200 355.878 C 214.058 355.743,213.005 355.786,213.600 355.985 M224.000 356.789 C 224.966 357.109,231.105 357.350,230.767 357.054 C 230.675 356.974,228.890 356.807,226.800 356.683 C 224.582 356.551,223.416 356.595,224.000 356.789 M234.600 357.600 C 235.260 357.768,237.060 357.900,238.600 357.894 L 241.400 357.882 239.000 357.585 C 235.612 357.164,232.925 357.174,234.600 357.600 M245.000 358.384 C 246.187 358.702,252.288 358.937,251.967 358.653 C 251.875 358.571,250.000 358.406,247.800 358.284 C 245.501 358.157,244.310 358.200,245.000 358.384 M255.600 359.189 C 256.566 359.509,262.705 359.750,262.367 359.454 C 262.275 359.374,260.490 359.207,258.400 359.083 C 256.182 358.951,255.016 358.995,255.600 359.189 M266.200 359.996 C 267.392 360.303,273.886 360.532,273.567 360.256 C 273.475 360.176,271.510 360.015,269.200 359.899 C 266.890 359.782,265.540 359.825,266.200 359.996 M276.800 360.809 C 278.577 361.137,285.090 361.337,284.767 361.054 C 284.675 360.974,282.440 360.812,279.800 360.693 C 276.715 360.555,275.643 360.596,276.800 360.809 M287.200 361.612 C 288.975 361.936,295.891 362.137,295.567 361.855 C 295.475 361.775,293.150 361.614,290.400 361.497 C 287.242 361.362,286.063 361.404,287.200 361.612 M297.800 362.419 C 299.354 362.744,306.301 362.945,305.967 362.656 C 305.875 362.576,303.640 362.415,301.000 362.298 C 297.960 362.163,296.787 362.207,297.800 362.419 M308.400 363.217 C 310.185 363.538,316.687 363.733,316.367 363.456 C 316.275 363.376,314.040 363.217,311.400 363.102 C 308.383 362.970,307.269 363.013,308.400 363.217 M316.814 363.736 C 316.931 363.859,319.991 364.163,323.614 364.410 C 327.236 364.658,332.180 365.012,334.600 365.198 C 346.231 366.091,351.706 366.428,351.873 366.260 C 351.974 366.159,350.469 365.969,348.528 365.838 C 344.842 365.588,338.467 365.102,330.000 364.424 C 321.834 363.770,316.586 363.496,316.814 363.736 M352.433 366.548 C 352.525 366.629,355.030 366.790,358.000 366.905 C 361.447 367.038,362.532 367.001,361.000 366.800 C 358.514 366.476,352.140 366.288,352.433 366.548 M366.600 367.613 C 368.140 367.771,370.300 367.898,371.400 367.894 L 373.400 367.887 371.200 367.583 C 369.990 367.416,367.830 367.290,366.400 367.302 L 363.800 367.326 366.600 367.613 " stroke="none" fill="#fcdc2a" fill-rule="evenodd"></path><path id="path4" d="M232.504 42.500 C 225.662 52.675,214.247 69.640,207.140 80.200 C 200.032 90.760,190.613 104.755,186.209 111.299 C 175.519 127.182,159.135 151.456,158.451 152.423 C 158.149 152.851,158.059 153.193,158.251 153.184 C 158.443 153.176,164.419 144.491,171.530 133.884 C 184.441 114.629,201.951 88.589,219.115 63.118 C 224.112 55.703,231.117 45.274,234.681 39.943 C 238.246 34.611,241.617 29.698,242.174 29.024 C 242.730 28.351,243.189 27.667,243.193 27.505 C 243.197 27.342,243.467 26.892,243.792 26.505 C 244.118 26.117,244.645 25.440,244.964 25.000 L 245.543 24.200 245.810 25.000 C 245.957 25.440,246.154 26.051,246.248 26.357 C 246.342 26.664,246.505 26.828,246.611 26.722 C 246.959 26.374,245.933 24.000,245.434 24.000 C 245.166 24.000,239.347 32.325,232.504 42.500 M246.859 27.600 C 246.859 27.930,247.193 28.920,247.600 29.800 C 248.007 30.680,248.341 31.130,248.341 30.800 C 248.341 30.470,248.007 29.480,247.600 28.600 C 247.193 27.720,246.859 27.270,246.859 27.600 M249.450 34.400 C 249.825 35.905,250.734 37.884,250.738 37.200 C 250.739 36.870,250.394 35.880,249.971 35.000 C 249.548 34.120,249.314 33.850,249.450 34.400 M250.800 38.172 C 250.800 38.293,251.268 39.608,251.839 41.096 C 252.410 42.583,253.418 45.240,254.077 47.000 C 254.737 48.760,255.423 50.560,255.602 51.000 C 255.781 51.440,256.038 52.141,256.173 52.557 C 256.308 52.974,256.513 53.221,256.627 53.106 C 256.801 52.932,255.878 50.233,254.401 46.600 C 252.965 43.066,251.596 39.318,251.598 38.924 C 251.599 38.662,251.420 38.336,251.200 38.200 C 250.980 38.064,250.800 38.052,250.800 38.172 M256.821 53.881 C 256.809 54.146,257.002 54.866,257.250 55.481 C 258.063 57.503,258.324 58.190,258.573 58.957 C 258.708 59.374,258.912 59.622,259.025 59.508 C 259.139 59.395,258.694 57.974,258.036 56.351 C 257.379 54.728,256.832 53.617,256.821 53.881 M260.022 62.505 C 260.010 62.893,260.167 63.523,260.371 63.905 C 260.575 64.287,260.849 64.941,260.980 65.357 C 261.111 65.774,261.311 66.022,261.423 65.910 C 261.536 65.797,261.272 64.827,260.836 63.753 C 260.400 62.679,260.034 62.117,260.022 62.505 M241.633 62.544 C 241.725 62.623,242.340 62.808,243.000 62.956 C 243.876 63.152,244.038 63.115,243.600 62.818 C 243.060 62.453,241.232 62.198,241.633 62.544 M226.778 67.900 L 225.400 69.400 226.900 68.022 C 228.296 66.738,228.584 66.400,228.278 66.400 C 228.212 66.400,227.537 67.075,226.778 67.900 M251.775 68.932 C 252.391 69.739,252.976 70.400,253.075 70.400 C 253.353 70.400,251.621 68.060,251.109 67.744 C 250.859 67.589,251.159 68.124,251.775 68.932 M262.412 68.800 C 262.412 69.130,262.587 69.670,262.800 70.000 C 263.145 70.533,263.188 70.533,263.188 70.000 C 263.188 69.670,263.013 69.130,262.800 68.800 C 262.455 68.267,262.412 68.267,262.412 68.800 M224.092 71.029 C 223.597 71.783,223.272 72.400,223.369 72.400 C 223.647 72.400,225.304 69.971,225.139 69.806 C 225.057 69.724,224.586 70.274,224.092 71.029 M222.553 73.300 C 221.176 75.636,221.086 75.835,221.787 75.000 C 222.600 74.032,223.300 72.800,223.038 72.800 C 222.933 72.800,222.715 73.025,222.553 73.300 M264.812 75.200 C 264.812 75.530,264.987 76.070,265.200 76.400 C 265.545 76.933,265.588 76.933,265.588 76.400 C 265.588 76.070,265.413 75.530,265.200 75.200 C 264.855 74.667,264.812 74.667,264.812 75.200 M219.781 78.037 C 219.429 78.718,219.212 79.345,219.299 79.432 C 219.386 79.519,219.756 78.962,220.122 78.195 C 220.944 76.470,220.659 76.338,219.781 78.037 M265.600 77.434 C 265.600 77.562,266.602 80.307,267.826 83.534 C 269.051 86.760,270.419 90.390,270.865 91.600 C 271.861 94.297,272.176 95.116,272.706 96.400 C 272.933 96.950,273.336 98.030,273.600 98.800 C 273.864 99.570,274.226 100.560,274.404 101.000 C 274.582 101.440,274.838 102.141,274.973 102.557 C 275.108 102.974,275.313 103.221,275.427 103.106 C 275.542 102.991,275.160 101.661,274.579 100.149 C 273.998 98.637,273.000 96.005,272.361 94.300 C 269.449 86.524,268.702 84.546,268.395 83.800 C 268.213 83.360,267.572 81.695,266.969 80.100 C 265.984 77.492,265.600 76.744,265.600 77.434 M257.503 86.800 C 257.617 88.450,257.776 89.875,257.855 89.967 C 258.133 90.287,257.918 85.792,257.608 84.800 C 257.431 84.236,257.386 85.107,257.503 86.800 M258.101 95.800 C 258.105 96.680,258.187 96.993,258.283 96.495 C 258.379 95.998,258.375 95.278,258.275 94.895 C 258.175 94.513,258.096 94.920,258.101 95.800 M212.629 98.229 C 212.481 98.815,212.438 99.372,212.532 99.466 C 212.627 99.560,212.824 99.158,212.971 98.571 C 213.119 97.985,213.162 97.428,213.068 97.334 C 212.973 97.240,212.776 97.642,212.629 98.229 M211.849 101.015 C 211.712 101.373,211.615 101.966,211.634 102.333 C 211.653 102.700,211.827 102.469,212.021 101.820 C 212.398 100.558,212.265 99.933,211.849 101.015 M257.731 105.800 C 257.733 107.340,257.805 107.921,257.892 107.091 C 257.979 106.261,257.977 105.001,257.889 104.291 C 257.800 103.581,257.729 104.260,257.731 105.800 M211.049 104.215 C 210.912 104.573,210.818 105.256,210.841 105.733 C 210.867 106.281,211.003 106.086,211.210 105.203 C 211.560 103.716,211.465 103.133,211.049 104.215 M210.200 108.400 C 210.048 109.091,210.007 109.741,210.109 109.842 C 210.211 109.944,210.409 109.453,210.550 108.750 C 210.883 107.083,210.560 106.760,210.200 108.400 M277.228 108.276 C 277.213 108.758,277.380 109.264,277.600 109.400 C 278.073 109.692,278.073 109.301,277.600 108.200 C 277.269 107.429,277.255 107.431,277.228 108.276 M257.293 110.000 C 257.293 110.770,257.375 111.085,257.476 110.700 C 257.576 110.315,257.576 109.685,257.476 109.300 C 257.375 108.915,257.293 109.230,257.293 110.000 M209.456 112.084 C 209.321 112.588,209.227 113.360,209.246 113.800 C 209.265 114.240,209.445 113.898,209.646 113.040 C 210.036 111.378,209.870 110.540,209.456 112.084 M278.862 112.400 C 278.861 112.730,279.206 113.720,279.629 114.600 C 280.052 115.480,280.286 115.750,280.150 115.200 C 279.775 113.695,278.866 111.716,278.862 112.400 M256.864 114.250 C 256.829 114.938,256.711 116.108,256.601 116.850 L 256.403 118.200 256.824 116.858 C 257.055 116.120,257.173 114.950,257.086 114.258 L 256.928 113.000 256.864 114.250 M208.656 116.484 C 208.521 116.988,208.428 117.850,208.449 118.400 C 208.472 118.989,208.631 118.671,208.836 117.625 C 209.203 115.752,209.073 114.927,208.656 116.484 M281.259 118.800 C 281.259 119.130,281.593 120.120,282.000 121.000 C 282.407 121.880,282.741 122.330,282.741 122.000 C 282.741 121.670,282.407 120.680,282.000 119.800 C 281.593 118.920,281.259 118.470,281.259 118.800 M256.054 120.800 C 256.019 121.350,255.896 122.250,255.783 122.800 L 255.577 123.800 256.007 122.815 C 256.243 122.274,256.365 121.374,256.278 120.815 L 256.120 119.800 256.054 120.800 M207.693 122.800 C 207.693 123.570,207.775 123.885,207.876 123.500 C 207.976 123.115,207.976 122.485,207.876 122.100 C 207.775 121.715,207.693 122.030,207.693 122.800 M282.800 123.013 C 282.800 123.316,288.702 139.085,289.906 142.000 C 290.133 142.550,290.536 143.630,290.800 144.400 C 291.064 145.170,291.426 146.160,291.604 146.600 C 291.782 147.040,292.038 147.741,292.173 148.157 C 292.308 148.574,292.513 148.821,292.627 148.706 C 292.742 148.591,292.360 147.261,291.779 145.749 C 291.198 144.237,290.182 141.560,289.523 139.800 C 288.863 138.040,288.178 136.240,288.001 135.800 C 287.823 135.360,287.283 133.920,286.800 132.600 C 286.317 131.280,285.774 129.840,285.594 129.400 C 285.413 128.960,284.772 127.295,284.169 125.700 C 283.194 123.118,282.800 122.345,282.800 123.013 M255.254 126.000 C 255.219 126.550,255.096 127.450,254.983 128.000 L 254.777 129.000 255.207 128.015 C 255.443 127.474,255.565 126.574,255.478 126.015 L 255.320 125.000 255.254 126.000 M206.909 128.400 C 206.909 129.390,206.987 129.795,207.082 129.300 C 207.178 128.805,207.178 127.995,207.082 127.500 C 206.987 127.005,206.909 127.410,206.909 128.400 M254.222 131.822 C 254.072 132.625,254.038 133.372,254.148 133.482 C 254.258 133.592,254.472 133.025,254.622 132.222 C 254.773 131.419,254.806 130.673,254.696 130.563 C 254.586 130.453,254.373 131.019,254.222 131.822 M206.114 134.600 C 206.117 135.700,206.195 136.103,206.287 135.495 C 206.379 134.886,206.377 133.986,206.282 133.495 C 206.187 133.003,206.111 133.500,206.114 134.600 M253.450 136.050 C 253.117 137.717,253.440 138.040,253.800 136.400 C 253.952 135.709,253.993 135.059,253.891 134.958 C 253.789 134.856,253.591 135.347,253.450 136.050 M252.846 139.667 C 252.821 140.034,252.696 140.664,252.570 141.067 C 252.352 141.762,252.363 141.763,252.797 141.087 C 253.048 140.696,253.173 140.066,253.073 139.687 C 252.911 139.068,252.888 139.066,252.846 139.667 M205.314 141.400 C 205.317 142.500,205.395 142.903,205.487 142.295 C 205.579 141.686,205.577 140.786,205.482 140.295 C 205.387 139.803,205.311 140.300,205.314 141.400 M251.829 144.229 C 251.681 144.815,251.638 145.372,251.732 145.466 C 251.827 145.560,252.024 145.158,252.171 144.571 C 252.319 143.985,252.362 143.428,252.268 143.334 C 252.173 143.240,251.976 143.642,251.829 144.229 M204.893 145.200 C 204.893 145.970,204.975 146.285,205.076 145.900 C 205.176 145.515,205.176 144.885,205.076 144.500 C 204.975 144.115,204.893 144.430,204.893 145.200 M251.029 147.829 C 250.881 148.415,250.838 148.972,250.932 149.066 C 251.027 149.160,251.224 148.758,251.371 148.171 C 251.519 147.585,251.562 147.028,251.468 146.934 C 251.373 146.840,251.176 147.242,251.029 147.829 M204.524 149.800 C 204.526 151.120,204.601 151.612,204.690 150.893 C 204.779 150.174,204.777 149.094,204.686 148.493 C 204.595 147.892,204.522 148.480,204.524 149.800 M250.229 151.429 C 250.081 152.015,250.038 152.572,250.132 152.666 C 250.227 152.760,250.424 152.358,250.571 151.771 C 250.719 151.185,250.762 150.628,250.668 150.534 C 250.573 150.440,250.376 150.842,250.229 151.429 M293.622 151.481 C 293.610 151.746,293.765 152.376,293.967 152.881 C 294.170 153.387,294.444 154.141,294.577 154.557 C 294.710 154.974,294.911 155.222,295.023 155.110 C 295.136 154.997,294.872 154.027,294.436 152.953 C 294.000 151.879,293.634 151.217,293.622 151.481 M204.093 153.600 C 204.093 154.370,204.175 154.685,204.276 154.300 C 204.376 153.915,204.376 153.285,204.276 152.900 C 204.175 152.515,204.093 152.830,204.093 153.600 M157.319 154.090 C 156.591 155.030,156.350 155.600,156.680 155.600 C 157.077 155.600,158.125 153.992,157.885 153.751 C 157.791 153.657,157.536 153.810,157.319 154.090 M249.429 155.029 C 249.281 155.615,249.238 156.172,249.332 156.266 C 249.427 156.360,249.624 155.958,249.771 155.371 C 249.919 154.785,249.962 154.228,249.868 154.134 C 249.773 154.040,249.576 154.442,249.429 155.029 M155.711 156.500 C 154.972 157.455,154.755 158.000,155.112 158.000 C 155.310 158.000,155.677 157.550,155.927 157.000 C 156.420 155.918,156.328 155.703,155.711 156.500 M203.731 159.400 C 203.733 160.940,203.805 161.521,203.892 160.691 C 203.979 159.861,203.977 158.601,203.889 157.891 C 203.800 157.181,203.729 157.860,203.731 159.400 M248.600 158.400 C 248.448 159.091,248.407 159.741,248.509 159.842 C 248.611 159.944,248.809 159.453,248.950 158.750 C 249.283 157.083,248.960 156.760,248.600 158.400 M296.012 158.000 C 296.012 158.330,296.187 158.870,296.400 159.200 C 296.745 159.733,296.788 159.733,296.788 159.200 C 296.788 158.870,296.613 158.330,296.400 158.000 C 296.055 157.467,296.012 157.467,296.012 158.000 M154.111 158.900 C 153.329 159.911,153.063 160.532,153.536 160.240 C 154.010 159.947,154.957 158.400,154.663 158.400 C 154.572 158.400,154.324 158.625,154.111 158.900 M152.511 161.300 C 151.729 162.311,151.463 162.932,151.936 162.640 C 152.410 162.347,153.357 160.800,153.063 160.800 C 152.972 160.800,152.724 161.025,152.511 161.300 M297.659 162.400 C 297.659 162.730,297.993 163.720,298.400 164.600 C 298.807 165.480,299.141 165.930,299.141 165.600 C 299.141 165.270,298.807 164.280,298.400 163.400 C 297.993 162.520,297.659 162.070,297.659 162.400 M203.309 164.000 C 203.309 164.990,203.387 165.395,203.482 164.900 C 203.578 164.405,203.578 163.595,203.482 163.100 C 203.387 162.605,203.309 163.010,203.309 164.000 M150.135 164.758 C 149.511 165.616,146.061 170.701,142.470 176.058 C 138.878 181.416,132.668 190.661,128.670 196.602 C 124.671 202.543,116.015 215.413,109.433 225.202 C 93.197 249.351,85.119 261.340,79.720 269.300 C 77.221 272.985,75.317 275.993,75.488 275.985 C 75.660 275.976,81.110 268.058,87.600 258.388 C 94.090 248.718,102.730 235.854,106.800 229.801 C 110.870 223.748,120.398 209.572,127.974 198.298 C 135.550 187.024,141.895 177.740,142.074 177.667 C 142.253 177.593,142.400 177.323,142.400 177.067 C 142.401 176.810,142.851 176.077,143.400 175.438 C 143.950 174.799,144.400 174.136,144.400 173.966 C 144.400 173.796,144.644 173.413,144.942 173.116 C 145.374 172.683,149.979 165.905,151.339 163.700 C 152.040 162.564,151.187 163.313,150.135 164.758 M299.200 166.520 C 299.200 166.728,303.025 176.995,303.998 179.400 C 304.176 179.840,304.717 181.280,305.200 182.600 C 305.683 183.920,306.224 185.360,306.403 185.800 C 306.581 186.240,306.838 186.941,306.973 187.357 C 307.108 187.774,307.313 188.021,307.428 187.906 C 307.543 187.791,306.981 186.010,306.180 183.948 C 305.378 181.887,304.200 178.805,303.561 177.100 C 302.923 175.395,301.859 172.605,301.198 170.900 C 300.537 169.195,299.997 167.586,299.998 167.324 C 299.999 167.062,299.820 166.736,299.600 166.600 C 299.380 166.464,299.200 166.428,299.200 166.520 M246.249 167.815 C 246.112 168.173,246.015 168.766,246.034 169.133 C 246.053 169.500,246.227 169.269,246.421 168.620 C 246.798 167.358,246.665 166.733,246.249 167.815 M202.937 171.400 C 202.939 173.160,203.009 173.830,203.093 172.889 C 203.178 171.949,203.177 170.509,203.091 169.689 C 203.005 168.870,202.936 169.640,202.937 171.400 M245.400 171.200 C 245.248 171.891,245.207 172.541,245.309 172.642 C 245.411 172.744,245.609 172.253,245.750 171.550 C 246.083 169.883,245.760 169.560,245.400 171.200 M244.446 174.867 C 244.421 175.234,244.296 175.864,244.170 176.267 C 243.952 176.962,243.963 176.963,244.397 176.287 C 244.648 175.896,244.773 175.266,244.673 174.887 C 244.511 174.268,244.488 174.266,244.446 174.867 M202.524 177.400 C 202.526 178.720,202.601 179.212,202.690 178.493 C 202.779 177.774,202.777 176.694,202.686 176.093 C 202.595 175.492,202.522 176.080,202.524 177.400 M242.046 183.667 C 242.021 184.034,241.896 184.664,241.770 185.067 C 241.552 185.762,241.563 185.763,241.997 185.087 C 242.248 184.696,242.373 184.066,242.273 183.687 C 242.111 183.068,242.088 183.066,242.046 183.667 M202.148 188.400 C 202.148 190.710,202.214 191.655,202.295 190.500 C 202.376 189.345,202.376 187.455,202.295 186.300 C 202.214 185.145,202.148 186.090,202.148 188.400 M241.246 186.467 C 241.221 186.834,241.096 187.464,240.970 187.867 C 240.752 188.562,240.763 188.563,241.197 187.887 C 241.448 187.496,241.573 186.866,241.473 186.487 C 241.311 185.868,241.288 185.866,241.246 186.467 M240.446 189.267 C 240.421 189.634,240.296 190.264,240.170 190.667 C 239.952 191.362,239.963 191.363,240.397 190.687 C 240.648 190.296,240.773 189.666,240.673 189.287 C 240.511 188.668,240.488 188.666,240.446 189.267 M308.422 190.905 C 308.410 191.293,308.567 191.923,308.771 192.305 C 308.975 192.687,309.249 193.341,309.380 193.757 C 309.511 194.174,309.711 194.422,309.823 194.310 C 309.936 194.197,309.672 193.227,309.236 192.153 C 308.800 191.079,308.434 190.517,308.422 190.905 M201.750 197.400 C 201.751 199.820,201.816 200.758,201.896 199.485 C 201.976 198.212,201.975 196.232,201.894 195.085 C 201.814 193.938,201.749 194.980,201.750 197.400 M310.828 197.476 C 310.813 197.958,310.980 198.464,311.200 198.600 C 311.673 198.892,311.673 198.501,311.200 197.400 C 310.869 196.629,310.855 196.631,310.828 197.476 M312.459 201.600 C 312.459 201.930,312.793 202.920,313.200 203.800 C 313.607 204.680,313.941 205.130,313.941 204.800 C 313.941 204.470,313.607 203.480,313.200 202.600 C 312.793 201.720,312.459 201.270,312.459 201.600 M314.859 208.000 C 314.859 208.330,315.193 209.320,315.600 210.200 C 316.007 211.080,316.341 211.530,316.341 211.200 C 316.341 210.870,316.007 209.880,315.600 209.000 C 315.193 208.120,314.859 207.670,314.859 208.000 M316.400 212.164 C 316.400 212.348,319.859 221.757,320.384 223.000 C 320.570 223.440,321.117 224.880,321.600 226.200 C 322.649 229.067,322.959 229.880,323.510 231.200 C 323.740 231.750,324.038 232.541,324.173 232.957 C 324.308 233.374,324.513 233.621,324.628 233.506 C 324.743 233.391,324.181 231.610,323.380 229.548 C 322.578 227.487,321.383 224.360,320.723 222.600 C 320.064 220.840,319.376 219.040,319.195 218.600 C 319.013 218.160,318.372 216.495,317.769 214.900 C 316.818 212.383,316.400 211.547,316.400 212.164 M201.382 232.200 C 201.382 241.000,201.435 244.543,201.500 240.073 C 201.564 235.604,201.564 228.404,201.499 224.073 C 201.435 219.743,201.382 223.400,201.382 232.200 M324.822 234.505 C 324.810 234.893,324.967 235.523,325.171 235.905 C 325.375 236.287,325.649 236.941,325.780 237.357 C 325.911 237.774,326.111 238.022,326.223 237.910 C 326.336 237.797,326.072 236.827,325.636 235.753 C 325.200 234.679,324.834 234.117,324.822 234.505 M327.239 240.600 C 327.200 241.182,328.196 243.932,328.576 244.293 C 328.754 244.462,328.765 244.150,328.600 243.600 C 328.146 242.081,327.269 240.148,327.239 240.600 M329.612 247.200 C 329.612 247.530,329.787 248.070,330.000 248.400 C 330.345 248.933,330.388 248.933,330.388 248.400 C 330.388 248.070,330.213 247.530,330.000 247.200 C 329.655 246.667,329.612 246.667,329.612 247.200 M331.200 251.432 C 331.200 251.705,336.336 265.486,337.598 268.600 C 337.776 269.040,338.317 270.480,338.800 271.800 C 339.283 273.120,339.824 274.560,340.003 275.000 C 340.181 275.440,340.438 276.141,340.573 276.557 C 340.708 276.974,340.913 277.221,341.028 277.106 C 341.143 276.991,340.581 275.210,339.780 273.148 C 338.978 271.087,337.800 268.005,337.161 266.300 C 331.346 250.777,331.200 250.412,331.200 251.432 M201.753 267.000 C 201.753 269.640,201.818 270.668,201.897 269.284 C 201.975 267.901,201.974 265.741,201.895 264.484 C 201.816 263.228,201.752 264.360,201.753 267.000 M202.155 277.400 C 202.156 280.260,202.220 281.378,202.297 279.883 C 202.374 278.389,202.374 276.049,202.296 274.683 C 202.218 273.318,202.155 274.540,202.155 277.400 M74.245 277.388 C 73.880 277.944,73.722 278.400,73.895 278.400 C 74.284 278.400,75.319 276.786,75.082 276.549 C 74.986 276.453,74.610 276.831,74.245 277.388 M210.844 278.044 C 210.598 278.751,210.466 279.400,210.552 279.485 C 210.638 279.571,210.909 279.062,211.156 278.356 C 211.402 277.649,211.534 277.000,211.448 276.915 C 211.362 276.829,211.091 277.338,210.844 278.044 M68.668 285.702 C 66.101 289.496,61.740 295.930,58.977 300.000 C 53.699 307.773,53.045 308.800,53.374 308.800 C 53.485 308.800,54.219 307.794,55.006 306.564 C 55.793 305.334,56.788 303.950,57.218 303.488 C 57.648 303.027,58.000 302.428,58.000 302.158 C 58.000 301.888,58.145 301.607,58.323 301.533 C 58.757 301.354,73.672 279.138,73.484 278.951 C 73.403 278.869,71.236 281.907,68.668 285.702 M342.022 280.105 C 342.010 280.493,342.167 281.123,342.371 281.505 C 342.575 281.887,342.849 282.541,342.980 282.957 C 343.111 283.374,343.311 283.622,343.423 283.510 C 343.536 283.397,343.272 282.427,342.836 281.353 C 342.400 280.279,342.034 279.717,342.022 280.105 M343.662 284.400 C 343.661 284.730,344.006 285.720,344.429 286.600 C 344.852 287.480,345.086 287.750,344.950 287.200 C 344.575 285.695,343.666 283.716,343.662 284.400 M202.528 290.400 C 202.528 291.830,202.601 292.415,202.689 291.700 C 202.778 290.985,202.778 289.815,202.689 289.100 C 202.601 288.385,202.528 288.970,202.528 290.400 M346.059 290.800 C 346.059 291.130,346.393 292.120,346.800 293.000 C 347.207 293.880,347.541 294.330,347.541 294.000 C 347.541 293.670,347.207 292.680,346.800 291.800 C 346.393 290.920,346.059 290.470,346.059 290.800 M202.872 295.067 C 202.790 296.961,203.114 298.100,203.642 297.774 C 203.839 297.652,204.000 297.373,204.000 297.153 C 204.000 296.933,203.830 296.858,203.622 296.986 C 203.412 297.116,203.178 296.372,203.094 295.310 L 202.944 293.400 202.872 295.067 M348.459 297.200 C 348.459 297.530,348.793 298.520,349.200 299.400 C 349.607 300.280,349.941 300.730,349.941 300.400 C 349.941 300.070,349.607 299.080,349.200 298.200 C 348.793 297.320,348.459 296.870,348.459 297.200 M350.000 301.320 C 350.000 301.526,353.789 311.698,354.797 314.200 C 354.974 314.640,355.336 315.630,355.600 316.400 C 356.157 318.022,356.528 319.004,357.110 320.400 C 357.340 320.950,357.638 321.741,357.773 322.157 C 357.908 322.574,358.113 322.821,358.228 322.706 C 358.343 322.591,357.781 320.810,356.980 318.748 C 356.178 316.687,355.000 313.605,354.361 311.900 C 353.723 310.195,352.659 307.405,351.998 305.700 C 351.337 303.995,350.797 302.386,350.798 302.124 C 350.799 301.862,350.620 301.536,350.400 301.400 C 350.180 301.264,350.000 301.228,350.000 301.320 M201.700 307.887 C 202.305 307.978,203.295 307.978,203.900 307.887 C 204.505 307.795,204.010 307.720,202.800 307.720 C 201.590 307.720,201.095 307.795,201.700 307.887 M209.700 307.887 C 210.305 307.978,211.295 307.978,211.900 307.887 C 212.505 307.795,212.010 307.720,210.800 307.720 C 209.590 307.720,209.095 307.795,209.700 307.887 M196.000 308.806 C 195.578 309.082,195.815 309.123,196.800 308.942 C 198.525 308.625,198.851 308.398,197.567 308.406 C 197.035 308.409,196.330 308.589,196.000 308.806 M52.511 309.700 C 51.729 310.711,51.463 311.332,51.936 311.040 C 52.410 310.747,53.357 309.200,53.063 309.200 C 52.972 309.200,52.724 309.425,52.511 309.700 M49.485 314.100 C 44.970 320.532,31.200 341.238,31.200 341.596 C 31.200 341.818,31.605 341.986,32.100 341.968 C 32.595 341.951,32.775 341.846,32.500 341.735 C 32.225 341.624,32.000 341.365,32.000 341.160 C 32.000 340.741,43.045 324.098,43.871 323.271 C 44.162 322.981,44.400 322.589,44.400 322.400 C 44.400 322.211,44.631 321.819,44.913 321.529 C 45.339 321.090,50.319 313.789,51.344 312.100 C 52.261 310.589,50.990 311.956,49.485 314.100 M182.562 314.713 C 179.921 316.641,178.000 318.281,178.000 318.608 C 178.000 318.751,178.855 318.115,179.900 317.194 C 180.945 316.273,182.565 315.070,183.500 314.522 C 184.435 313.973,185.200 313.451,185.200 313.362 C 185.200 312.952,184.444 313.339,182.562 314.713 M227.000 314.800 C 227.859 315.680,228.652 316.400,228.762 316.400 C 228.872 316.400,228.259 315.680,227.400 314.800 C 226.541 313.920,225.748 313.200,225.638 313.200 C 225.528 313.200,226.141 313.920,227.000 314.800 M176.434 320.153 L 175.469 321.400 176.613 320.312 C 177.243 319.714,177.677 319.153,177.579 319.065 C 177.480 318.977,176.965 319.467,176.434 320.153 M231.320 324.800 C 231.320 326.010,231.395 326.505,231.487 325.900 C 231.578 325.295,231.578 324.305,231.487 323.700 C 231.395 323.095,231.320 323.590,231.320 324.800 M358.422 323.481 C 358.410 323.746,358.565 324.376,358.767 324.881 C 358.970 325.387,359.244 326.141,359.377 326.557 C 359.510 326.974,359.711 327.222,359.823 327.110 C 359.936 326.997,359.672 326.027,359.236 324.953 C 358.800 323.879,358.434 323.217,358.422 323.481 M230.629 329.029 C 230.481 329.615,230.438 330.172,230.532 330.266 C 230.627 330.360,230.824 329.958,230.971 329.371 C 231.119 328.785,231.162 328.228,231.068 328.134 C 230.973 328.040,230.776 328.442,230.629 329.029 M360.862 330.000 C 360.861 330.330,361.206 331.320,361.629 332.200 C 362.052 333.080,362.286 333.350,362.150 332.800 C 361.775 331.295,360.866 329.316,360.862 330.000 M171.314 332.200 C 171.317 333.300,171.395 333.703,171.487 333.095 C 171.579 332.486,171.577 331.586,171.482 331.095 C 171.387 330.603,171.311 331.100,171.314 332.200 M171.606 335.233 C 171.609 335.765,171.789 336.470,172.006 336.800 C 172.282 337.222,172.323 336.985,172.142 336.000 C 171.825 334.275,171.598 333.949,171.606 335.233 M225.224 337.722 C 222.622 340.589,222.538 340.724,224.555 338.800 C 226.525 336.922,228.740 334.351,228.327 334.422 C 228.257 334.434,226.861 335.919,225.224 337.722 M363.259 336.400 C 363.259 336.730,363.593 337.720,364.000 338.600 C 364.407 339.480,364.741 339.930,364.741 339.600 C 364.741 339.270,364.407 338.280,364.000 337.400 C 363.593 336.520,363.259 336.070,363.259 336.400 M364.800 340.577 C 364.800 341.131,366.936 346.397,367.096 346.237 C 367.287 346.046,365.199 340.400,364.937 340.400 C 364.862 340.400,364.800 340.480,364.800 340.577 M175.200 342.150 C 175.750 342.771,176.740 343.650,177.400 344.104 C 178.826 345.085,178.443 344.664,176.000 342.568 C 174.804 341.541,174.536 341.401,175.200 342.150 M219.407 342.622 C 218.311 343.380,217.554 344.000,217.723 344.000 C 217.893 344.000,218.967 343.370,220.110 342.600 C 221.254 341.830,222.012 341.210,221.795 341.222 C 221.578 341.234,220.503 341.864,219.407 342.622 M34.433 342.149 C 34.525 342.230,36.760 342.397,39.400 342.520 C 42.566 342.667,43.655 342.625,42.600 342.395 C 41.052 342.057,34.096 341.848,34.433 342.149 M45.233 342.947 C 45.325 343.027,47.470 343.193,50.000 343.315 C 53.025 343.460,54.052 343.418,53.000 343.191 C 51.450 342.857,44.897 342.651,45.233 342.947 M56.433 343.750 C 56.525 343.832,58.490 344.000,60.800 344.122 C 63.236 344.251,64.496 344.208,63.800 344.020 C 62.614 343.698,56.111 343.460,56.433 343.750 M215.600 344.800 C 214.830 345.222,214.344 345.574,214.520 345.583 C 214.944 345.605,217.200 344.432,217.200 344.190 C 217.200 343.928,217.177 343.937,215.600 344.800 M69.400 344.815 C 70.720 344.979,72.700 345.112,73.800 345.111 L 75.800 345.108 74.200 344.777 C 73.320 344.595,71.340 344.462,69.800 344.482 L 67.000 344.518 69.400 344.815 M178.800 344.955 C 178.800 345.231,181.621 346.912,181.794 346.739 C 181.878 346.655,181.238 346.180,180.373 345.682 C 179.508 345.184,178.800 344.857,178.800 344.955 M80.000 345.614 C 81.430 345.775,83.500 345.905,84.600 345.903 L 86.600 345.900 84.800 345.580 C 83.810 345.403,81.740 345.273,80.200 345.291 L 77.400 345.322 80.000 345.614 M90.800 346.414 C 92.230 346.575,94.210 346.707,95.200 346.707 L 97.000 346.708 95.400 346.377 C 94.520 346.195,92.540 346.063,91.000 346.084 L 88.200 346.122 90.800 346.414 M101.400 347.215 C 104.765 347.633,107.862 347.623,106.200 347.200 C 105.540 347.032,103.650 346.900,102.000 346.906 L 99.000 346.918 101.400 347.215 M367.200 346.964 C 367.200 347.178,370.718 356.700,371.277 358.000 C 371.836 359.300,372.210 360.282,372.800 362.000 C 373.064 362.770,373.426 363.760,373.604 364.200 C 373.782 364.640,374.038 365.341,374.173 365.757 C 374.308 366.174,374.513 366.421,374.627 366.306 C 374.742 366.191,374.360 364.861,373.779 363.349 C 373.198 361.837,372.182 359.160,371.523 357.400 C 370.863 355.640,370.176 353.840,369.995 353.400 C 369.813 352.960,369.172 351.295,368.569 349.700 C 367.618 347.183,367.200 346.347,367.200 346.964 M112.000 348.017 C 113.210 348.184,115.190 348.315,116.400 348.307 L 118.600 348.293 116.600 347.982 C 115.500 347.810,113.520 347.680,112.200 347.691 L 109.800 347.713 112.000 348.017 M207.000 348.000 C 206.496 348.217,206.422 348.344,206.800 348.344 C 207.130 348.344,207.760 348.189,208.200 348.000 C 208.704 347.783,208.778 347.656,208.400 347.656 C 208.070 347.656,207.440 347.811,207.000 348.000 M122.400 348.817 C 123.610 348.984,125.770 349.112,127.200 349.102 L 129.800 349.082 127.400 348.785 C 126.080 348.621,123.920 348.493,122.600 348.500 L 120.200 348.513 122.400 348.817 M187.800 348.800 C 188.240 348.989,188.960 349.138,189.400 349.132 C 190.043 349.123,190.004 349.057,189.200 348.800 C 187.832 348.362,186.781 348.362,187.800 348.800 M203.200 348.800 C 202.408 349.054,202.367 349.120,203.000 349.120 C 203.440 349.120,204.250 348.976,204.800 348.800 C 205.592 348.546,205.633 348.480,205.000 348.480 C 204.560 348.480,203.750 348.624,203.200 348.800 M133.000 349.615 C 134.320 349.779,136.750 349.904,138.400 349.892 L 141.400 349.871 138.400 349.588 C 136.750 349.432,134.320 349.308,133.000 349.311 L 130.600 349.318 133.000 349.615 M193.700 349.496 C 194.965 349.575,197.035 349.575,198.300 349.496 C 199.565 349.416,198.530 349.351,196.000 349.351 C 193.470 349.351,192.435 349.416,193.700 349.496 M144.000 350.417 C 145.210 350.584,147.550 350.710,149.200 350.696 L 152.200 350.671 149.200 350.388 C 147.550 350.232,145.210 350.106,144.000 350.109 L 141.800 350.113 144.000 350.417 M154.600 351.218 C 155.700 351.390,157.680 351.545,159.000 351.563 C 160.320 351.581,163.200 351.772,165.400 351.988 C 167.600 352.204,172.010 352.571,175.200 352.803 C 178.390 353.035,183.250 353.394,186.000 353.600 C 188.750 353.806,193.610 354.169,196.800 354.407 C 199.990 354.644,204.490 355.003,206.800 355.203 C 213.651 355.798,219.818 356.101,219.554 355.829 C 219.419 355.689,216.629 355.393,213.354 355.172 C 210.079 354.950,205.150 354.601,202.400 354.397 C 197.698 354.048,195.346 353.869,181.400 352.808 C 178.320 352.573,173.460 352.211,170.600 352.002 C 167.740 351.794,163.150 351.442,160.400 351.221 C 154.390 350.737,151.501 350.736,154.600 351.218 M220.033 356.149 C 220.125 356.231,222.540 356.395,225.400 356.514 C 228.751 356.653,229.889 356.612,228.600 356.400 C 226.598 356.070,219.719 355.868,220.033 356.149 M230.833 356.944 C 230.925 357.024,233.160 357.185,235.800 357.302 C 238.840 357.437,240.013 357.393,239.000 357.181 C 237.446 356.856,230.499 356.655,230.833 356.944 M241.233 357.746 C 241.325 357.826,243.560 357.990,246.200 358.110 C 248.840 358.230,250.460 358.185,249.800 358.011 C 248.620 357.700,240.908 357.461,241.233 357.746 M252.033 358.549 C 252.125 358.630,254.360 358.797,257.000 358.919 C 259.711 359.044,261.278 359.000,260.600 358.818 C 259.421 358.500,251.707 358.258,252.033 358.549 M262.433 359.351 C 262.525 359.434,264.850 359.600,267.600 359.721 C 270.883 359.866,271.982 359.824,270.800 359.600 C 269.025 359.264,262.109 359.058,262.433 359.351 M273.633 360.150 C 273.725 360.233,275.870 360.399,278.400 360.520 C 281.472 360.667,282.402 360.627,281.200 360.400 C 279.416 360.062,273.313 359.861,273.633 360.150 M287.200 361.214 C 290.868 361.627,293.843 361.618,292.200 361.200 C 291.540 361.032,289.560 360.901,287.800 360.908 L 284.600 360.922 287.200 361.214 M297.800 362.015 C 299.120 362.179,301.100 362.312,302.200 362.311 L 304.200 362.308 302.600 361.977 C 301.720 361.795,299.740 361.662,298.200 361.682 L 295.400 361.718 297.800 362.015 M308.200 362.815 C 309.520 362.979,311.590 363.110,312.800 363.107 L 315.000 363.100 313.200 362.780 C 312.210 362.603,310.140 362.472,308.600 362.488 L 305.800 362.518 308.200 362.815 M318.800 363.614 C 320.230 363.775,322.300 363.905,323.400 363.903 L 325.400 363.900 323.600 363.580 C 322.610 363.403,320.540 363.273,319.000 363.291 L 316.200 363.322 318.800 363.614 M329.600 364.417 C 330.810 364.584,332.700 364.716,333.800 364.710 L 335.800 364.700 334.000 364.380 C 333.010 364.203,331.120 364.071,329.800 364.086 L 327.400 364.113 329.600 364.417 M340.200 365.218 C 341.300 365.390,343.280 365.522,344.600 365.512 L 347.000 365.493 345.000 365.182 C 343.900 365.010,341.920 364.878,340.600 364.888 L 338.200 364.907 340.200 365.218 M350.600 366.018 C 351.700 366.190,353.860 366.318,355.400 366.304 L 358.200 366.278 355.600 365.986 C 354.170 365.825,352.010 365.697,350.800 365.700 L 348.600 365.707 350.600 366.018 M361.400 366.815 C 362.720 366.979,365.060 367.104,366.600 367.092 L 369.400 367.071 366.400 366.788 C 364.750 366.632,362.410 366.508,361.200 366.511 L 359.000 366.518 361.400 366.815 M374.801 367.033 C 374.801 367.235,373.586 367.369,372.101 367.331 L 369.400 367.263 371.994 367.617 C 374.426 367.950,375.785 367.651,375.073 366.940 C 374.923 366.790,374.800 366.832,374.801 367.033 " stroke="none" fill="#fce458" fill-rule="evenodd"></path></g></svg>